<?xml version="1.0" encoding="utf-8"?>
<!-- Generator: Adobe Illustrator 25.0.1, SVG Export Plug-In . SVG Version: 6.00 Build 0)  -->
<svg version="1.1" id="Layer_1" xmlns="http://www.w3.org/2000/svg" xmlns:xlink="http://www.w3.org/1999/xlink" x="0px" y="0px"
	 viewBox="0 0 419 566" style="enable-background:new 0 0 419 566;" xml:space="preserve">
<style type="text/css">
	.st0{fill:#231815;}
	.st1{fill:#302623;}
	.st2{fill:#FFF100;}
	.st3{fill:#FFFFFF;}
</style>
<g>
	<g>
		<path class="st0" d="M308,564.8c-60.2-1.8-85.5-4.9-96-12.1c-5.2-3.4-6-6.8-3-12.5c5.4-10.1,16-14.7,33.8-14.7H254v-3.1
			c0-2.8-0.4-3.2-5.7-4.8c-14.2-4.4-33.8-15.7-44.7-25.7c-6.5-5.9-13.1-15.2-14.1-19.9c-0.4-1.7-1-3.2-1.5-3.5
			c-0.4-0.3-4.3,1.6-8.5,4.3l-7.8,4.7l-13.1,0.3c-7.2,0.1-19.9-0.1-28.2-0.5l-15-0.8l0.8-3.3c0.5-1.8,2.6-5,4.7-7.1
			c5.9-5.9,11.3-8,25.2-9.7c13-1.6,22.5-3.6,24.1-5.2c0.6-0.6,0.3-3-0.8-6.1c-2.4-7.5-1.5-27.5,2-43.4c1.4-6.5,2.6-13.4,2.6-15.2
			c0-3.1-0.3-3.5-3.2-3.9c-1.8-0.3-18.4-0.8-36.8-1.1c-48.9-0.9-56-2.1-66.5-11.7c-3.6-3.3-5.6-4.5-5.9-3.6c-0.2,0.7-1,3.5-1.7,6.2
			c-1.6,6.3-8.4,15.4-14.4,19.4c-8,5.3-16.5,4.1-21.8-3c-4.2-5.6-5-10.1-4.4-22.5l0.5-11.3l-4.4-5.8c-15.1-19.3-17.1-27.8-9.7-41.4
			c5.8-10.6,15.1-12.8,23.1-5.5l2.2,2v-8.1c0-6.9,0.3-8.5,2-10.2c6.7-6.7,18.5-4.5,25.5,4.7c4.3,5.6,7.7,14.4,7.9,20.3
			c0.1,4.2,0.3,4.5,2.6,4.3c9.1-0.7,10.1-1.1,13.9-5.1c6.6-7.2,5.8-7.1,47.6-5.6c20.4,0.8,43.5,1.3,51.5,1.2l14.5-0.3l0.1-3.5
			c0.3-11,0.2-10.8,3.8-12.1l3.5-1.3l-3.2-4.4c-3.7-5.1-8.9-10-12.2-11.2c-1.2-0.5-7.6-1.6-14.1-2.5c-15.1-2-22.2-3.9-29.5-7.6
			c-3.2-1.6-6.5-2.9-7.3-2.9c-0.9,0-3.3,3.6-5.8,8.7c-5.2,10.8-13.2,19.2-20.3,21.7c-22.2,7.5-48.8-9.9-65.2-42.9
			c-10.7-21.4-15.5-47.3-13.3-72.1c1.8-20,2.7-22.9,17-52.1c7.2-14.7,14.5-30.1,16.1-34.2C73,71.9,84.4,51.3,93.2,40.3
			c3.9-5,7.3-7.7,17.1-13.7c21.9-13.4,43.1-22.5,57.2-24.5c11.7-1.7,31.6,1.4,48.5,7.4c10,3.6,23.8,10.8,28.6,14.9
			c6.1,5.2,7.5,5.3,16.1,0.9l7.6-3.8l12.6,0.1c14.2,0.1,20.5,1.8,28.4,7.8c3.9,2.9,10,10.1,10.9,12.6c0.2,0.6,5.3,2.2,11.4,3.5
			c18.7,3.9,30.6,7.4,37.9,10.9c22.2,10.9,42.3,40.6,47.6,70.6c1.5,8.4,1.4,26.7-0.1,35c-4.4,23.8-17.2,48.3-31.1,59.4
			c-20.2,16.1-35,22.6-79.9,35.1c-19.3,5.4-27,8.8-32.3,14.1c-3.6,3.6-7.7,10.1-7.7,12.2c0,0.5,2,1.7,4.4,2.6
			c7,2.7,7.9,4.3,8.5,15.4c0.5,8.7,0.8,9.7,2.6,9.9c8.3,1.2,13,2.8,16.1,5.5c6.6,5.8,9.4,14.6,9.9,30.4c0.3,9.6,0.5,10.4,4.8,19.5
			c4.7,9.5,7.7,19,7.7,24.1c0,2.1,1.5,4.2,6.3,8.8c8.7,8.2,12.1,14.6,12.3,23c0.1,5.5,0.4,6.7,2.3,7.6c5.7,2.9,9.3,8.6,11.5,18.6
			c4.3,18.9,2.3,44.1-4.8,59.8c-0.5,1.2,0.7,1.8,6.1,2.8c18.4,3.5,33.5,17.6,35,32.6c0.6,6.2-2.6,13.2-7.2,15.7
			c-3,1.7-28.9,5.4-42.5,6.1C335.4,565.4,321.5,565.2,308,564.8L308,564.8z M340.1,555.8c1-1.5-0.3-4.6-5.1-12.7
			c-6-10.1-5.5-15.1,1.6-15.1c4,0,4.5,0.3,7.4,4.5c4.8,7,8,14.6,8,19.3c0,4.9-0.8,4.7,13.5,2.7c9-1.3,10.3-1.7,12.8-4.5
			c3.3-3.7,3.4-5.7,0.3-11.8s-10.6-13.1-17.8-16.5c-9.2-4.4-17.2-5.3-34.4-3.8c-8.2,0.7-19.1,1.5-24.1,1.8
			c-9.9,0.6-9.5,0.8-10.7-4.8l-0.6-2.7l-7.7,3.4c-4.3,1.8-10.8,4.1-14.5,5.1c-6.8,1.7-6.8,1.8-6.9,5.3c-0.1,7.6,0.1,7.5-16,7.5
			c-13.8,0-14.7,0.1-20.1,2.8c-5.1,2.5-9.8,6.7-9.8,8.7c0,1.2,9,4.7,16.5,6.3c14,3.1,46,5.7,69.3,5.7c12.8,0,12.6,0.3,5.7-8
			c-2.9-3.5-3.5-5-3.3-7.9c0.3-3.4,0.5-3.6,4.2-3.9c3.2-0.3,4.4,0.2,7.4,3c4.5,4.3,9.2,11.6,9.2,14.4c0,1.7,0.7,2.4,2.8,2.7
			C331.9,558,339.3,557.1,340.1,555.8L340.1,555.8z M267.7,507.9c11.1-3.9,20.6-9.4,28.2-16.5c5.6-5.1,6.3-5.5,10.3-5.2l4.3,0.3
			l0.3,4.5c0.3,4.2,0,4.8-4.3,9c-2.5,2.4-4.5,5.2-4.5,6.2c0,2.1,0.7,2.1,22.4,0.5l14.9-1.2l1.9-3.7c2.9-5.5,5.8-21.1,5.8-31
			c0-14.3-3.7-28.8-8.3-32.6c-2.7-2.3-17.5,4.8-19.5,9.2c-1.4,3.2-8.5,5.8-24.6,9c-24.7,5-63.3,9.3-89.4,9.9l-9.3,0.2l2.8,5.5
			c4.6,9.2,16.7,20,32.5,28.9c7.9,4.5,21.8,10.1,25,10.1C257.6,511,262.8,509.6,267.7,507.9L267.7,507.9z M163,470.5
			c0-0.8,0.9-2,1.9-2.7c1.6-0.9,1.7-1.4,0.6-2.5c-0.8-0.7-1.8-1.3-2.4-1.3c-0.6,0-1.1-0.7-1.1-1.6c0-1.2-0.6-1.5-2.2-1.1
			c-1.3,0.3-5.4,0.9-9.3,1.2c-10.6,1-15.2,2.3-19.7,5.3l-4.2,2.7l9,0.6C154.9,472.3,163,472.1,163,470.5z M217,452.6
			c0-3.4,2.2-4.8,7.2-4.4c3.9,0.3,4.3,0.6,4.6,3.1c0.3,2.1,0.8,2.7,2,2.3c0.9-0.2,5.6-0.7,10.3-1.1s8.9-1,9.5-1.3
			c0.5-0.4,0.9-2.5,0.9-4.7c0-3.8,0.2-4,3.3-4.3c3.8-0.4,6.1,1.8,6.2,5.6c0,2.2,0.3,2.3,4.8,1.7c9.8-1.4,30.5-5.7,36.7-7.6
			c6-1.8,6.5-2.2,7.4-5.7c3.1-11.6,4.2-36.2,2.1-47.1c-1.2-6.7-7.3-21.2-7.8-18.8c-0.2,1,0.3,4,1.2,6.7c1.9,5.7,2,8.4,0.6,11.1
			c-0.9,1.5-2.2,1.9-6.5,1.9c-3,0-5.5-0.4-5.5-1c0-0.5-1.5-0.1-3.2,1c-3.9,2.4-12.9,2.7-16.9,0.6c-2.4-1.2-2.9-1.2-4.7,0.7
			c-2.5,2.5-11.5,3.5-16.3,1.8c-2.6-0.9-3.5-0.8-4.8,0.3c-2.4,2.1-6.6,2.9-11.6,2.1c-6.6-0.9-8.5-3.4-8.5-11.3c0-3.5,0.4-7.2,1-8.2
			c1.7-3.2,17.8-6.7,19.4-4.1c0.8,1.2,5.9,0.1,6.9-1.5c1.1-1.8,10.7-1.8,13.1-0.1c1.5,1.1,2.5,1.1,5.5,0.1c1.9-0.6,3.7-1.7,3.9-2.3
			c0.2-0.6,2.7-1.1,5.8-1.1c5.3,0,5.4-0.1,5.4-2.9c0-2.9,2.6-5.5,6.3-6.2c1.5-0.3,0.8-1.6-3.6-6.9c-3-3.6-8.2-9.1-11.4-12.3l-6-5.8
			l-5.9,1.7c-4.9,1.4-10.7,1.7-34.4,1.8c-27.1,0.1-28.7,0-32.5-2c-5.3-2.8-7.6-7-8.3-14.9l-0.5-6.5h-22.1c-12.1,0-33.9-0.5-48.3-1.1
			c-29.6-1.2-29.8-1.2-35,6.3c-2.1,3.1-3.2,3.8-5.9,3.8c-3.1,0-3.4,0.3-3.4,3c0,3-0.1,3-5.4,3c-3,0-5.8,0.5-6.1,1
			c-0.4,0.6,2,1,6.4,1H80v4v4h-8c-9.1,0-10.9,1.7-2.3,2.2l5.8,0.3v5v5l-5.9,0.7c-8.3,1.1-8.2,1.8,0.2,1.8H77v4c0,3.3-0.3,4-1.9,4
			c-3.4,0-3.3,1.8,0.2,4.4c8.9,6.8,14.5,7.6,61.7,8.5c24.6,0.5,39.5,1.2,41.3,1.9c2.7,1.2,2.7,1.2,2.7,11.4c0,7.3-0.6,12.5-2.1,17.8
			c-1.4,5.1-2.2,11.9-2.6,21c-0.5,13.2-0.5,13.7,2.1,18.7c3.5,7,4.6,7.4,4.6,1.9V442h5h5v5.8c0,3.2,0.3,6.2,0.7,6.5
			c0.3,0.4,5.7,0.7,12,0.7C216.9,455,217,455,217,452.6L217,452.6z M328,426.5c2.2-1.1,3-2.3,3-4.1c0-2.8-4.8-12.4-6.2-12.4
			c-0.4,0-0.8,4.1-0.8,9c0,5,0.2,9,0.5,9C324.9,428,326.4,427.3,328,426.5z M41.9,389.6c3.4-1.8,10.4-9.3,12.6-13.5
			c0.8-1.7,2-5.6,2.6-8.7c0.8-4.5,0.7-6.3-0.7-10c-3-7.8-0.3-29,4.4-35.4c4.6-6.1-0.2-24.8-8.1-31.7c-4.3-3.8-7.4-4.8-12.1-3.9
			c-6.2,1.2-6.4,2.7-4,25.9c0.9,7.9-1.4,7.7-5.7-0.4c-5.8-10.8-12.4-12.9-18.8-6.1c-6.3,6.6-8.1,18.3-4.2,26.1
			c1.2,2.2,4,6.4,6.4,9.3c9.7,12,9.2,10.7,9.2,26.3c0,12.7,0.2,14.3,2.2,17.6c1.3,2,3.3,4.1,4.5,4.7
			C33.5,391.3,38.6,391.2,41.9,389.6L41.9,389.6z M297.5,332.1c-0.9-2.7-2.6-6.2-3.7-7.7c-3.2-4.1-11.8-7.1-11.8-4.2
			c0,1.4,16.1,18,16.8,17.3C299,337.3,298.5,334.9,297.5,332.1L297.5,332.1z M250.7,325.1c9.4-0.7,11.9-1.2,15.7-3.5l4.6-2.7V307
			c0-10.8-0.2-12-2-13c-1.7-0.9-2-0.6-2.6,2.5c-1.1,6.3-10.4,8.9-31.4,8.9c-15.2-0.1-22.8-1.7-27.9-6l-3.1-2.6v9.5
			c0,12.3,1.1,15.4,6.4,17.8C215,326.2,230.1,326.6,250.7,325.1L250.7,325.1z M248.7,292.9c6-1.2,6.8-2,7.8-7.5
			c1-6.5,6-15.9,10.9-20.8c7.5-7.5,14.1-10.2,47.6-19.1c40.8-10.9,66.9-26.5,79.2-47.2c12.6-21.3,18.5-44.4,16-63.3
			c-4.1-30.1-23.4-60.6-45.3-71.4c-5.7-2.8-32.2-10.6-36-10.6c-0.3,0-0.9,7.5-1.2,16.7c-0.3,9.3-1.1,19.3-1.8,22.3
			c-2.3,10.9-7.7,18.3-16.9,23.1c-4.2,2.2-5.7,2.4-20,2.4c-13.7,0-16.3-0.3-22.3-2.4c-14.6-5-25.1-14.9-28.3-26.9
			c-1.5-5.6-2-6.3-3.8-5.8c-1.2,0.3-2.7,0.6-3.3,0.6c-0.8,0-1.3,1.2-1.3,2.9c0,5.2-6.1,15.1-14.5,23.7c-6.4,6.5-9.8,8.9-16.9,12.5
			l-8.9,4.4h-12.1c-10.8,0-12.6-0.3-16.6-2.4c-7-3.7-9.9-6.2-14.5-12.3l-4.3-5.7l-7.3,6.1c-11.1,9.3-23.9,20.9-23.9,21.8
			c0,0.5,2,4.3,4.5,8.5c14.8,25,24.6,51.7,27.5,74.8c0.7,5.1,1,15.1,0.8,22.4l-0.3,13.2l7.5,3.5c7.7,3.6,11.5,4.4,30.4,7.1
			c14.6,2,17.3,3.9,29.8,20.2c2.6,3.4,6,6.9,7.6,7.7C224.8,294.5,237.1,295.1,248.7,292.9L248.7,292.9z M105.8,283.6
			c2.3-0.8,5.5-2.5,7.3-3.8c3.6-2.7,10.7-13,13.8-20.3c1.2-2.7,2.9-5.8,3.9-6.8c2.8-3.1,2.4-27-0.7-40.7c-2.6-12-8.1-27.6-13.8-40.1
			c-4.9-10.4-16-30-17.9-31.5c-2.2-1.8-7.4-13.7-7.4-16.9c0.1-2.6,2.7-5.4,20.9-21.8L132.6,83l-0.4-11.3
			c-0.9-23.7,6.7-37.3,26.3-46.7c10.2-5,18.8-7,29.5-7c13.8,0.1,22.4,4.2,31.5,15.1c5,6,10.5,15.7,10.5,18.7c0,1.7,0.6,2.2,2.4,2.2
			c3.3,0,5.2-2.1,6-6.5c0.4-2,1.6-5.7,2.7-8.3l2.1-4.7l-3.9-3.3c-5.2-4.7-23.9-13.6-34.8-16.7c-13.3-3.8-26.1-5.8-32.8-5.1
			c-17.2,1.8-59.2,22.7-70.6,35.2c-7.8,8.6-20.6,31.2-28,49.7c-1.6,3.9-8.8,19.2-16,34c-14.5,29.5-15.7,33.2-16.8,53.2
			c-1.3,25.2,6.6,53.5,21,75c8.6,12.8,23.8,24.9,34.3,27.4C101.1,285.2,101.3,285.2,105.8,283.6L105.8,283.6z"/>
		<path class="st0" d="M294.6,163.4c-2.2-0.8-4.8-2.2-5.9-3.2c-6.7-6-6.2-17.7,0.9-24.4c12-11.2,44.8-11.5,51.5-0.4
			c2.6,4.2,2.5,13,0,17.2c-5.1,8.3-15.7,12.4-31.9,12.3C302.5,164.9,297,164.3,294.6,163.4L294.6,163.4z"/>
		<path class="st0" d="M91.5,278.8c-12-4.3-29.6-23.7-36.2-39.8c-5.2-13-7.9-35.9-7-60.5c0.8-20.4,3.4-31.8,11.7-51.8l3.2-7.7h3.9
			c2.4,0,3.9,0.5,3.9,1.3c0,2.3,2-1.7,2-4.1c0-2.1,0.4-2.3,3.7-2l3.7,0.3l2.1,10.5c2,10.5,2.1,10.5,5.1,10.8c2.6,0.3,3.8,1.5,8.1,8
			c12.1,18.6,20.7,35.7,26.7,53.1c4.6,13.3,6.6,24.6,6.6,38c0,11.8-1.5,19.3-5.6,27.2c-3.1,6.2-11.1,14.5-15.9,16.5
			C103.5,280.2,95.9,280.3,91.5,278.8L91.5,278.8z"/>
	</g>
	<g>
		<path class="st1" d="M231,532.2c0-1,3.8-4.2,5-4.2c0.6,0,1,0.5,1,1c0,0.6,0.7,1,1.5,1s1.5,0.7,1.5,1.5c0,1.1-1.2,1.5-4.5,1.5
			C233,533,231,532.7,231,532.2z"/>
		<path class="st1" d="M297,518.5c0-0.8,0.7-1.5,1.5-1.5s1.5-0.4,1.5-1c0-0.5,0.7-1,1.5-1s1.5,0.5,1.5,1.1s0.7,0.9,1.5,0.5
			c1-0.4,1.5,0.1,1.5,1.4c0,1.7-0.7,2-4.5,2C298.2,520,297,519.6,297,518.5z"/>
		<path class="st1" d="M307,517.5c0-0.8,0.7-1.5,1.5-1.5s1.5-0.4,1.5-1c0-0.5,0.7-1,1.5-1s1.5,0.5,1.5,1.1s0.7,0.9,1.5,0.5
			c1-0.4,1.5,0.1,1.5,1.4c0,1.7-0.7,2-4.5,2C308.2,519,307,518.6,307,517.5z"/>
		<path class="st1" d="M318,516.5c0-0.8,0.7-1.5,1.5-1.5s1.5-0.4,1.5-1c0-0.5,0.7-1,1.5-1s1.5,0.5,1.5,1c0,0.6,0.7,1,1.5,1
			s1.5,0.7,1.5,1.5c0,1.1-1.2,1.5-4.5,1.5S318,517.6,318,516.5z"/>
		<path class="st1" d="M332.8,509.2c-3.4-0.7-2-3.2,1.7-3.2c2.3,0,3.5,0.5,3.5,1.4C338,508.9,335.5,509.8,332.8,509.2L332.8,509.2z"
			/>
		<path class="st1" d="M192,464.5c0-0.8,0.6-1.5,1.4-1.5c0.8,0,1.7-0.6,2-1.2c0.5-1,0.7-1,1.2,0c0.3,0.6,1.2,1.2,2,1.2
			s1.4,0.7,1.4,1.5c0,1.1-1.1,1.5-4,1.5S192,465.6,192,464.5L192,464.5z"/>
		<path class="st1" d="M206,464.5c0-0.8,0.7-1.5,1.5-1.5s1.5-0.4,1.5-1c0-0.5,1.1-1,2.5-1s2.5,0.5,2.5,1c0,0.6,0.7,1,1.5,1
			s1.5,0.7,1.5,1.5c0,1.2-1.3,1.5-5.5,1.5S206,465.7,206,464.5z"/>
		<path class="st1" d="M225,463.5c0-0.8,0.7-1.5,1.5-1.5s1.5-0.4,1.5-1c0-0.5,0.7-1,1.5-1s1.5,0.5,1.5,1c0,0.6,0.7,1,1.5,1
			s1.5,0.7,1.5,1.5c0,1.1-1.2,1.5-4.5,1.5S225,464.6,225,463.5z"/>
		<path class="st1" d="M236,462.5c0-0.8,0.7-1.5,1.5-1.5s1.5-0.4,1.5-1c0-0.5,0.7-1,1.5-1s1.5,0.5,1.5,1c0,0.6,0.7,1,1.5,1
			s1.5,0.7,1.5,1.5c0,1.1-1.2,1.5-4.5,1.5S236,463.6,236,462.5z"/>
		<path class="st1" d="M140,461.5c0-0.8,0.7-1.5,1.5-1.5s1.5-0.4,1.5-1c0-0.5,0.7-1,1.5-1s1.5,0.5,1.5,1.1s0.7,0.9,1.5,0.5
			c1-0.4,1.5,0.1,1.5,1.4c0,1.7-0.7,2-4.5,2C141.2,463,140,462.6,140,461.5z"/>
		<path class="st1" d="M163.7,459.3c-1.2-1.1-0.8-2.3,0.7-2.3c0.8,0,1.6-0.8,1.8-1.7c0.3-1.5,0.5-1.5,0.9-0.3
			C167.8,456.6,164.7,460.4,163.7,459.3z"/>
		<path class="st1" d="M179.2,454c-1.1-1.8-1-2,1.8-2c2.3,0,3,0.4,3,2c0,1.2-0.7,2-1.8,2C181.3,456,179.9,455.1,179.2,454z"/>
		<path class="st1" d="M253.6,450.8c-0.3-1.3-0.6-3.5-0.6-5c0-2.5,0.4-2.8,3.4-2.8c3.6,0,4.6,1.5,4.6,7.3c0,2.9-2.9,4-3.1,1.2
			c-0.2-1.9-0.4-2.5-1.3-4.7c-1.3-3-2.5-1-1.5,2.5c1.1,3.9,1.1,3.7,0,3.7C254.6,453,254,452,253.6,450.8z"/>
		<path class="st1" d="M267,450.8c0-1.4,0.8-1.8,3.5-1.8c2.4,0,3.5,0.5,3.5,1.5c0,0.8-0.6,1.5-1.2,1.6c-0.7,0-2.3,0.2-3.5,0.3
			C267.6,452.6,267,452.1,267,450.8z"/>
		<path class="st1" d="M303.2,384.3c0-1-0.3-2.6-0.7-3.5c-0.6-1.5-0.2-1.8,1.9-1.8c2.3,0,2.6,0.4,2.6,3.5c0,2.8-0.4,3.5-1.9,3.5
			C303.9,386,303.2,385.3,303.2,384.3z"/>
		<path class="st1" d="M239,380.3v-3.7l2.1,2.3c1.2,1.2,2.7,2,3.5,1.7c0.9-0.3,1.4,0.2,1.4,1.4c0,1.6-0.7,2-3.5,2
			C239.1,384,239,383.9,239,380.3L239,380.3z"/>
		<path class="st1" d="M301.2,347.8c-1.6-1.6-1.5-4.8,0.2-4.8c1.2,0,2.5,2.8,2.6,5.3C304,349.4,302.5,349.1,301.2,347.8L301.2,347.8
			z"/>
		<path class="st1" d="M227.8,329.2c-3.4-0.7-2-3.2,1.7-3.2c2.3,0,3.5,0.5,3.5,1.4C233,328.9,230.5,329.8,227.8,329.2L227.8,329.2z"
			/>
		<path class="st1" d="M250.8,328.2c-3.4-0.7-2-3.2,1.7-3.2c2.3,0,3.5,0.5,3.5,1.4C256,327.9,253.5,328.8,250.8,328.2L250.8,328.2z"
			/>
		<path class="st1" d="M279,320.5c0-0.7-0.8-1.8-1.7-2.4c-2.1-1.1-1.7-1.7,2-2.6c2.6-0.7,2.7-0.5,2.7,2.9c0,2.5-0.4,3.6-1.5,3.6
			C279.7,322,279,321.3,279,320.5z"/>
		<path class="st1" d="M273.3,317c0-2.5,0.2-3.5,0.4-2.2c0.2,1.2,0.2,3.2,0,4.5C273.5,320.5,273.3,319.5,273.3,317z"/>
		<path class="st1" d="M148,311.8c0-0.7,1.1-1.8,2.5-2.5c1.4-0.6,2.5-0.7,2.5-0.2s0.7,0.9,1.5,0.9s1.5,0.7,1.5,1.5
			c0,1.1-1.1,1.5-4,1.5C149.5,313,148,312.5,148,311.8L148,311.8z"/>
		<path class="st1" d="M121,310.5c0-0.8,0.6-1.5,1.4-1.5s1.7-0.6,1.9-1.2c0.4-1,0.6-1,0.6,0c0.1,0.6,0.8,1.2,1.6,1.2
			c0.8,0,1.5,0.7,1.5,1.5c0,1-1.1,1.5-3.5,1.5S121,311.5,121,310.5z"/>
		<path class="st1" d="M271,300c0-4.5,0.4-6,1.4-6c1.8,0,3,5,2.1,9c-0.4,1.7-1.3,3-2.1,3C271.4,306,271,304.5,271,300z"/>
		<path class="st1" d="M220,302.9c0-1.4,0.5-1.9,1.4-1.6c0.8,0.3,1.7,0.1,2-0.6c0.3-0.9,0.5-0.9,0.5,0.1c0.1,0.6,0.8,1.2,1.6,1.2
			s1.5,0.7,1.5,1.5c0,1-1.1,1.5-3.5,1.5C220.6,305,220,304.6,220,302.9z"/>
		<path class="st1" d="M133,235c0-4.5,0.4-6,1.4-6c1.6,0,2.6,3.3,2.1,7c-0.2,1.4-0.4,3.1-0.4,3.8c-0.1,0.6-0.8,1.2-1.6,1.2
			C133.3,241,133,239.7,133,235z"/>
		<path class="st1" d="M176,125.5c0-0.8,0.7-1.5,1.5-1.5s1.5-0.4,1.5-1c0-0.5,0.7-1,1.5-1s1.5,0.5,1.5,1.1s0.7,0.9,1.5,0.5
			c1-0.4,1.5,0.1,1.5,1.4c0,1.7-0.7,2-4.5,2C177.2,127,176,126.6,176,125.5z"/>
		<path class="st1" d="M140.5,103c-0.3-0.6,0-1.3,0.9-1.6c0.9-0.3,1.2-1.2,0.8-2.2c-0.5-1.5-0.4-1.5,0.9-0.2
			c0.8,0.8,1.8,2.3,2.2,3.3c0.5,1.3,0.1,1.7-1.8,1.7C142.2,104,140.8,103.5,140.5,103L140.5,103z"/>
	</g>
	<g>
		<path class="st2" d="M190.7,457.3c-0.4-0.3-0.7-3.3-0.7-6.5c0-5.1-0.2-5.8-2-5.8s-2,0.7-2,6.1c0,5.8-0.1,6-2.2,5.3
			c-3.5-1-5.8-3.4-8.5-8.8c-2.5-4.9-2.5-5.4-2-21.5c0.4-12.5,1-18.4,2.6-24.1c1.2-4.4,2.1-10.5,2.1-14.8c0-7-0.1-7.3-2.7-8.4
			c-1.8-0.7-16.7-1.4-41.3-1.9c-41.8-0.8-48.5-1.4-56.5-5.4c-4.9-2.4-12.5-9.3-12.5-11.4c0-0.5,2-1.2,4.5-1.5c6.2-1,5.9-3-0.2-2.3
			c-2.7,0.2-5.6,0.8-6.5,1.2c-1.8,0.7-2.4-0.6-3-6.5c-0.3-2.4,0-2.5,5.7-2.8c6.5-0.3,8.1-1.2,7.1-3.7c-0.5-1.3-1.7-1.6-5.4-1.5
			c-6.9,0.4-7.2,0.2-7.2-2.4c0-5.2,0.7-5.6,9.1-5.6c4.6,0,7.9-0.4,7.9-1s-3.3-1-7.9-1h-8l1.5-4.3l1.5-4.4l5.4,0.5
			c6.6,0.5,7.5-1.3,1.3-2.4l-4.3-0.7l3.5-1.3c1.9-0.7,5.4-1.3,7.6-1.3c3.6-0.1,4.5-0.6,6.8-4c5.3-7.5,5.3-7.5,39.2-6.2
			c16.4,0.6,39.4,1.1,51,1.1h21.1l0.5,6.5c0.7,7.9,3,12.1,8.3,14.9c3.4,1.8,6.1,2.1,18,2.4c7.7,0.2,20.4-0.1,28.2-0.6
			c12-0.8,15.1-1.3,19.3-3.4l5-2.5l10.3,10.6c15.7,16.2,21.5,24.7,27.5,40.1c2.3,5.9,2.6,8.2,3,24.6c0.4,17.1-0.4,27.4-2.9,36.6
			c-0.9,3.5-1.4,3.9-7.2,5.7c-11,3.4-45.1,9.5-46.9,8.4c-0.5-0.2-0.8-1.3-0.8-2.4c0-2.7-1.9-6.1-3-5.4c-0.4,0.3-0.4,2.1,0.2,4.1
			c0.5,2,0.7,3.8,0.5,4.1c-0.7,0.6-11.4,2-22,2.8l-8.8,0.7l0.7-2.6c0.4-1.9,0.2-2.7-1-3.2c-2.2-0.9-4.6,1.3-4.6,4.2v2.4h-14.3
			C197.8,458,191,457.7,190.7,457.3L190.7,457.3z M245.3,390.2c0.9-0.8,1.7-2.3,1.7-3.4c0-2.2-0.7-2.3-2.6-0.3
			c-2.1,2.1-4,1.9-6.5-0.6c-1.7-1.7-2-2.9-1.5-6c0.7-4.4-0.3-5-3.4-1.9c-2.3,2.3-2.7,8.5-0.6,11.3
			C235.2,393,241.6,393.4,245.3,390.2L245.3,390.2z M266.6,387.9c2.8-2.6,3.2-7.5,0.9-11.8c-2.4-4.8-7.9-5.7-9.5-1.5
			c-1.3,3.4-1.3,3.4,0.9,3.4c4.2,0,6.9,6.3,3.7,8.9c-3,2.5-6.6-2-6.6-8.4c0-3.8-1.3-4.4-4.2-1.8c-2.6,2.4-2.4,8.4,0.5,11
			c1.2,1.1,2.9,2.3,3.7,2.6C258.7,391.4,264.2,390.1,266.6,387.9L266.6,387.9z M286.9,387.5c3.4-1.7,4.1-3.3,4.1-8.6
			c0-2.9-0.7-4.7-2.5-6.4c-2.7-2.8-7-3.3-7.9-0.9c-0.9,2.5-0.7,5.6,0.4,4.9c2.2-1.3,5,1.5,5,5.1c0,4.8-2.5,5.6-5.7,1.9
			c-1.9-2.2-2.4-3.7-2.1-6.7c0.2-2.6,0-3.8-0.9-3.8c-2.3,0-5.3,3.9-5.3,6.8C272,387,280,391.1,286.9,387.5z M303,384.9
			c0.8-1.5,0.8-2.4,0-3.4c-0.6-0.7-1.5-5.2-2-9.9c-1.2-11.5-2-12.5-6.9-8.7c-2.2,1.7-2.2,2-0.8,4.2c0.8,1.3,1.7,5.6,2.1,9.6
			c0.3,3.9,0.9,7.8,1.2,8.7C297.5,387.7,301.7,387.4,303,384.9L303,384.9z M245.5,377.5c0-2.7-0.3-3-2.9-2.8c-3.8,0.3-4,0.7-2,3.8
			C242.8,381.9,245.5,381.4,245.5,377.5z"/>
	</g>
	<g>
		<path class="st3" d="M324.8,560.3c-2.1-0.3-2.8-1-2.8-2.7c0-4.9-11.8-19.2-14.1-16.9c-0.7,0.7-0.2,2,1.8,4.4
			c4.6,5.4,7,9.2,7.5,12.2l0.5,2.7h-15.1c-16.8,0-43.4-1.4-57.1-3.1c-17.2-2-32.5-6.6-33.8-10.1c-0.7-2,3-8.4,6-10.6
			c6.8-4.8,10.2-5.6,25.3-5.8c16-0.2,15.8-0.1,15.9-7.4l0.1-3.5l8.3-2.3c4.5-1.2,12-4.2,16.6-6.5c4.7-2.3,8.8-4.3,9.2-4.5
			c0.4-0.2,1,2,1.4,4.8s1.3,5.4,2,5.7c0.8,0.2,9-0.2,18.2-1.1c28.2-2.7,38.1-2,49.3,3.2c16,7.5,25.1,25.5,17.3,34.2
			c-2.7,3-3.5,3.2-16.8,5c-7.7,1.1-14.5,2-15,2c-0.6,0-0.9-1.9-0.7-4.4c0.8-9.1-11.7-29.5-14.1-23.3c-0.3,0.8,1.5,4.9,4,9.1
			c4.6,7.8,6.3,14.7,4.4,17.5C342.2,560.3,330.2,561.3,324.8,560.3L324.8,560.3z"/>
		<path class="st3" d="M248.5,513.1c-29.8-10.8-52.6-29.9-56-46.8l-0.7-3.3h12.4c22.3,0,61.3-4.3,87.7-9.6
			c16.3-3.3,22.7-5.8,24.6-9.3c1.7-3.4,12.9-9.2,19.2-9.9c5-0.5,6.6,0.5,9.4,6.1c6.8,13.2,6.3,50.8-0.9,64.5l-1.9,3.7l-15.4,1.1
			c-8.5,0.7-18.1,1.4-21.4,1.5l-5.9,0.4l-0.8-4.5c-0.8-4.4-0.7-4.5,4.4-9.7c3.4-3.4,4.9-5.7,4.5-6.7c-1-2.6-2.6-1.9-8.8,3.9
			c-7.6,7-17.1,12.6-28,16.3C259.3,514.9,254.7,515.4,248.5,513.1L248.5,513.1z"/>
		<path class="st3" d="M131.3,474.1c-5.6-0.3-10.5-1-11-1.4c-1-1.1,6.5-7.9,11-10c1.8-0.9,9.1-2.3,16.2-3.2c7.2-0.8,14.5-2,16.2-2.4
			c3-0.9,3.2-0.8,2.3,0.9c-1.3,2.5-1.3,3,0.5,3c0.8,0,1.5,0.5,1.5,1.1c0,0.7,1,0.9,2.4,0.7c1.6-0.3,2.3-0.1,1.9,0.8
			c-0.2,0.6,0.1,1.5,0.7,1.9c0.7,0.4-0.4,1.8-3,3.7c-2.5,1.8-3.9,3.6-3.6,4.4c0.4,1.2-1.8,1.4-12.2,1.2
			C147.2,474.7,136.9,474.4,131.3,474.1L131.3,474.1z"/>
		<path class="st3" d="M183,465.1c0-1.3,2.9-3.5,3.7-2.8c0.7,0.8-1.5,3.7-2.8,3.7C183.4,466,183,465.6,183,465.1L183,465.1z"/>
		<path class="st3" d="M319.3,433.4c0.9-3.2,1.7-12.5,1.9-22.6c0.1-5.4,0.5-9.8,0.9-9.8c1.3,0,7.8,7.9,9.9,11.9c1.3,2.6,2,6,2,9.6
			v5.6l-6.7,3.1c-3.8,1.8-7.2,3.4-7.7,3.6C319.2,435.1,319,434.4,319.3,433.4L319.3,433.4z"/>
		<path class="st3" d="M290.8,336.6c-11.6-12.1-11.8-12.5-11.8-17c0-5.2,0.1-5.2,8-3.5c6.7,1.4,10.4,4.8,13,11.6
			c1.8,4.8,4.1,21.4,2.9,21.2C302.7,348.9,297.2,343.3,290.8,336.6L290.8,336.6z"/>
		<path class="st3" d="M207.4,327.1c-5.5-2.5-6.4-5.4-6.4-20.7c0-12.3,0-12.4,2.5-13c1.9-0.5,3.3,0.1,6,2.5c5,4.4,12.9,6.4,25.5,6.4
			c10.8,0,20.5-1.5,25.2-3.9c1.9-1,2.8-2.4,3.3-5.4c0.4-2.2,1-4.2,1.3-4.4c0.4-0.2,2.6,0.5,5,1.5l4.2,1.8v15v15l-4.6,2.7
			c-3.8,2.3-6.3,2.8-15.7,3.5c-6.2,0.4-18.2,0.8-26.7,0.8C213.9,329,210.9,328.7,207.4,327.1z"/>
		<path class="st3" d="M225.1,296.9c-8.6-1.3-11.4-3-16.9-10.2c-12.5-16.3-15.2-18.2-29.8-20.2c-19-2.7-22.7-3.5-30.6-7.2l-7.7-3.6
			l0.6-12.7c1.5-31.6-7.9-63.4-29.7-100l-5.9-10l9.2-8.4c10.3-9.4,25.3-22.2,27.9-23.6c1.3-0.8,2.1-0.1,4.2,3.4
			c3.7,6.3,10.6,13.1,16.7,16.3c4.8,2.4,6.5,2.8,14.5,2.8c8.7,0,9.4-0.2,18-4.4c7.1-3.6,10.5-6,16.9-12.5
			C220.9,98.1,227,88.1,227,83c0-2.3,0.5-2.9,3.1-3.4c1.7-0.3,4.6-0.6,6.4-0.6c3.1,0,3.3,0.2,4.9,6.3c3.2,11.9,13.7,21.8,28.3,26.8
			c5.7,2,8.8,2.4,19.3,2.4c11.2,0,13-0.2,17-2.4c9.3-4.8,14.7-12.3,17-23.6c1.4-6.8,1.9-31.2,0.7-36.7l-0.8-3.6l11.3,2.4
			c16.9,3.6,28.6,7.2,35.3,10.7c7.7,4.1,18.9,14.7,25.3,24c24.6,35.8,25.5,77.1,2.4,116c-12.3,20.7-38.4,36.3-79.2,47.2
			c-33.5,8.9-40.1,11.6-47.6,19.1c-4.9,4.9-9.9,14.3-10.9,20.8c-0.4,2.2-1.2,4.6-1.7,5.3C255.6,296.5,235.5,298.4,225.1,296.9
			L225.1,296.9z M322.9,160.1c7-2.2,12.4-5.9,15.2-10.5c9-14.7-16.3-24.9-38.3-15.4c-5.6,2.4-11.3,8.3-12.3,12.6
			c-0.7,3.3,1,7.5,4.2,10.4C297.1,162.1,312.1,163.5,322.9,160.1L322.9,160.1z"/>
		<path class="st3" d="M312.5,147.1c-0.8-1.4,2.8-3.1,6.4-3.1c3.8,0,4,1.7,0.5,3C316.2,148.3,313.3,148.3,312.5,147.1z"/>
		<path class="st3" d="M92.6,286.9c-10.5-2.5-25.7-14.6-34.3-27.4c-15-22.3-22.2-49-21-78c0.9-22.7,1.9-25.8,16.8-56.2
			c7.2-14.8,14.4-30.1,16-34c7.4-18.5,20.2-41.1,28-49.7c8.2-9,38-25.6,57.4-32.2c14.6-4.8,29.9-4.2,52,2.1
			c11,3.2,29.5,12.1,35.2,16.9c2.2,2,4.6,3.6,5.2,3.6c1.7,0,1.3,1.9-1,5.1c-2.1,2.9-5.9,12.7-5.9,15.1c0,2.5-1.8,4-6,4.9
			c-5.3,1.2-8,0.4-8-2.4c0-2.9-5.5-12.6-10.5-18.6c-14.1-16.9-31.6-19.5-55-8.1c-13.9,6.7-21.7,15.7-25.1,29
			c-1.6,6.3-1.5,17.9,0.2,25c0.5,2.3-1.5,4.4-19.1,20.4c-10.7,9.8-20.4,18.6-21.5,19.5c-2,1.6-2,1.7,1,8c1.7,3.5,3.7,6.9,4.4,7.5
			c1.9,1.5,13,21.1,17.9,31.5c5.7,12.4,11.2,28.1,13.9,40.1c1.9,8.8,2.3,13.3,2.3,27.6c0,14.8-0.2,17.5-1.7,19.1
			c-1,1-2.7,4.1-3.9,6.8c-3.1,7.3-10.2,17.6-13.8,20.3C109.6,287.6,101.6,289,92.6,286.9z M104.5,275.6c1.9-0.8,5.7-3.7,8.4-6.4
			c18.2-18.2,17.4-49.2-2.3-90.7c-4.9-10.4-17.4-31.9-21.5-37.1l-1.9-2.4l-1.9,4.6l-1.8,4.6l-2.9-14.8c-1.6-8.2-3.2-15.2-3.5-15.6
			c-0.4-0.4-2.2,7-4.1,16.5l-3.5,17.2L69,137.3c-0.5-13.9-1.2-17.2-3-14.3c-2.4,3.8-9.2,22.8-11.5,32.2c-5.7,23.2-3.8,61.8,3.8,80.8
			c4.9,12,18.2,28.9,27.9,35.3C95,277,98.9,277.9,104.5,275.6L104.5,275.6z"/>
		<path class="st3" d="M90.7,230.9c-2.8-3.9-1.6-13.9,1.6-13.9c3.6,0,4.9,10.3,1.9,14l-1.9,2.3L90.7,230.9L90.7,230.9z"/>
		<path class="st3" d="M77.4,202.6c-0.8-2.2,0.3-4.9,1.9-4.3c0.6,0.2,1.2,1.4,1.2,2.7C80.5,203.7,78.3,204.9,77.4,202.6z"/>
		<path class="st3" d="M89,196c0-0.5,0.7-1,1.5-1s1.5,0.5,1.5,1c0,0.6-0.7,1-1.5,1S89,196.6,89,196z"/>
		<path class="st3" d="M91.4,160.9c-0.3-0.6-0.1-1.6,0.5-2.2c0.9-0.9,1.4-0.8,2.1,0.3c0.5,0.8,1,1.8,1,2.3
			C95,162.4,92.2,162.1,91.4,160.9L91.4,160.9z"/>
	</g>
</g>
</svg>
