<?xml version="1.0" encoding="utf-8"?>
<!-- Generator: Adobe Illustrator 25.0.1, SVG Export Plug-In . SVG Version: 6.00 Build 0)  -->
<svg version="1.1" id="Layer_1" xmlns="http://www.w3.org/2000/svg" xmlns:xlink="http://www.w3.org/1999/xlink" x="0px" y="0px"
	 viewBox="0 0 512 512" style="enable-background:new 0 0 512 512;" xml:space="preserve">
<style type="text/css">
	.st0{fill:#664F38;}
	.st1{fill:#C82323;}
	.st2{fill:#FFC939;}
	.st3{fill:#FFFFFF;}
</style>
<g>
	<g>
		<path d="M258.5,501c-17.5-2.8-22.5-11.1-14.9-24.8l3.7-6.5l-1.7-5.8c-0.9-3.2-1.6-6.8-1.6-7.9c0-2-0.5-2-13.2-1.8l-13.3,0.3
			l0.2,3.5c0.2,1.9,1.5,6.8,2.9,10.8c4.7,12.9,1.8,19.3-10.3,22.8c-7.7,2.3-33.2,2.6-38.3,0.5c-11.9-4.9-20-13.5-20-21.3
			c0-7.2,5.7-14.7,11.3-14.8c2.7,0,3.6-1.7,1.8-3.6c-1.4-1.3-3.5-13-3.5-19.4c0-4.8,0.6-6.4,4.3-12.5c2.4-3.8,7.5-12.9,11.3-20.2
			l7-13.3h-2.9c-10,0-20.7-7.2-25-16.8c-2.5-5.7-3.1-14.8-1.2-18.3c0.8-1.7,0.7-2.3-0.7-3.3c-1.5-1.1-2.5-1-6.3,0.7
			c-6.8,3.1-16.9,2.9-24.1-0.4c-20.2-9.4-24.6-35.4-8.6-51.4c13.8-13.8,38.5-10.1,47.8,7.1c4.9,9.1,5.4,21.5,1.1,29.7
			c-1.1,2.2-1.2,3.2-0.2,4.3c1,1.3,1.5,1.2,3.3-0.4c6-5.5,11.2-5.6,15.6-0.4c6.1,7.2,7.2,8.2,9.4,8.2c1.1,0,3.6,0.9,5.4,2
			c1.8,1.1,3.5,2,3.8,2c0.4,0,5.2-9.9,10.4-21.5c1.1-2.6,1.9-7.6,2.3-14.2l0.5-10.3l-4.1-1c-14.5-3.7-21.6-9-27.2-20
			c-4-7.9-5.7-17.1-5.3-28.5c0.3-8.4,0.8-11,3.1-16.1c3.3-7,9.5-13.6,15.1-15.9c2.5-1.1,8.1-1.8,16.5-2.1
			c18.1-0.7,17.1-0.3,17.1-7.4c0-4.1,0.8-8,2.3-11.8l2.4-5.7l-0.8-42c-1-51.6-0.2-64.3,5.8-88c2.8-10.8,7.2-21.2,10.4-24
			c2.4-2.3,2.4-2.8-0.7-13.6c-2.8-9.9-2.7-10.6,3-13.6c4-2.1,13.1-4.2,14.4-3.4c0.6,0.4,2.2,5.4,3.6,11.1c1.8,7.8,3,10.8,4.5,11.9
			c2.8,1.8,19.6,20.9,29.7,33.6c32.3,40.8,53.3,83.7,63.3,129.5c4.3,19.7,5.3,29.9,6.1,64c0.5,18.4,0.9,33.6,0.9,33.6
			c0.1,0.1,2,0.5,4.4,0.8c5.7,0.9,13.5,4.6,17.4,8.4c19.4,18.8,7.8,51.9-18.9,53.9c-4,0.3-8-0.1-11-1c-4.3-1.4-4.8-1.3-6.3,0.3
			c-1.5,1.7-1.5,2.2-0.1,6.4c2,5.7,0.6,14.1-3.2,19.8c-4,6.1-13.5,11.8-19.7,11.8c-1.6,0-4.5,2.8-10.3,9.8
			c-7.7,9.3-21.6,23.4-27.6,28c-2.7,2.1-2.8,2.3-1.7,6.6c0.6,2.5,1.1,7,1.1,10.1c0,6.4,1.4,9.7,6,14c6.2,5.7,8.6,14.6,5.6,20.3
			c-1.8,3.5-7.2,8.5-11.3,10.6C288.6,499.8,269.7,502.8,258.5,501L258.5,501z M283,493.1c2.7-2,3-4.7,1.5-14.8l-0.8-5.3h4.6h4.6
			l1,5.3c0.6,2.8,1.2,6.7,1.4,8.5l0.2,3.4l4.6-3.5c2.5-2,5.2-4.9,5.8-6.5c1.5-3.7,0.4-6.2-6.3-14c-4.6-5.4-5.2-6.9-5.9-17.7
			c-0.6-8.3-4.2-19.8-7.4-23.6c-2.5-2.9-3-3.1-7.1-2.5c-7.2,1-17,6.3-23.9,13l-6.3,6.2v7c0,3.9,0.7,9.3,1.5,12
			c1.9,6.2,1.9,12.2,0,15.4c-0.8,1.4-2.4,4.4-3.6,6.7l-2.3,4.3l2.5,2.6c2.1,2.2,6.9,5.4,8.2,5.4c0.3,0,0.6-2.9,0.9-6.4
			c0.3-4.6,1-7.3,2.8-10c2.2-3.2,3-3.6,6.8-3.6h4.2v3.9c0,2.3-0.6,4.4-1.6,5.2C259.8,491.3,273.7,499.8,283,493.1L283,493.1z
			 M201,487.9c7.8-1.2,12.7-3.5,15.3-7.1c2-2.7,2-2.7-0.3-8c-1.2-2.9-2.6-7.5-2.9-10.3l-0.6-5l-8.5-1.2c-4.7-0.7-13-2.4-18.5-3.9
			c-17.5-4.6-17.9-4.5-12,2.3c2.8,3.3,3.5,5,3.5,8.3v4.2l-4.5-0.4c-4.1-0.3-4.5-0.1-4.5,2c0,1.2-0.9,3.5-2.1,5.1
			c-1.4,2-1.8,3.5-1.4,5.4c1,4,2.5,4.3,2.5,0.5c0-1.8,0.9-5.2,2-7.5c1.8-4.1,2.1-4.3,6.5-4.3s4.5,0.1,4.5,3.3c0,1.8-0.7,4.2-1.5,5.4
			c-0.8,1.1-1.9,3.3-2.5,4.8c-0.8,2.2-0.6,3,1.5,5.1s3.3,2.4,9.7,2.4C191.2,489,197.4,488.5,201,487.9L201,487.9z M237,449
			c2.7,0,2.8-0.2,3.2-6.5c0.5-8.5,3.8-13.2,14-20.2c9.3-6.3,18.4-9.3,27.8-9.3c6,0,7.3,0.3,10.1,2.7c1.7,1.5,3.9,4.4,4.9,6.5
			l1.6,3.7l8.9-8.9c7.1-7.1,8.5-9,6.8-9c-3.5,0-5.3-2.7-5.3-7.8v-4.7l-6.2-1.7c-3.5-1-8.3-2-10.8-2.4c-8-1.2-9-1.9-9-6.4
			c0-3.2,0.4-4,1.9-4c1.7,0,1.8-0.3,0.5-3.7c-1.6-4.6-1.8-20.3-0.3-25.6c1.1-4.2,7.3-11.7,9.5-11.7c1,0,1.4-1.3,1.4-4.4
			c0-4.2,0.1-4.4,3.8-5c6.1-1,11.1-0.7,15,0.9c5.8,2.5,8.2,5.3,8.2,9.7c0,3.4-0.3,3.8-2.5,3.8c-3.1,0-2.5,1.5,2.1,5.4l3.5,2.9
			l4.2-4.5c4.6-5,7.5-6.8,10.6-6.8c1.8,0,2-0.4,1.3-3.2c-0.4-1.8-0.7-7.8-0.7-13.3c0-8,0.5-10.9,2.2-14.6
			c4.2-9.2,13.3-16.7,22.4-18.4l3.6-0.7l-0.4-23.6c-0.2-13-0.8-28.9-1.3-35.3c-4.4-53.4-26.5-107.3-63.9-156.3
			c-7.5-9.8-28-33.8-29.9-35c-0.6-0.3-2.9,0.1-5.2,0.9c-2.3,0.8-6.4,1.5-9,1.5c-4.4,0-4.9,0.3-7.2,3.8c-5.5,8.5-9.5,21.5-12.4,41.2
			c-1.9,12.4-2,19.9-1.6,72.9l0.2,34.4l2.3-2.1c1.2-1.1,3.9-2.8,6-3.7c3.3-1.4,3.7-1.9,3.7-5.1c0-3.2,0.4-3.7,4.3-5.4
			c2.9-1.3,6.5-2,11.4-2c9.5,0,10.3,0.4,10.3,5.1v3.9h-6.7c-8.9,0-11.3,1.5-3.7,2.3c19.1,2,37.2,20.8,42,43.7
			c2.4,11.4,1.4,36.2-2,49.2c-6.3,24-15.9,39-30.1,47.4c-6.2,3.6-16.4,6.4-24,6.5c-3.3,0-5.4,0.3-4.7,0.6c0.7,0.2,1.2,2.2,1.2,4.5
			v4.1l-7.4-0.6c-8.6-0.6-14.3-3.2-18-8c-3.1-4-3.5-10.1-0.9-11.5c1.5-0.9,1.6-1.2,0-3.5c-0.8-1.3-2-4-2.5-5.8c-0.9-3-1-2.6-1.1,3.9
			c-0.1,7.7,0.2,6.8-14.6,38.7c-5.4,11.5-23.1,46.9-27.2,54.3c-3.2,5.8-3.3,6.2-1.4,6.2c1.1,0,2.5,0.9,3.1,2s1.7,2,2.5,2
			c1.1,0,1.5,1.3,1.5,4.9c0,2.8,0.5,5.3,1.1,5.6c0.6,0.4,0.9,2.6,0.7,4.9l-0.3,4.1l5,1.3c15.8,4,32.8,6.3,40.4,5.6
			C232.3,449.2,235.5,449,237,449L237,449z M172.8,437.3c1.6-3.6,1.5-5.3-0.5-7.5c-2-2.3-3.2-2.3-4.9,0c-2,2.5-1.7,5.3,0.8,7.9
			C170.9,440.6,171.2,440.6,172.8,437.3L172.8,437.3z M343.3,387.4c4.1-2.1,8.5-6.2,10.3-9.6c1.9-3.6,1.8-3.8-1.4-3.8
			c-1.5,0-3.3-0.5-4-1.2c-0.9-0.9-1.2-0.3-1.2,3c0,4.2,0,4.2-3.8,4.2c-2.1,0-4.4-0.6-5.1-1.2c-1.1-1.1-1.1-0.9-0.2,0.9
			c0.6,1.2,1.1,3.8,1.1,5.7C339,389.5,339,389.5,343.3,387.4L343.3,387.4z M320.2,381.1c2.5-3.6,3.8-6.6,3.8-8.7
			c0-3.4,2.1-6.4,4.6-6.4c0.8,0,1.4-0.9,1.4-2c0-1.7-0.7-2-4.8-2c-5.4,0-9.5-2.4-16.7-9.9c-4.4-4.6-6.1-5-9.9-2
			c-8.1,6.4-7.7,21.8,0.8,29.8c2.7,2.5,13.3,7.2,15.6,6.8C315.8,386.6,318.1,384,320.2,381.1L320.2,381.1z M182.4,373.5
			c-1.7-1.5-2.4-3.3-2.6-7l-0.3-5l-1,4.5c-1,4.4-1.1,4.5-5,4.5h-4l0.2-6.2c0.2-6.7-1.1-8.2-2.8-3.3c-0.9,2.4-1.7,3-4,3
			c-3.5,0-3.5,0.2-0.4,5.5c2.6,4.5,7.2,8.4,12,10.3c5.7,2.1,6.9,2,8.6-1.2C184.7,375.7,184.7,375.5,182.4,373.5L182.4,373.5z
			 M346.5,359c2-3.9,1.9-5.7-0.4-7c-1.1-0.5-2.1-1-2.3-1c-0.2,0-0.3,2.5-0.3,5.5C343.5,362.7,344.3,363.3,346.5,359L346.5,359z
			 M184,356.7c0-0.6-0.9-0.2-2,0.8s-2,2.3-2,2.8c0,0.6,0.9,0.2,2-0.8S184,357.2,184,356.7z M385.7,349.9l4.3-2.1l-1.7-3
			c-4-6.7-30.6-29.8-34.4-29.8c-0.5,0-1.6,1.7-2.5,3.8c-2.4,5.8-1.5,13.9,2.4,20.2c1.9,3,3.2,6.5,3.2,8.3c0,3.1,0.1,3.2,3.8,2.9
			c2-0.2,5.5,0.4,7.7,1.2C373.4,353.3,379.8,352.7,385.7,349.9z M145.9,343.9c2.4-1,5.9-1.9,7.7-1.9c3.2,0,3.4-0.2,3.4-3.4
			c0-1.9,1.1-5.7,2.5-8.4c1.5-3.1,2.5-6.7,2.5-9.4c0-5.1-1.7-10.8-3.2-10.8c-2.2,0-12,6.3-17.2,11.1c-5.7,5.2-16.9,20.6-16,22
			c0.9,1.6,9.9,3.8,12.9,3.2C140.2,346,143.5,344.9,145.9,343.9L145.9,343.9z M173,344.3c0-1.9-0.3-2.4-1-1.7
			c-0.6,0.6-0.8,1.8-0.4,2.7C172.5,347.7,173,347.4,173,344.3z M399,317.8c-4.8-10.4-14.1-17.1-23.5-17.1c-2.9,0-5.7,0.3-6.4,0.7
			c-0.7,0.4,1.9,3,6.6,6.5c4.3,3.2,11.6,9.8,16.3,14.7l8.5,9l0.3-4.7C401,323.7,400.4,320.8,399,317.8z M118.3,320.3
			c6.7-9.6,13.4-16.1,21-20.6l5.7-3.5l-3.1-1.1c-4.3-1.5-6.7-1.4-12.2,0.5c-9.9,3.4-18.7,14.9-18.7,24.5c0,4.3,0.7,7.9,1.5,7.9
			C112.7,328,115.3,324.5,118.3,320.3L118.3,320.3z M262,324.9c18.7-6.4,31.7-25.9,38.1-57.4c1.6-8,1.6-22.7,0-29.5
			c-1.7-7.2-8.2-20.9-11.4-23.8l-2.4-2.3l-0.6,4.3c-1.5,11.4-18.2,15.8-27.7,7.2l-3.7-3.4l-8.9,1.9c-4.9,1.1-13.6,2.2-19.4,2.5
			c-5.8,0.4-13.9,0.9-18,1.3l-7.5,0.6l4,1.4c5.3,1.8,9.9,6.4,12.6,12.7c3.1,6.8,3.4,25.3,0.6,33.3c-3.4,9.7-9.2,15.6-17.2,17.3
			c-3,0.6-3,0.6,2.6,3.3c12.4,6.1,25.6,5.9,45.7-0.9c5.7-1.8,11.9-3.4,13.8-3.4c3.5,0,3.5,0,3.2,4.2l-0.3,4.3l-8.2,2.7
			c-4.5,1.6-11,3.5-14.5,4.3l-6.3,1.4l9-0.2l9-0.2v4c0,3.8-0.2,3.9-4,4.8c-2.2,0.4-7.4,0.7-11.6,0.5l-7.6-0.3l1.5,2.3
			c2,3.1,9,7.8,13.3,9C250.2,327.9,254.7,327.4,262,324.9L262,324.9z M273.9,216.4c3.6-3,3.8-4,1.1-4.7c-1.4-0.4-2-1.4-2-3.5
			c0-4.8-3-5.2-7.7-0.9c-3.1,2.7-2.9,5.3,0.6,8.8C269.5,219.6,270,219.7,273.9,216.4L273.9,216.4z M250,210.6
			c1.8-0.7,1.5-7.6-0.2-7.6c-1.9,0-7.8,6.8-7.2,8.3C243.1,212.8,245.1,212.6,250,210.6z M264.3,33.3c1.9-0.9,2.6-2,2.3-3.1
			c-0.3-0.9-0.8-3.4-1.2-5.5c-0.4-2.5-1.1-3.7-1.9-3.3c-0.7,0.2-3.2,1-5.4,1.7c-3,0.9-4,1.7-3.6,2.7c0.3,0.8,1,3.4,1.6,5.9
			C257.3,36.4,257.9,36.6,264.3,33.3z"/>
		<path d="M190,400.1c0-3.3,1.1-5.4,6.4-12.4c9.8-13.1,14.1-19.7,20.2-31.2l5.6-10.6l3.7,0.3c3.4,0.3,3.6,0.5,3.9,4.1
			c0.5,5.8-10,24.2-25.6,45c-6.3,8.3-6.8,8.7-10.4,8.7C190,404,190,404,190,400.1L190,400.1z"/>
		<path d="M249.5,151c-1.1-1.7-1.7-62.4-0.8-72.5l0.8-9l3.8-0.3l3.7-0.3l0.2,35.5c0.1,19.6,0.2,38.2,0.3,41.4v5.7l-3.7,0.3
			C251.8,152,249.9,151.6,249.5,151L249.5,151z"/>
	</g>
	<g>
		<path class="st0" d="M177,442.7c0-0.9,0.9-2.1,2-2.7s2-0.7,2-0.2s-0.9,1.7-2,2.7C177.2,444.1,177,444.1,177,442.7z"/>
		<path class="st0" d="M165.2,440.7c-2.8-3-3-11.1-0.4-14.5c1.6-2,2.4-2.3,5.4-1.7c2,0.4,4.3,1.4,5.1,2.3c2.1,2.4,2.8,10.9,1.1,12.3
			c-0.8,0.6-1.4,1.8-1.4,2.5C175,444.1,167.7,443.4,165.2,440.7L165.2,440.7z"/>
		<path class="st0" d="M179.7,435.4c-0.4-0.4-0.7-1.7-0.7-2.8c0.1-1.9,0.1-2,1.1-0.3C181.2,434.2,180.9,436.6,179.7,435.4
			L179.7,435.4z"/>
		<path class="st0" d="M176,424c-0.6-1.1-0.7-2-0.2-2s1.7,0.9,2.7,2c1.6,1.8,1.6,2,0.2,2C177.8,426,176.6,425.1,176,424z"/>
		<path class="st0" d="M235.9,134.8c0-0.7-0.2-2.3-0.5-3.5c-0.3-1.8,0.1-2.3,1.6-2.3c1.6,0,2,0.7,2,3.5c0,2.4-0.5,3.5-1.5,3.5
			C236.7,136,236,135.4,235.9,134.8z"/>
		<path class="st0" d="M248,126.5c0-4.1,0.4-5.5,1.5-5.5c0.8,0,1.6,1.3,1.9,3.3c0.8,5.5,0.3,7.7-1.6,7.7
			C248.3,132,248,131.1,248,126.5L248,126.5z"/>
		<path class="st0" d="M254.3,126.5c0-3.3,0.2-4.5,0.4-2.7s0.2,4.5,0,6S254.3,129.8,254.3,126.5z"/>
		<path class="st0" d="M325,104.3l0.1-3.8l2.4,2.8c3.2,3.6,3.1,4.7,0,4.7C325.3,108,325,107.6,325,104.3z"/>
		<path class="st0" d="M235,105.3c0-3.4,1.2-6.3,2.6-6.3c1,0,1.4,1.3,1.4,4c0,3.3-0.3,4-2,4C235.8,107,235,106.3,235,105.3z"/>
		<path class="st0" d="M250.3,99c0-2.5,0.2-3.5,0.4-2.2c0.2,1.2,0.2,3.2,0,4.5C250.5,102.5,250.3,101.5,250.3,99z"/>
		<path class="st0" d="M253.7,101c-0.7-2.8,0.3-6,1.9-6c1,0,1.4,1.3,1.4,4C257,103.3,254.7,104.7,253.7,101z"/>
		<path class="st0" d="M311,83.4c0-3.9,0.9-3.8,4,0.6l2.1,3h-3C311.2,87,311,86.7,311,83.4z"/>
		<path class="st0" d="M258,41c5.4-0.6,9.7-1.9,15.3-4.8c0.4-0.2,0.7,0.1,0.7,0.6c0,2.1-9.8,5.2-16.2,5.1l-6.3-0.2
			C251.5,41.7,258,41,258,41z"/>
		<path class="st0" d="M251.9,30.2l-2.5-8.8l4.7-1.1c2.6-0.6,6.5-2,8.7-3.1l4.1-2l2,9c1.2,4.9,2.1,9.3,2.1,9.8c0,1.3-9.7,5-13.3,5
			h-3.3L251.9,30.2L251.9,30.2z"/>
		<path class="st0" d="M250.7,17.6c3.8-2.8,14.3-6.2,14.3-4.6c0,1-8.5,4.6-13,5.5C248.6,19.1,248.6,19.1,250.7,17.6z"/>
	</g>
	<g>
		<path class="st1" d="M355.3,355.8c-1.6-2.6-3-7.8-2.2-8.3c0.4-0.3-0.5-2.7-2.1-5.3c-5.9-9.5-6-21.8-0.2-31l1.5-2.2l4.6,2.7
			c12.2,7.1,29.5,22.6,35.3,31.6l3.2,5l-3,2.4c-6.1,5-18.2,6.7-26.5,3.8c-4.2-1.5-4.5-1.5-6.1,0.5
			C357.9,357.3,356.5,357.6,355.3,355.8L355.3,355.8z"/>
		<path class="st1" d="M350.1,353.2c-0.8-1.8-1.1-3.5-0.8-3.8c0.8-0.9,2.9,3.5,2.5,5.4C351.6,356,351,355.5,350.1,353.2z"/>
		<path class="st1" d="M158.9,349.3c1.6-3.1,6.1-6.8,6.1-5.2c0,1.5-5,6.9-6.3,6.9C158.3,351,158.4,350.2,158.9,349.3L158.9,349.3z"
			/>
		<path class="st1" d="M127.2,348.2c-2.9-1.1-5.8-2.4-6.4-3c-1.2-1.2,0.7-5.2,7.5-15c6.6-9.5,14.5-16.6,24.6-22l8.1-4.4l2.2,4.9
			c3.1,7.1,3,17.2-0.4,24c-2.4,4.7-2.5,5.2-1,6.7s1.3,1.9-1.8,5.1c-3,3.1-3.5,3.3-5,2c-1.5-1.4-2.2-1.3-6.5,0.6
			C141.7,350.1,133.7,350.5,127.2,348.2L127.2,348.2z"/>
		<path class="st1" d="M347,343.8c-2.7-4.5-3.5-8.9-3.4-18.8c0.2-8.7,1.8-14.3,5.2-17.9c0.9-1,2.2-2.6,2.8-3.7c0.6-1,2-2.1,3-2.3
			c1.3-0.2,0.8,0.8-2,3.9c-6.2,6.8-8.1,12.1-8.1,22c0,7.6,0.4,9.1,3.2,14.3C351,347.3,350.4,349.3,347,343.8z"/>
		<path class="st1" d="M393.5,341.2c-4.3-7-18.3-20.3-28.4-27c-4.9-3.3-9.5-6.2-10.2-6.5c-1.1-0.4-1.1-0.8,0.2-2.2
			c1.5-1.6,1.9-1.6,5.5,0.3c17.9,9.1,44.1,37.5,36.9,39.9C397,345.8,395.2,343.9,393.5,341.2L393.5,341.2z"/>
		<path class="st1" d="M115.7,341.2c-1.6-1.7-1.4-2.3,3.6-10.7c7.2-12.3,18-23.1,28.2-28.1c5.8-2.9,8.1-3.5,9.3-2.8
			c3,1.9,2.2,2.9-5.5,6.8c-12.1,6.3-22,16.6-32,33.4C117.4,342.9,117.3,343,115.7,341.2L115.7,341.2z"/>
		<path class="st1" d="M397.1,335c-4.8-7.1-21.5-22.7-29.9-28c-3.9-2.5-7.2-4.8-7.2-5.1c0-0.3,1.9-1.5,4.2-2.5
			c3-1.3,6.5-1.9,11.8-1.9c6.4,0.1,8.3,0.5,12.9,3c9.7,5.3,15.3,14.7,15.4,25.5c0.1,6.2-1.7,14-3.1,14
			C400.8,340,399,337.7,397.1,335L397.1,335z"/>
		<path class="st1" d="M110.1,332.4c-3.5-7.3-3.3-17.4,0.3-24.8c7.1-14.6,24.5-20.7,39-13.7l4.8,2.4l-7.8,4.1
			c-12.3,6.4-22.9,17.8-33,35.1C112.5,337.1,112.1,336.7,110.1,332.4z"/>
		<path class="st1" d="M357,299.2c0-1.4,6.5-4,11.6-4.6l4.9-0.6l-4.5,1.4c-2.5,0.7-5.9,2-7.7,2.9C357.7,300.2,357,300.3,357,299.2
			L357,299.2z"/>
	</g>
	<g>
		<path class="st2" d="M206,454.4c-14.1-2.1-32-6.8-32-8.4c0-0.5,1.9-0.2,4.3,0.6c5.9,2.1,19.8,5.4,29.2,6.9
			c4.4,0.7,6.4,1.3,4.5,1.2C210.1,454.7,207.4,454.6,206,454.4L206,454.4z"/>
		<path class="st2" d="M214.5,451.9c-16.6-1.6-37.5-6.9-37.5-9.4c0-0.7,1.2-2,2.6-3c2.4-1.5,2.5-1.8,1-3.4c-1.3-1.4-1.5-2.9-1-6
			c0.5-3.4,0.4-4.1-0.9-4.1c-0.9,0-2.1-0.9-2.7-2c-0.6-1.1-2.1-2-3.3-2c-4.5,0-4.6-1.3-0.5-8.5c4.4-7.6,23.3-45.2,29.3-58
			c15-32.3,14.5-30.9,14.5-38.9c0-8.7,1.2-12.6,3.8-12.6c1.5,0,2.1,1,2.6,4.6c1.9,14,13.9,24.4,28,24.4c6.6,0,17.1-2.9,23.1-6.4
			c19-11.2,31.8-38.1,33.1-70.1c0.7-16-0.8-24.5-6.6-36.2c-7.9-15.9-22.8-27-38-28.1c-9-0.6-14.4,1.4-19.9,7.3
			c-4.6,5-5.6,7.9-4.7,14.1c0.6,4.4,0.5,4.4-2.4,4.4c-3,0-3,0-3-6c0-4.2,0.7-7.4,2.1-10.2c2-4,2.1-5,1.8-54.7
			c-0.3-44.5-0.1-51.9,1.5-61.6c3.1-19.7,7-32.4,12.4-40.6c2.2-3.5,2.7-3.7,8.5-4.1c3.7-0.2,8.1-1.3,11-2.7
			c5.8-2.8,4.5-3.7,19.9,13.8c48.6,55.4,76.8,116.7,81.8,178c0.5,6.4,1.1,23.6,1.4,38.2l0.5,26.7l-3.7,0.7
			c-9.1,1.7-18.3,9.2-22.6,18.4c-1.6,3.6-2.1,6.5-2.1,13.1c0,7.6,0.4,9.1,3.2,14.3c1.7,3.1,2.7,5.7,2.3,5.7c-0.5,0-1.2-0.4-1.5-1
			c-0.8-1.4-6.1-1.3-8.8,0.1c-1.2,0.7-4.3,3.4-6.9,6c-6.7,7-6.8,6.9-19.8-5c-5.1-4.7-7.5-5.6-12.8-4.8c-4.8,0.8-10.6,6.9-12.2,12.8
			c-1.6,5.8-0.8,17.5,1.5,21.9c0.9,1.9,2.9,4.8,4.4,6.4l2.6,2.9l-3-0.6c-1.6-0.4-4-0.9-5.2-1.3c-1.4-0.4-2.3-0.2-2.3,0.5
			c0,1.4,3.1,2.6,9,3.5c4,0.6,19.9,4.6,20.9,5.2c0.2,0.2-0.7,1.7-1.9,3.3c-2.2,3.3-2,6.5,0.5,7.5c0.8,0.3,3.8-1.4,6.9-3.9
			c4.7-3.9,9.6-5.8,9.6-3.9c0,2.4-31.5,35.4-33.8,35.4c-0.4,0-1.5-2.2-2.5-4.9c-1-3-3.2-6.2-5.4-8.1c-3.4-3-4-3.2-9.2-2.7
			c-7.8,0.7-15.7,3.9-24,9.8c-9.3,6.5-12.4,11.2-12.9,19.4l-0.4,6.2l-6.7,0.7C228.4,453.1,225.4,453,214.5,451.9L214.5,451.9z
			 M201.2,392.3c13.7-18.2,26.9-40.6,25-42.5c-0.6-0.6-2.9,2.7-6.6,9.7c-6.1,11.5-10.4,18.1-20.2,31.2c-3.5,4.6-6.4,8.9-6.4,9.4
			C193,402.4,195.1,400.4,201.2,392.3L201.2,392.3z M246,341.1c0-1.1-2.5-2.1-5.3-2.1c-4.2-0.1-10.7-3.8-12.8-7.5
			c-1.5-2.5-2.5-3.3-3.2-2.6c-1.4,1.4,3.5,7.6,7.6,9.8C237.6,341.4,246,342.9,246,341.1L246,341.1z M320,341.2
			c0-1.5-4.5-5.1-8.3-6.7c-4.3-1.8-12.7-1.2-12.7,0.9c0,0.9,1.7,1.1,5.8,0.8c5.1-0.3,6.1-0.1,9.7,2.6C318.7,342,320,342.6,320,341.2
			L320,341.2z M261.5,184.3c2.5-0.9,5.5-1.2,8.2-0.8c4.2,0.6,6-0.6,2.7-1.9c-4.8-1.9-18.4,1.4-18.4,4.5c0,0.7,0.7,0.8,1.8,0.4
			C256.7,186.1,259.3,185.1,261.5,184.3L261.5,184.3z M254,109.5c-0.3-26.3-0.8-37.4-1.5-36c-1.2,2.4-1.4,71-0.2,73.9
			c0.4,1.1,1.1,1.5,1.5,1S254.3,130.4,254,109.5z"/>
		<path class="st2" d="M245.1,445.2c-0.2-5.9,7.2-14.8,16.9-20.4c6.7-3.9,17.5-7.1,21.4-6.4c4.9,0.9,8.3,5.2,10.4,12.9
			c1.4,5-0.2,4.8-1.7-0.3c-1.3-4.4-6.2-10.6-9-11.5c-3.2-1-14.8,3.4-22.6,8.6c-8.2,5.5-11.7,9.4-13.9,15.5
			C245.5,446.5,245.1,446.9,245.1,445.2L245.1,445.2z"/>
		<path class="st2" d="M314.7,401.3c-0.3-0.4,2.9-5.4,7-11.1c7.6-10.3,7.6-10.3,9.6-8.4c3.7,3.8,1.1,7.2-15,19.4
			C315.7,401.7,315,401.7,314.7,401.3z"/>
		<path class="st2" d="M331.6,393.1c-0.3-0.4,0.3-1.6,1.4-2.6s2-2.5,2.1-3.4c0-1.1,0.2-1.2,0.6-0.3c0.6,1.5-1.6,7.2-2.8,7.2
			C332.5,394,331.9,393.6,331.6,393.1L331.6,393.1z"/>
		<path class="st2" d="M308.2,388.9c-3.5-1.1-6.2-2.3-5.9-2.5c0.3-0.3,3.5,0.4,7.2,1.5c3.7,1.2,6.8,2.1,7,2.1s2.4-2.9,5-6.5
			c6.2-8.8,7.9-8.3,1.8,0.5C317.9,391.9,317.7,391.9,308.2,388.9z"/>
		<path class="st2" d="M183,384.7c0-0.2,0.9-2.2,2-4.5c2.5-5.2,2.5-5.4-0.5-8.2c-4.1-3.8-3.1-12,1.4-12c1.1,0,0.9,0.6-0.7,2.3
			c-3.1,3.3-2.7,5.9,1.3,9.1l3.4,2.7l-2.7,5.5c-1.4,3-3,5.4-3.4,5.4S183,384.9,183,384.7z"/>
		<path class="st2" d="M295.6,381.9c-4.6-5.4-6-9.6-6-18.4c-0.1-9.2,1.7-13.5,7.4-17.2c5.5-3.8,8.3-3.1,15.3,3.5
			c12.2,11.5,14,11.8,23.2,3.2c6.7-6.3,8.4-6.9,12.5-4.5c2.4,1.4,2.4,1.4,0.3,1.5c-1.2,0-2.5-0.5-2.8-1c-0.9-1.5-4.4,0.6-9.7,6.1
			c-4.4,4.6-5,4.9-9.7,4.9c-5.3,0-5.9-0.4-15.4-9.3c-7.3-6.8-9.8-6.8-15.5-0.3c-7.2,8.2-6.5,21.2,1.5,29.8c1.4,1.4,2.3,3.2,2.1,3.9
			C298.6,384.8,297.2,383.9,295.6,381.9L295.6,381.9z"/>
		<path class="st2" d="M333.2,380.5c-2.4-3.8-1.6-4.7,1.2-1.6c1,1.1,1.6,2.6,1.4,3.5C335.6,383.5,334.8,382.9,333.2,380.5z"/>
		<path class="st2" d="M187.5,369c-2.6-2.8-2.8-3.2-1.3-4.6c1.4-1.4,1.8-1.4,4.7,0c3.1,1.6,3.1,1.7,1.6,4.6c-0.9,1.7-1.7,3-1.8,3
			C190.5,372,189.1,370.6,187.5,369z"/>
		<path class="st2" d="M192.3,362.8c-3-1.4-3-3,0-2.3c2,0.5,2.6-0.1,4.7-4.7c1.3-2.9,2.5-4.8,2.7-4.2c0.3,0.9-4.5,12.5-5,12.3
			C194.6,363.9,193.5,363.4,192.3,362.8L192.3,362.8z"/>
		<path class="st2" d="M243.1,329.9c-5.4-1.7-11.8-6.6-14.5-11.2c-2.6-4.3-5.1-13.1-3.5-12.1c0.5,0.3,0.9,1.2,0.9,2.1
			c0,3.2,4.6,10.7,8.9,14.4c2.5,2.2,6.7,4.6,9.7,5.6c5.1,1.6,5.8,1.6,12.8-0.1c7.9-1.8,16.8-6.6,22.5-11.9
			c4.8-4.5,12.3-16.3,15.5-24.2c3.1-7.9,7.5-24.6,7.7-29.5c0.1-2.7,0.3-2.9,0.6-1.1c1.1,5.5-4.7,27.2-10.3,38.6
			c-8.9,18.2-22.8,28.5-40.5,29.9C249.4,330.7,245,330.5,243.1,329.9L243.1,329.9z"/>
		<path class="st2" d="M217.3,301.3c1.5-0.2,3.9-0.2,5.5,0c1.5,0.2,0.2,0.4-2.8,0.4S215.7,301.5,217.3,301.3z"/>
		<path class="st2" d="M304.3,252c0-4.1,0.2-5.8,0.4-3.7c0.2,2,0.2,5.4,0,7.5C304.5,257.8,304.3,256.1,304.3,252z"/>
		<path class="st2" d="M302.3,237.9c-1.7-9-8.1-21.4-14.5-28c-7.9-8.2-11.5-10.5-20.1-13c-7.5-2.3-7.9-2.3-14-0.7
			c-4.9,1.3-5.8,1.4-4.3,0.3c2.9-2.2,10.3-2.9,16.5-1.5c13.3,2.9,26.4,13.8,32.5,27.2c3.5,7.7,6.1,17.1,5.5,20.2
			C303.7,243.5,303,241.4,302.3,237.9L302.3,237.9z"/>
		<path class="st2" d="M235,220.6c0-0.2,1.4-0.6,3-0.8c1.7-0.3,3-0.1,3,0.4c0,0.4-1.3,0.8-3,0.8C236.4,221,235,220.8,235,220.6z"/>
		<path class="st2" d="M239.6,214.4c-1.8-4.8,0.8-11,5.7-13.5c2-1,1.9-0.8-0.4,1.7c-3.9,4.2-5,6.9-4.3,10.3
			C241.3,216.2,240.6,217.1,239.6,214.4z"/>
	</g>
	<g>
		<path class="st3" d="M258,498.9c-8-1.5-8.9-1.9-12.5-5c-3-2.6-3.5-3.8-3.5-7.3c0-2.6,0.9-5.6,2.5-8.1c4.5-7.5,4.7-8.4,3.1-15
			c-2.2-8.8-2.8-20.1-1.2-23.9s9.5-11.3,15.6-14.8c2.5-1.5,7.6-3.6,11.3-4.8c8.3-2.7,12.6-2.1,16.1,2.1c3.1,3.6,6.7,15.2,7.3,23.4
			c0.7,10.4,1.3,12.5,4.7,16.3c6.1,6.8,8.6,11.2,8.6,15.4c0,7.2-4.7,12.6-14.5,16.8c-5.7,2.5-5.8,2.5-4.5,0.1
			c2.1-4,0.1-18.1-2.5-18.1c-1,0-1,1.3,0.2,6c2.7,10.6-0.6,15.6-10.9,16.7c-6.7,0.7-12.3-1-14.5-4.3c-2-3.2-1.2-9.8,1.6-12.8
			c2.4-2.5,2.6-3.6,0.9-3.6c-1.8,0-5.6,5.9-6.4,9.7c-0.6,3.3,0.6,6.4,3.9,10.1C265.6,500.3,265.3,500.3,258,498.9L258,498.9z"/>
		<path class="st3" d="M174.6,489.7c-3.4-3.4-3.4-7.9-0.1-14.1c2-3.7,2.2-4.6,0.9-4.6c-2.4,0-5.6,8.5-5.2,13.6
			c0.2,2.4,0.2,4.4,0,4.4c-2,0-8.1-4.4-8.6-6.2c-1.2-4.5-0.6-9.5,1.4-12.1c2.2-2.7,2.6-4.7,1-4.7c-1.9,0-4.5,5.4-5,10.4l-0.6,5.1
			l-2.2-3.5c-4.9-7.8-0.3-20,7.5-20c1.2,0,3.8,1.4,5.6,3c1.9,1.7,3.7,3,4.1,3c1.5,0,0.4-2.8-1.8-5c-2.9-2.6-6.6-10-6.6-13
			c0-1.7,0.3-1.8,2.6-1c1.4,0.6,3.8,0.9,5.2,0.8c1.5-0.1,5,0.6,7.7,1.5c7,2.3,17.6,4.7,27,6.1l8,1.1l0.6,5.1
			c0.4,2.7,1.6,7.2,2.8,9.8c2.9,6.7,2.8,11.7-0.5,15.5c-3.8,4.5-10.5,6.2-27.1,6.8l-14.1,0.6L174.6,489.7L174.6,489.7z"/>
		<path class="st3" d="M331.6,393.3c-0.3-0.4,0.2-1.6,1.3-2.7c3.4-3.8,3.4-5.9-0.4-11.2c-1.9-2.7-3.5-5.2-3.5-5.6s0.9-1.2,2.1-1.9
			c1.8-0.9,2.9-0.6,7.1,2.1c2.8,1.7,5.3,2.8,5.7,2.5c0.3-0.4-1.6-2.6-4.2-5c-2.6-2.5-4.7-5.1-4.7-5.8c0-2.6,1.4-2.7,3.4-0.2
			c2.2,2.6,5.5,3.4,9.3,2.1c1.6-0.5,2.5-0.2,3.3,1.4c1.2,2.2,3,2.7,3,0.8c0-0.6-0.7-1.9-1.6-2.9c-1.4-1.5-1.4-2.3-0.3-5.3
			c1.5-4.1,2.4-4.1,5.3-0.3c4.3,5.7,1.7,18.5-5.1,24.9C347.7,390.6,333.8,395.4,331.6,393.3L331.6,393.3z"/>
		<path class="st3" d="M309,389.1c-8.3-2.7-11.8-4.8-15-9.2c-5.4-7.5-6.3-21.5-2-28.7c2.4-3.9,7.5-7.2,11.3-7.2c2.1,0,4.5,1.5,9,5.8
			c12.2,11.5,14,11.8,23.2,3.2c3.5-3.3,7.2-6,8-6c2.7,0,7.3,2.9,8,4.9c0.7,2.4-0.9,8.8-3,11.9c-1.7,2.3-4.9,2.9-7.4,1.3
			c-1-0.7-1.2-2.1-0.8-5.5c0.4-2.8,0.3-4.6-0.3-4.6c-0.6,0-1,0.4-1,1c0,0.5-1.4,2.5-3.1,4.5c-2.3,2.5-3,4.2-2.7,6
			c0.4,1.9,0.1,2.5-1.3,2.5c-2.7,0-5.1,2.9-4.7,6c0.4,3.8-7.8,16-10.7,15.9C315.4,390.9,312,390.1,309,389.1L309,389.1z"/>
		<path class="st3" d="M176.5,384.3c-10.6-2.3-18-9.7-20.4-20.3c-1.4-6.3,0.2-12,5-17.3l3.8-4.2l0.1,3.1c0,1.7-0.7,4.4-1.5,6.1
			c-0.8,1.6-1.8,4.4-2.1,6.1c-1,5.1,1.2,3.8,3.1-1.8c0.9-2.7,2-5,2.4-5s1.6,0.9,2.6,2s2.7,2,3.7,2c1.6,0,1.8,0.4,1.2,2.3
			c-1.7,5.3-2.2,9.3-1.4,10.1c1,1,1,1,3-6.4c0.7-2.5,1.9-5.3,2.8-6.2c1.7-2.1,7.2-2.4,9-0.6c1.9,1.9,1.5,3.4-1.8,7.1
			c-3.9,4.5-3.8,6.7,0.5,10.1l3.4,2.7l-2.7,5.5C184.5,385.2,183.2,385.8,176.5,384.3L176.5,384.3z"/>
		<path class="st3" d="M192.3,362.8c-1.8-0.9-2-1.6-1.6-4.4c0.7-4-0.7-5.9-5.4-7.9c-1.8-0.8-4.1-2.8-5.1-4.5
			c-2.2-3.9-3.7-3.3-3.7,1.5c0,5.5-2.8,7-6.1,3.2c-3.5-4.1-4-7.4-1.7-10.5c2.5-3.4,6.5-4.9,9.7-3.6c1.3,0.5,3.9,2.9,5.8,5.3
			c2.5,3.3,4.6,4.7,8.6,6.1c7.7,2.5,8,3,5.2,9.2C195,363.9,194.9,364,192.3,362.8L192.3,362.8z"/>
		<path class="st3" d="M243.1,329.9c-8.6-2.6-15.9-10.5-17.9-19.4c-1.1-4.8-0.6-6.5,1.8-6.5c1.1,0,2,1,2.3,3c1,4.6,5.5,6.4,14.1,5.7
			c6.5-0.6,9.8-1.8,7.9-3c-0.4-0.3-3.3-0.1-6.3,0.4s-6.7,0.6-8.2,0.3c-2.5-0.5-5.8-3.7-5.8-5.6c0-0.3,2.6-1.2,5.8-1.8
			c7.8-1.5,25.1-7,25.8-8.2c1.3-2-0.7-1.8-9,1.1c-24.8,8.8-47.4,7.8-59.4-2.5c-2.3-1.9-5.1-4.8-6.3-6.5l-2.1-3l3.3,2
			c9.3,5.7,20.8-1.2,25.6-15.2c2.6-7.7,2.3-20.7-0.6-27.2c-4.2-9.5-10.9-14.2-18.4-13c-3,0.6-5.3,2-8.9,5.6
			c-4.3,4.4-4.6,4.5-3.2,1.6c2.9-5.6,6.6-9.7,10.8-12.2c3.7-2.2,6.1-2.6,21.1-3.5c17.1-1.1,29.3-3,36.8-5.6c4.9-1.7,5.7-1.7,5.7-0.1
			c0,2,5.3,6.6,8.8,7.6c7.5,2.2,15.2-3.4,15.9-11.6c0.5-5.9-1.9-10.2-7-12.6c-4.6-2.2-7.4-2.1-12,0.3l-3.7,2l-2.8-2
			c-1.5-1.1-4.2-2.1-6-2.3c-2.8-0.2-3-0.4-1.6-1.4c2.8-2,10.3-2.6,16.3-1.3c17.5,3.8,32.2,19.6,37.2,40c1.7,6.9,1.7,27.4,0,35.5
			c-6.6,31.8-19.2,50.8-38.2,57.4C258,330.4,247.7,331.3,243.1,329.9L243.1,329.9z"/>
		<path class="st3" d="M264.2,220.4c-3.4-2.4-5.5-7.1-4.8-11c0.9-4.5,5.7-8.4,10.4-8.4c4.9,0,6.7,1.3,6.7,4.7c0,2.2,0.5,2.9,2.4,3.1
			c2.1,0.3,2.3,0.7,1.8,4C279.5,220.3,270.2,224.6,264.2,220.4L264.2,220.4z"/>
		<path class="st3" d="M240,215.1c-3.4-6.4,2.2-15.1,9.7-15.1c3.4,0,9.8,2.9,6.7,3c-1.9,0-2.4,2.8-0.8,4.5c2.8,2.8,1.2,4.8-5.6,7.1
			C241.9,217.4,241.3,217.4,240,215.1L240,215.1z"/>
	</g>
</g>
</svg>
