<?xml version="1.0" encoding="utf-8"?>
<!-- Generator: Adobe Illustrator 25.0.1, SVG Export Plug-In . SVG Version: 6.00 Build 0)  -->
<svg version="1.1" id="Layer_1" xmlns="http://www.w3.org/2000/svg" xmlns:xlink="http://www.w3.org/1999/xlink" x="0px" y="0px"
	 viewBox="0 0 1285 621" style="enable-background:new 0 0 1285 621;" xml:space="preserve">
<style type="text/css">
	.st0{fill:#FFFFFF;}
</style>
<g>
	<g>
		<path d="M717.3,538.4c-10.2-3.5-23.1-12.4-34.7-23.8c-6.6-6.4-8.4-7.6-12.9-8.6c-6.8-1.6-12.1-0.2-17.9,4.6
			c-4.1,3.5-4.5,3.6-10.2,3c-3.9-0.4-6.7-1.3-8.1-2.6c-3.1-2.9-6.6-3.2-20.5-2c-12.9,1.1-16.9,1.3-55.5,3c-21.2,1-41.2,2.5-65.5,4.9
			c-5.2,0.5-21.6,1.8-36.5,2.7c-39.1,2.5-56.6,1.2-81-5.9c-3.8-1.1-9.3-3.2-12.1-4.7c-2.7-1.5-6.8-3.3-9-4c-2.1-0.7-5-2.3-6.3-3.6
			c-1.2-1.3-3.3-2.6-4.5-3c-3-0.9-25.6-23.3-27.2-27c-0.7-1.7-1.9-3.6-2.6-4.2c-0.8-0.6-2.7-4-4.3-7.6c-3.1-6.9-5.4-8.6-11.6-8.6
			c-3.6,0-4.2,1.1-5,9.3c-1.3,13.8-14.9,34.7-28,42.9c-2.4,1.5-6.4,1.7-31.7,1.7c-19,0.1-30,0.5-31.9,1.2
			c-12.3,4.9-31.6,8.9-42.8,8.9c-15.9,0-39.6-6.6-44.5-12.4c-9.2-10.8-11.1-23-5.7-37.1c2.7-7.2,16.4-25.6,25.4-34.1
			c2.4-2.2,4.3-4.6,4.3-5.2c0-0.7,1.6-2.9,3.5-4.9s3.5-4,3.5-4.4s1.8-2.8,3.9-5.5c2.2-2.6,7.3-11.5,11.4-19.8
			c7.8-15.8,8.8-18,13.1-28.6c3.8-9.1,3.7-9,11.1-24.3c8.6-17.8,13.1-24.4,22.6-33.7c9.3-9.2,14.8-12.1,28.4-15.5
			c3.8-0.9,8.8-2.5,11-3.6c11.2-5.1,18.8-6.1,26.5-3.4c3.9,1.4,12,6.9,12.8,8.8c0.2,0.4,1.5,2.1,2.9,3.7c4.4,5.3,6.4,12.5,7,25
			c0.7,17.8,3.2,21.2,18.5,26c7.1,2.2,19.1,2.6,22.5,0.7c1.2-0.7,4.7-4.6,7.8-8.7l5.7-7.5l-0.6-6c-0.8-9-3-21.8-3.9-23.2
			c-1.4-2.2-5.6-1.4-13,2.3c-6.1,3-8,3.5-12,3.1c-7.1-0.6-11.7-6-11.7-13.7c0-8.1,10.9-25.6,21.2-34c9.1-7.5,22.5-13,31.8-13
			c5.4,0,7.6,0.6,12.9,3.2c6,3.1,21.1,15,21.1,16.6c0,0.4,1.3,2.2,3,4c3,3.3,4.1,5.4,8.1,15.5c3.5,8.8,4.3,9.2,16.3,9
			c5.5-0.2,13.5,0.2,17.6,0.7c7.2,1,26.9,6.2,35.6,9.4c4.9,1.8,18.2,8.7,24,12.4c5.4,3.5,13.8,9.4,14.4,10.2
			c0.3,0.3,2.6,2.2,5.1,4.1c4.4,3.3,21.6,20.7,23.1,23.4c1.7,2.9,30.1,30.4,36.7,35.5c10.1,7.8,11.9,8.4,18.6,6.5
			c8.4-2.5,13.9-1.3,19.3,4.1c3.9,4,4.7,4.4,9.2,4.4c6.7,0,10-1.6,10-4.9c0-2.7-6.2-15.4-8.7-17.9c-9.9-10-16.1-76.1-9.2-97.8
			c0.5-1.7,1.2-4.8,1.4-7c0.3-2.1,1.6-7.5,3-11.9c1.3-4.4,3.1-10.2,3.9-13c2.5-8.8,9.9-24.5,16.8-36c1-1.6,2.2-4,2.7-5.2
			c0.6-1.2,1.8-3,2.8-4s4.5-5.4,7.8-9.7s9.1-10.6,13-14.1c8.7-7.7,26.2-21.4,28.9-22.6c8.8-3.9,15-8.7,29.9-23.6
			c9-9,16.7-16.3,17.2-16.3c0.4,0,2.8-1.6,5.2-3.6c4.9-4,10.3-5.7,13.9-4.3c2,0.7,2.4,1.5,2.4,5.2c0,4.7-2.7,9.2-8.2,13.8
			c-6,5-0.8,6,14.7,3c6.7-1.3,30.2-1.4,31-0.1c0.4,0.6-1.2,1-4.2,1c-10,0.1-26.7,2.9-33,5.6c-6.1,2.5-4.2,4,6.7,5.3
			c5.6,0.6,11.9,1.1,14.1,1.1c6.3,0,25,5.7,36.5,11.1c8.4,4,9.8,3.8,15.3-2.2c5.2-5.7,10.5-8.9,15.1-8.9c3.9,0,3.8,1.8-0.4,5
			c-4.7,3.6-11.6,11.8-11.6,13.9c0,1.8,3.9,5.8,10,10.3c4.8,3.6,12.2,10.6,14,13.4c0.9,1.2,3.1,4,5.1,6.1c1.9,2.1,4.9,5.8,6.6,8.3
			c1.7,2.5,5.4,6.8,8.2,9.5s5.1,5.5,5.1,6.2c0,1.6,8.3,7.3,14,9.6c14.7,5.9,13.1,5.8,56.5,5.5l40-0.3l9,2.7c5,1.4,10.1,2.8,11.5,3.1
			s5,1.5,8,2.8c3,1.2,9.3,3.8,14,5.7c17.1,6.9,33.6,16.6,44.1,25.9c15.7,13.9,40.9,42.3,40.9,46.2c0,0.6,0.5,1.1,1,1.1
			c0.6,0,1,0.5,1,1c0,0.6,1.2,2.9,2.8,5.3c1.5,2.3,3.6,6.7,4.7,9.7l2.1,5.5l5.1,0.3c3.3,0.2,6.3-0.3,8.2-1.2
			c4.2-2.2,15.4-2.1,22,0.3c20.5,7.2,35.1,32.5,31.1,53.8c-2.5,13.3-7.6,19.5-21,25.2c-7.9,3.4-19,2.7-27.9-1.7
			c-3.5-1.8-7.2-3.2-8.2-3.2c-2.1,0-4.5,3.2-5.5,7.5c-1,4.6-13.8,28.2-18.3,33.8c-13.8,17.4-49.7,38.6-72.5,42.9
			c-5.5,1-13.2,2.5-17.1,3.3c-22,4.6-26.8,5-64.5,5c-33.8-0.1-65.3-1.2-97.5-3.5c-7.1-0.5-31.1-1.3-53.1-1.6
			c-39.8-0.7-40.2-0.7-43.6,1.4c-1.9,1.2-4,3.3-4.6,4.7c-2.8,6.1-10.7,15.2-16.5,19c-10.1,6.5-18.9,9.4-28.2,9.4
			C725.1,539.9,719.6,539.2,717.3,538.4L717.3,538.4z M463,513.5c12.4-0.8,25.2-1.9,28.5-2.5c3.3-0.5,9.2-1,13-1c3.9,0,9.7-0.5,13-1
			c6.4-1,33.8-2.5,73.5-4c23.6-0.8,34-2,36.8-4.3c0.8-0.6,1.2-2.2,0.9-3.6c-0.8-4.5-8.3-27.4-12.2-37.6
			c-5.7-14.6-15.5-41.4-15.5-42.1c0-0.5-0.8-2.8-1.7-5.2c-1.5-4.1-2.3-4.7-9.7-8.2c-4.5-2-10.2-5.3-12.9-7.4
			c-5.9-4.5-9.5-4.7-14.6-0.8c-4.2,3.4-18.1,7.4-25,7.3c-10.9-0.1-37.6-8.7-49.6-16c-7.3-4.5-18.4-14.1-23-20
			c-7.4-9.4-10.6-17.1-10.7-25.6c-0.1-11.1,3.1-20.3,9.3-26.4c2.7-2.7,4.9-5.3,4.9-5.8c0-2.2-4.1-4.2-14.5-6.9
			c-9.7-2.6-12.6-2.9-25-2.8c-7.7,0.1-16,0.6-18.4,1.3c-2.4,0.7-6.7,1.6-9.5,2.1c-9.8,1.6-21.8,7.4-28.6,13.8
			c-1.3,1.2-2.9,2.2-3.5,2.2c-1,0-6.5,5.9-10.5,11.2c-0.8,1.1-2.3,2.8-3.2,3.8c-6.9,7.5-13.2,17.4-16.5,26
			c-4.6,12.3-6.5,16.3-7.7,17.3c-1.3,1-26.5,0-39.1-1.4c-11.6-1.4-21-3.7-23.7-5.9c-2-1.6-2.1-2.1-1.1-5.6
			c2.6-8.8,3.4-16.6,3.1-29.4c-0.3-11.7-0.6-14.1-2.6-18.2c-2.8-5.7-11.9-15-18.7-19.2c-4.5-2.8-5.7-3.1-12.7-3
			c-7.2,0.1-8.3,0.5-15.3,4.5c-4.1,2.3-7.5,4.5-7.5,4.9s-2.1,2.9-4.7,5.7c-2.7,2.8-5.8,6.4-6.9,7.9c-2.7,3.6-16,30-18,35.6
			c-0.8,2.3-1.8,4.6-2.3,5.2s-1.4,2.9-2.1,5.1c-4.4,13.8-21.2,46.3-27.4,53c-3.3,3.6-4.3,7.2-2.5,9.1c2.2,2.1,16.5,4.7,22.9,4.1
			c3-0.2,8.6-1.2,12.3-2.2c11.9-3,9.4,0.8-2.8,4.4c-16.7,4.9-15.8,4.8-24.8,1.8c-4.5-1.5-10.1-2.7-12.4-2.7c-3.7,0-4.6,0.5-8,4.6
			c-2.1,2.5-5.7,6.7-7.9,9.3c-2.3,2.5-6,7.5-8.3,11c-7.3,11.3-5.8,13.4,13.9,19.7c9.1,2.9,22.4,3.7,36,2.2l6.5-0.8l-3.5,1.7
			c-1.9,0.9-5.3,2-7.5,2.4c-17.9,3.4-16.9,3.4-25.2,1.5c-4.3-1-11.4-3.6-15.8-5.8c-6.9-3.4-8.4-3.8-10.7-2.9c-2.7,1-2.8,1.4-2.8,7.7
			c0,9.1,1.9,13,8.9,18.1c6.8,5,8.6,5.7,20.2,8.3c14.6,3.3,23.1,2.7,44.4-2.9c6.1-1.7,13.3-4.9,17.8-7.9c2.5-1.8,4.8-3.2,5.1-3.2
			c0.4,0,4.8-2.8,9.8-6.2c10.7-7.3,25.5-21.6,31.3-30.3c2.2-3.3,4.3-6.2,4.6-6.5c0.4-0.3,1.6-2.3,2.7-4.6c1.1-2.2,2.8-4.6,3.6-5.3
			c0.9-0.8,1.6-1.9,1.6-2.7c0-2.2,3-4.4,5.9-4.4c1.6,0,5.9,1.4,9.7,3.1c3.8,1.8,8.3,3.6,9.9,4c1.7,0.5,7.1,1.9,12,3.3
			c14.2,3.8,13.7,3.4,20.4,17c7,14.1,12.5,20.5,16,18.7c2.5-1.4,2.6-2.5,0.6-8.1c-1.6-4.7-2.1-22.5-0.6-23.4
			c0.5-0.3,1.2-1.8,1.5-3.2c0.4-1.4,1.8-4.9,3.1-7.7c1.4-2.8,2.5-5.6,2.5-6.3c0-3.1,16.7-16.9,25-20.7c8.3-3.7,11.7-4.7,17.9-5.3
			c8.3-0.8,15,0.6,24.8,5.1c6,2.8,9.1,5,14.5,10.8c6.5,6.9,11.8,15.3,11.8,18.7c0,4.8,11.2,7.7,32,8.4c11.9,0.4,58.4-0.8,77.3-2
			c7.6-0.5,10.7-0.4,10.7,0.4c0,1.3-0.7,1.5-14.1,3.7c-5.3,0.8-14.3,1.5-20,1.5s-18.5,0.5-28.4,1.1c-13.4,0.7-22.8,0.7-36.5-0.2
			c-20.1-1.4-24.7-2.5-25.5-6.4c-0.3-1.4-0.8-3.7-1.1-5.2c-0.6-3-7.9-15.3-9.8-16.5c-1.9-1.3-6.3-0.9-7.6,0.7
			c-0.9,1.1-1.3,6.1-1.4,16.5c-0.1,16.4-1,18.7-4.3,10.3c-2.5-6.6-2.4-24.1,0.1-29.5c2.8-5.8,0.7-8.4-9.2-11.4
			c-10-3-22.4-1.1-27.8,4.3c-3.6,3.5-4.7,8.8-4.2,19.3c0.2,3,0.2,9.3,0,14l-0.2,8.5l-2.6-5.5c-2.2-4.6-2.7-7.1-2.9-15.3
			c-0.2-10.4-0.7-11.7-5.2-11.7c-2.8,0-4.6,2.7-7.9,11.5c-1.5,3.8-3,7.5-3.4,8c-0.4,0.6-1.5,4-2.5,7.7c-1.8,6.9-1.7,11.5,0.4,23.4
			c2.6,14.1,20.4,29.4,41.1,35.4C396.1,514.8,427.6,515.8,463,513.5L463,513.5z M1025,502.6c20.6-3.1,43.3-10.2,57.3-17.9
			c3.4-1.9,8.9-5,12.2-6.8c9.7-5.2,23.6-17.3,28.3-24.4c5.4-8.2,12.8-23,14.1-28.1c0.5-2.1,1.8-7.3,3-11.4c2.3-8.3,2.7-20.3,1.1-31
			c-4.6-29.7-4.8-31-6-34.4c-0.7-1.7-1.9-4.5-2.6-6.3c-0.8-1.7-1.4-3.7-1.4-4.5c0-1.8-5-11.9-6.7-13.6c-0.7-0.7-1.3-1.7-1.3-2
			c0-0.4-1-1.8-2.3-3.2c-3.1-3.4-8.7-10.7-8.7-11.3c0-0.2-2.4-2.9-5.2-5.9c-2.9-3.1-7.9-8.3-11.2-11.8
			c-11.6-12.4-26.4-23.6-40.5-30.5c-11.5-5.7-19.9-9.4-22.8-10.1c-1.5-0.4-3.2-1-3.8-1.4c-0.5-0.4-3.7-1.5-7-2.5
			c-3.3-1-8.7-2.7-12-3.9c-5.5-1.9-8.1-2.1-32-2c-14.3,0-30.7,0.4-36.5,0.8c-8,0.6-12.9,0.4-20.8-0.8c-5.7-0.9-11.1-2.1-12-2.5
			c-0.9-0.5-4.3-2.1-7.4-3.5c-10.8-4.8-18.2-10.8-23.7-19.1c-1.4-2.2-3.1-4.4-3.7-5c-0.6-0.5-2.9-3.3-5.1-6.1
			c-5.2-6.8-11.4-13.5-18.8-20.6c-4.6-4.4-6.7-5.8-9-5.8c-4.5,0-5.2,0.9-5.9,7.5c-1.1,10-1.4,11.8-3,16c-1.5,4-1.5,4-1.5-6
			c-0.1-8.2,0.3-10.6,1.8-13.1c3-4.9,1.8-10.6-2.9-14.4c-2.1-1.7-4.1-3-4.5-3c-0.3,0-3-1.1-5.8-2.4c-14.9-6.9-32.2-10.6-49.7-10.6
			c-10.6,0-19.8,1.3-34.5,5c-5.5,1.3-6.5,1.2-6.5-0.5c0-2,3.3-4.9,12.5-10.7c14.1-8.9,14.5-9.2,14.5-11.6c0-1.3,0.9-3.5,2-4.9
			c3.6-4.7,2-8.3-3.7-8.3c-2.8,0-4.3,1.1-9.7,6.8c-3.5,3.7-7.7,8.3-9.2,10.2c-1.6,1.9-4.6,5.3-6.7,7.5c-2.1,2.2-4.5,5.1-5.4,6.5
			c-1.5,2.6-3.2,3.8-14.1,10c-12.3,6.9-38,29.2-47.7,41.5c-7.6,9.5-18.6,27.2-21.5,34.5c-0.7,1.9-1.7,4-2.2,4.6
			c-0.9,1.2-7.4,21.2-10.1,30.9c-2.4,8.5-3.6,16.3-4.4,29c-0.8,12.3-0.8,10.8,0.2,30c1.1,23.1,6.5,46.2,11.2,47.9
			c2.1,0.9,4.2-2.2,4.8-7.2c0.5-3.9,2-11.6,5-25.7c0.3-1.1,2.1-6.5,4.1-12s4.5-12.5,5.5-15.5c1.1-3,2.4-6.4,2.9-7.5
			s2.4-6.7,4.3-12.5c1.9-5.8,4.6-13.6,6.1-17.5c1.5-3.8,3.1-8.1,3.6-9.5s1.8-5,3-8s3-7.7,3.9-10.3c1-2.7,2.7-6.1,3.9-7.5
			c1.6-2.2,2.3-2.5,3.8-1.6c1,0.6,2.2,2.6,2.5,4.4c0.4,1.8,1.2,4.4,1.9,5.9c3.1,6.8,6.6,13.7,7.6,15.1c0.6,0.8,4.1,7.3,7.8,14.3
			c3.6,7.1,7.7,14.3,9,16c1.3,1.8,3.5,5.2,4.8,7.7c1.4,2.5,4.1,6.9,6.1,9.8c1.9,3,4.6,7.5,5.9,10c1.2,2.6,2.5,4.9,2.9,5.2
			c0.3,0.3,2,3.4,3.8,7c1.9,3.6,4.6,8.3,6.1,10.5c1.4,2.2,3.4,5.6,4.3,7.5c1,1.9,2.2,4.2,2.7,5c1.5,2.3,12.5,25.8,14.8,31.5
			c1.1,2.8,3.1,7.9,4.6,11.5c1.4,3.6,2.6,7.3,2.6,8.3s0.5,2.8,1.2,4c0.6,1.2,1.5,3.8,1.9,5.7c0.4,1.9,1.4,6.9,2.4,11
			c0.9,4.1,2.3,14.1,3,22.3c1.3,14.8,0.9,22.2-1.7,34.1c-1.7,7.8-2.8,7.6,37.1,7.6c19,0.1,40.5,0.5,47.6,1c23.6,1.7,45.7,2.9,65,3.5
			c10.4,0.4,19.2,0.9,19.5,1.2C949.1,505.8,1015.6,504.1,1025,502.6L1025,502.6z M668,500c2-2,2-2-3.5-12.7
			c-6.7-13.4-10-20.6-12-26.2c-0.8-2.5-1.9-4.9-2.4-5.5c-0.4-0.6-1.8-4.5-3.1-8.6s-2.6-7.9-2.9-8.5c-0.3-0.5-0.6-1.5-0.7-2.2
			c-0.1-0.6-0.7-2.7-1.2-4.5c-0.6-1.8-1.8-7.3-2.8-12.1c-2-10.4-3-11.3-10.1-9.6c-6.5,1.6-9.3,3.5-9.3,6.3c0,1.3,1.6,6.4,3.5,11.4
			c1.9,4.9,4.4,12,5.5,15.8c1.2,3.8,2.6,8.3,3.1,9.9c0.6,1.7,1.2,3.9,1.4,4.9c0.3,1.1,1.6,5.1,3.1,9c1.4,3.9,2.9,8.2,3.4,9.6
			c4.3,13.6,6.5,19.7,7.4,20.7c1.2,1.4,11.5,4.1,15.9,4.2C664.8,502,666.9,501.1,668,500L668,500z M258.8,496.5
			c13.6-7.2,21.7-22.2,23.8-43.6l0.6-5.5l-4-2.8c-4.1-2.8-10.8-4.3-12.9-2.9c-0.6,0.5-2.4,3.2-4,6.1c-6.3,11.7-16.6,24.4-26.3,32.4
			c-5.2,4.4-11.4,9.1-13.7,10.6c-4.9,3.1-5.9,6.8-2,7.7c3.3,0.8,15.1,1.2,24.7,1C252.2,499.3,254.3,498.9,258.8,496.5L258.8,496.5z
			 M326.7,371.2c2.4-1.8,5.7-12,4.7-14.5c-0.8-2.2-5-3.7-10.1-3.7c-5.2,0-17.9-4.1-23.5-7.7c-5.9-3.7-8.8-8.8-9.4-16.9
			c-1.1-15.3-5-27.3-11.6-35.7c-6.7-8.5-19.2-10.9-26.4-5.2c-2.4,1.9-2.6,2.5-1.5,3.8c0.7,0.9,3.3,2.6,5.7,3.8
			c5.9,2.8,9.8,6.1,12.6,10.7c1.2,2,2.8,4.3,3.4,4.9c0.7,0.7,2.2,3.9,3.4,7c1.8,5,2.1,7.3,1.8,19.2c-0.2,7.5-1,16.2-1.7,19.3
			c-1.9,8-1,10.5,3.9,11.8c2.2,0.5,5.9,1.5,8.3,2.2c3.6,1,18.9,2.2,33.7,2.6C322.9,372.9,325.3,372.3,326.7,371.2L326.7,371.2z
			 M363.8,317.1c1.4-0.9,2.7-5.1,4.5-14.6c1-5.2,1.8-6.7,6.2-11.1c2.9-3,8-6.5,12-8.5c9.2-4.5,9.4-6.1,2.6-15
			c-6-7.7-17-16.3-23.2-17.9c-11.1-3-26.3,4.2-39.1,18.5c-2.7,2.9-4.8,5.6-4.8,6c0,0.3-1.1,2.1-2.4,3.8c-4.3,5.8-6,15.2-3.6,19.8
			c1.6,2.9,7.5,2.4,15.3-1.1c5.5-2.5,8-3,13.9-3c4,0,7.9,0.4,8.6,0.8c1.5,1,1.6,7.3,0.4,15.7c-0.6,3.3-0.8,6.3-0.5,6.8
			C354.3,318.3,362.2,318.2,363.8,317.1L363.8,317.1z"/>
		<path d="M849.4,303.5c1.1-0.8,2.7-1.5,3.6-1.5c0.9,0,2-0.4,2.6-0.9c0.5-0.5,4.4-2,8.7-3.5c7.9-2.6,12.5-4.4,18.5-7.3
			c4.9-2.5,11.4-2.1,9.8,0.6c-1.2,1.8-17.5,9.2-24.3,11c-2.4,0.6-6,1.6-8.2,2.1c-2.1,0.6-5.8,1-8.2,1
			C847.8,304.9,847.6,304.8,849.4,303.5L849.4,303.5z"/>
		<path d="M1229.1,492.4c-4.2-1.3-2.7-2.6,3.9-3.4c5.3-0.6,6.4-2.9,3-6.5c-3-3.2-2.8-6.5,0.4-10.7c3-4,3.2-5.8,1.2-9.7
			c-1.1-2.1-2.9-3.2-7.6-4.6c-10.8-3.3-13.1-6.6-9-13.3c2.5-4.1,5.4-5.2,13.6-5.2c7.6,0,10.8-2.1,9.9-6.8c-0.4-2.2-0.3-2.1,0.7,0.6
			c1.4,4.1,4.8,4.5,4.8,0.6v-2.7l2.5,2.7c2.1,2.3,2.8,2.6,4,1.6c1.3-1,1.5-0.8,1.5,1.3c0,3,3.8,4.6,4.6,1.9c0.3-0.9,1-2.6,1.5-3.7
			l0.9-2l-0.4,2c-0.3,1.1-0.8,3.2-1.1,4.7c-0.5,2-0.3,2.7,1.2,3.1c1.2,0.3,0.9,0.5-1,0.6c-2.5,0.1-2.7,0.4-2.1,2.9
			c0.4,1.5,1.2,3,1.8,3.4c0.6,0.4,2,1.4,3.1,2.2c1.7,1.3,1.8,1.5,0.3,1.6c-0.9,0-2-0.4-2.3-1c-0.9-1.4-2.2-1.2-2.9,0.5
			c-0.3,0.8,0.6,2.8,1.9,4.4c3.4,3.9,3.1,4.7-0.5,2.1c-2.5-1.8-3.3-2-4.6-0.9c-0.8,0.7-1.3,2.1-1.1,3.1c0.5,1.6,0,1.7-4.7,1.2
			c-4.2-0.5-5.6-0.3-7,1.1c-1.9,1.9-1.8,3.9,0.6,12.8c1.3,4.7,1.3,4.7,5.6,4.7c6.8,0,12.5,1.9,14.9,5c3.5,4.3,3.9,6,1.5,6
			c-1.2,0-2.4-0.4-2.7-1c-0.3-0.5-1.4-1-2.2-1c-0.9,0-4.8-1.9-8.5-4.1c-6.1-3.7-7.2-4.1-9.4-3c-1.7,0.8-2.4,1.7-2,2.7
			c0.3,0.9,0.6,2.2,0.6,3s1.4,2,3,2.5c1.7,0.6,3,1.5,3,2C1250,494.4,1233.4,493.8,1229.1,492.4L1229.1,492.4z M1241.8,486.6
			c0.3-2,0-2.7-1-2.4c-0.7,0.3-1.4,1.7-1.6,3.2c-0.3,2,0,2.7,1,2.4C1240.9,489.5,1241.6,488.1,1241.8,486.6z M1256,455.5
			c0-1.2,0.5-2.6,1.1-3.2c0.7-0.7,0.9-2.9,0.4-6.1c-0.7-5-0.7-5.1-4.7-5.7c-3.3-0.6-4.4-0.3-6,1.3c-1.8,1.7-1.9,2.8-1.3,8.8l0.7,6.9
			h4.9C1255.4,457.5,1256,457.2,1256,455.5L1256,455.5z M1235.2,448.5c-0.3-3.8-0.7-4.5-2.6-4.5c-3.3,0-7.1,2.4-7.1,4.4
			c0,1.3,1.2,2.4,3.5,3.2C1235.1,453.8,1235.6,453.5,1235.2,448.5z"/>
	</g>
	<g>
		<path class="st0" d="M1242.3,488.5c0-2.2,0.2-3,0.4-1.7c0.2,1.2,0.2,3,0,4C1242.4,491.7,1242.2,490.7,1242.3,488.5z"/>
		<path class="st0" d="M1258.6,486.5c-8.4-3.6-12.2-6.2-7.6-5.2c1.4,0.4,5.1,0.9,8.1,1.3c4.7,0.5,5.9,1.1,7.3,3.4
			C1269.3,491.1,1269,491.1,1258.6,486.5L1258.6,486.5z"/>
		<path class="st0" d="M1235.7,482.3c-1.5-1.4-0.6-6.6,1.8-10.1c2.8-4.1,3.2-8.7,1-11.9c-1.4-1.9-1.3-2.1,1.5-2.7
			c1.8-0.3,3-1.2,3-2.1c0-1.6-1.5-2-2.4-0.6c-1.1,1.6-7.1,1.8-12.1,0.4c-6.2-1.9-7.5-2.9-7.5-6c0-6.2,3.9-8.5,14.4-8.7
			c5.8-0.1,7.1-0.5,8.7-2.5c1.5-1.8,2.5-2.1,4.8-1.6s3,0.3,3.3-1.1c0.3-1.5,0.7-1.4,3.2,0.9c1.6,1.5,3.5,2.7,4.1,2.7
			c0.7,0,1.3,1,1.4,2.3c0.3,8.6,0.8,13.5,1.6,14.7c0.7,1.3,0.6,1.3-0.7,0.2c-1.3-1-1.8-0.8-3.2,1.2c-0.9,1.4-1.6,3-1.6,3.5
			c0,0.6-1.1,0.6-3,0.1c-8.6-2.5-13.3,3.7-9.5,12.7c0.8,1.9,1.5,4.2,1.5,4.9c0,2.7-1.8,1.4-3.3-2.3l-1.6-3.8v3.2
			c-0.1,1.7,0.4,3.5,0.9,3.8c0.6,0.3,1,1.3,1,2.1C1243,483,1237,483.7,1235.7,482.3L1235.7,482.3z M1241.5,448.9
			c1.1-1.6-0.4-5.9-2-5.9c-1,0-1.5,1-1.5,2.8C1238,449.7,1240,451.4,1241.5,448.9z"/>
	</g>
</g>
</svg>
