<?xml version="1.0" encoding="utf-8"?>
<!DOCTYPE svg PUBLIC "-//W3C//DTD SVG 20010904//EN" "http://www.w3.org/TR/2001/REC-SVG-20010904/DTD/svg10.dtd">
<svg version="1.0" xmlns="http://www.w3.org/2000/svg" width="600px" height="600px" viewBox="0 0 600 600" preserveAspectRatio="xMidYMid meet">
 <g fill="#000000">
  <path d="M109.8 586.4 c-1 -0.3 -1.8 -1.4 -1.8 -2.5 0 -2.3 3.4 -4.6 8.1 -5.5 1.8 -0.4 4.3 -1.3 5.4 -2.1 1.1 -0.7 4 -1.3 6.5 -1.3 2.5 0 7.2 -1 10.5 -2.1 7.1 -2.4 22.7 -4.9 30.6 -4.9 l5.6 0 0.6 -14.7 c1 -22.9 3.4 -34.6 12.4 -58.8 14.8 -40.2 35.7 -71.2 58.2 -86.4 21.9 -14.9 35.3 -14.5 46 1.3 6.3 9.3 7.1 12.9 7.3 31.8 0.1 9.5 -0.2 18.3 -0.6 19.6 -1.5 4.7 2.1 2 7.9 -5.9 11.1 -15 11.2 -15.2 6 -17.3 -2.3 -1 -4 -2.6 -4.9 -4.8 -2.7 -6.3 -4.9 -19.3 -5 -28.9 -0.1 -8.2 0.3 -10.3 2.4 -14.9 1.8 -3.7 2.1 -5.5 1.3 -5.7 -3.1 -1.1 -7.8 -5.1 -9.4 -8.3 -3.3 -6 -2 -16.4 2.7 -22.5 3 -3.9 3 -4.8 0.2 -6.5 -1.3 -0.7 -3.9 -3 -5.8 -5.2 -3.1 -3.6 -3.5 -4.8 -3.8 -10.8 -0.3 -5.6 0 -7.5 1.7 -10.7 l2.2 -3.9 -2.5 -5.4 c-1.4 -3 -3.8 -10 -5.3 -15.6 l-2.8 -10.3 -6.5 -2.5 c-8.8 -3.5 -47 -22.8 -52.9 -26.8 -7.9 -5.4 -20.2 -18.7 -25.4 -27.6 -6.2 -10.5 -12.2 -25 -13.8 -33 -2.6 -13.5 1.1 -39.7 7.5 -53.7 2.4 -5.3 7 -12.8 16.9 -28 5.1 -7.7 19 -21.8 29.2 -29.6 11.6 -8.9 32.1 -19.5 47.4 -24.6 9.8 -3.3 12 -3.6 28.1 -4.4 9.6 -0.4 24.6 -1.7 33.3 -2.8 14.7 -1.9 16.3 -2.3 23 -5.9 4 -2.2 9.9 -4.7 13.2 -5.7 3.3 -0.9 6.6 -2.1 7.2 -2.7 4 -3.3 -6.3 -3.8 -15.9 -0.8 -7.7 2.4 -7.8 2.4 -7.8 0.2 0 -4.5 6.6 -8.5 16.4 -10.3 8 -1.3 13.4 -0.8 19.6 2 5.6 2.6 9.3 2.6 14.8 0.1 3.2 -1.5 4.2 -2.4 4.2 -4.3 0 -3.3 -3.4 -7.3 -8 -9.7 -4.5 -2.3 -5.7 -4.6 -3 -6 3.1 -1.6 7.7 1 15 8.4 l6.5 6.6 17 -0.1 c24.1 -0.2 33 1.6 50.1 10.2 16.9 8.5 35.1 25.2 46.7 42.7 6.8 10.2 18.1 33.5 21.6 44.5 3.2 10 10.4 44.2 11.6 55.2 0.3 3.3 2.4 12.2 4.6 19.8 8.4 29.6 10.1 66.1 3.9 85.9 -6.8 21.9 -40.3 50.7 -59.1 50.8 l-4.6 0 -2.3 6.2 c-3.2 8.9 -7.2 15 -17.6 26.8 -16.6 18.9 -27.2 27.7 -36.8 30.5 -3.5 1.1 -4.1 1.7 -5.6 6.2 -1.7 5.2 -6.8 12.9 -11.4 17.2 -1.4 1.4 -2.6 2.9 -2.6 3.4 0 0.5 1.5 2.7 3.4 4.8 2 2.1 3.8 5.4 4.2 7.4 1.2 6.7 -6.9 19.4 -13.9 21.8 -0.9 0.3 -0.8 3.3 0.5 12.3 1 6.5 2.7 20.9 3.8 31.9 3.5 34.5 5 45.9 6.3 47.3 1 1.2 7.4 1.4 42.6 1 l41.5 -0.5 7.1 6.4 c13.4 12.1 11.2 10.9 16.9 8.8 10 -3.5 35.6 -2.9 34.3 0.8 -0.2 0.7 -3.1 1.5 -6.4 1.9 -3.3 0.3 -8.6 1.7 -11.9 3.1 -3.6 1.5 -9 2.7 -13.7 3.1 -4.7 0.3 -8.8 1.2 -10.4 2.3 -2.9 1.9 -7.8 2.4 -42.8 4.2 -12.1 0.7 -36.6 2.1 -54.5 3.2 -17.9 1.1 -43.4 2.1 -56.7 2.3 -13.3 0.3 -24.6 0.6 -25 0.9 -0.5 0.3 -23.5 0.8 -51.3 1.1 l-50.3 0.6 -6.3 -6.5 -6.2 -6.5 -13.2 0 c-11.3 0 -14.2 0.3 -20.5 2.5 -8 2.7 -13.4 2.7 -34.2 0.4 l-10.3 -1.2 -3.9 2.8 c-4.6 3.1 -5.5 3.2 -17.8 1.6 -7.8 -1 -10.6 -1 -18.4 0.4 -5.1 0.8 -11.3 2.5 -13.8 3.6 -4.5 2.1 -13.9 3.3 -17.3 2.3z m281.2 -11.4 c30.3 -1 36.2 -2 41.2 -7 2.5 -2.6 2.8 -3.5 2.8 -9.5 0 -3.6 0.5 -9.8 1.2 -13.8 0.9 -5.5 0.9 -11.5 -0.1 -26.7 -1.8 -29.6 -1.6 -28.7 -5.9 -29.5 -2 -0.4 -4.8 -1.3 -6.2 -2 -5.1 -2.6 -5.8 -4.3 -6.7 -16.5 l-0.8 -11.5 -8.5 0.4 c-4.7 0.1 -8.8 0.6 -9.2 1 -1.8 1.7 -7.8 40.3 -7.8 50.5 l0 3.8 6.3 -0.4 c4.9 -0.4 7.5 -1.2 12.5 -4.2 7 -4.2 12.2 -5 14.9 -2.4 2.3 2.4 1.3 3.9 -5.3 7.9 -3.3 2 -8.1 5 -10.9 6.7 -3.5 2.2 -6.8 3.3 -11 3.8 -4.6 0.5 -6.7 1.3 -9 3.4 -5.7 5.3 -12.2 5.1 -15.6 -0.3 -2.7 -4.5 -2.4 -7.8 1 -11.2 4 -3.7 7.7 -14.5 9.6 -27.4 0.9 -5.7 2.3 -13.6 3.3 -17.5 2 -8.5 2.3 -31.9 0.4 -38.1 -1.9 -6.4 -7.3 -13.7 -11.9 -16.3 -6 -3.3 -14 -4 -20 -1.7 -5.5 2.1 -15.3 10.9 -15.3 13.7 0 3.1 7.6 10.4 13.5 12.9 4.7 2 5.5 2.8 5.5 5.1 0 3.6 -1 5.8 -2.6 5.8 -0.8 0 -6.2 -3.3 -12.1 -7.3 -11.4 -7.7 -13.1 -8.1 -17.1 -4.4 -3 2.8 -8.2 11 -8.2 12.9 0 1.8 6.6 8 10.9 10.3 3.2 1.6 5.1 5.9 3.4 7.6 -0.5 0.5 -3.6 1.2 -6.9 1.5 -5.4 0.6 -6.2 0.4 -9.1 -2 -5.3 -4.5 -7.4 -3.7 -13.1 5.2 -6.8 10.6 -12.3 21.8 -16.7 34.2 -2.1 5.8 -6.3 16.4 -9.3 23.5 -5.2 12.2 -5.6 13.5 -5.6 21.5 -0.1 10.5 1.4 14.5 5.9 16 7.4 2.5 67.2 3.5 112.5 2z m136.1 -4.8 c7.2 -1.1 11.4 -2.1 11.4 -2.9 0 -1.5 -7.6 -9.8 -10.4 -11.2 -1.6 -0.9 -4.2 -0.9 -9.9 -0.1 -4.2 0.5 -20.4 1.2 -35.9 1.3 -15.6 0.2 -28.6 0.6 -28.9 1 -0.3 0.3 0.3 2.6 1.5 5 1.1 2.4 2.1 4.8 2.1 5.5 0 3.2 6.1 3.8 35.6 3.4 14.4 -0.3 27.3 -1 34.5 -2z m-298.8 -3.7 c3.5 -0.9 10.3 -1.5 17.2 -1.5 14.4 0 14.7 -0.2 16.3 -12.5 0.8 -5.9 2.1 -10.8 4.1 -14.9 10.1 -20.6 19.9 -54 22.2 -75.4 1.3 -11.6 0.6 -36.2 -1.1 -42.4 -2.2 -7.6 -12.5 -12.1 -22.8 -9.9 -8.1 1.7 -11.7 3.6 -14.8 7.6 -2.6 3.5 -2.7 3.9 -1.3 6.3 1.7 3.1 7.7 6.8 13.6 8.3 6 1.6 6.9 3 3.7 6 -3.8 3.6 -10.3 3.1 -20.3 -1.6 l-7.9 -3.7 -3.7 2.7 c-6.4 5 -7 8.1 -2.5 14.3 3.1 4.3 11.4 9.8 16.2 10.9 4.5 0.9 5.5 2.9 2.8 5.8 -3.8 4 -10.5 3.5 -19.6 -1.5 -11.2 -6.1 -11.1 -6.1 -18.5 8.2 -7.5 14.9 -14.8 34.6 -19.5 52.8 -2.8 10.7 -3.6 16.3 -4.1 26.7 l-0.6 13.3 2.4 0.9 c4 1.6 31.7 1.3 38.2 -0.4z m180.2 -118.4 c2.2 -1 5.3 -3.3 6.9 -5 3.8 -4 5.9 -3.9 8.5 0.3 3.5 5.7 8.6 6.2 14.9 1.6 3.8 -2.7 4.2 -3.4 4.2 -7.2 0 -5 -3.3 -12.3 -6.6 -14.5 -3.7 -2.4 -2.9 -4.2 2.2 -5.5 5.3 -1.4 10.9 -7 11.9 -11.9 1.6 -7.2 -2.4 -14.9 -7.7 -14.9 -1 0 -3.4 -0.6 -5.3 -1.4 -4 -1.7 -3.9 -3.9 0.5 -8.1 2.8 -2.6 2.8 -2.7 1.5 -8.2 -2.8 -12 -6.7 -13.7 -29.7 -12.8 -18.7 0.7 -25.7 -0.3 -34.8 -5.1 -6.8 -3.6 -13 -8.6 -13 -10.4 0 -0.6 2 -2 4.5 -3.1 5.6 -2.5 6.5 -4.2 6.5 -12.2 0 -5.6 -0.4 -7.1 -3.2 -11.3 -4.4 -6.5 -9.5 -9.1 -14.8 -7.5 -5.3 1.6 -7.6 4.8 -8.3 11.9 -0.9 8.2 -1.4 9.2 -4.9 9.2 -2.2 0 -4.4 -1.3 -8.1 -4.6 -11.8 -10.6 -23.3 -12 -31.4 -3.9 -5.9 5.9 -3.6 13.7 5.7 19.4 2.8 1.7 5 3.7 5 4.6 0 0.8 -1.5 2.9 -3.4 4.6 -4.8 4.3 -7 9.2 -6.1 13.7 1.5 8.5 5 9.9 14.7 6.1 7 -2.7 9.8 -1.6 9.8 3.8 0 2.1 -0.7 4.7 -1.5 5.7 -2.2 3 -1.9 8.2 0.7 10.6 2.4 2.2 9.5 2.8 12.8 1 1.1 -0.6 3.8 -3.7 6 -7 4.4 -6.5 6.6 -7.4 10.1 -4.1 3.4 3.1 12.6 5.3 24.9 5.8 13 0.5 15.8 -0.4 17.3 -5.2 3.2 -10.1 19.8 -17.2 27 -11.5 3 2.4 6.7 11.5 6.7 16.6 0 6.3 -4.3 12 -9.8 13 -2.9 0.6 -3.9 0.3 -5.4 -1.5 -1.6 -2.1 -1.6 -2.5 -0.2 -5.9 3.8 -8.9 4.1 -17.3 0.7 -18.6 -3.4 -1.3 -8.5 2.7 -12.1 9.4 -1.9 3.6 -4.1 7.3 -5 8.3 -3.4 3.9 -18.4 6 -29.2 4.2 -2.5 -0.4 -7.6 -2.3 -11.4 -4.2 -3.8 -1.9 -7.2 -3.1 -7.5 -2.6 -0.4 0.4 -1.9 2.4 -3.4 4.4 -3.9 5.5 -10.5 8.3 -17.1 7.5 -2.9 -0.4 -6.7 -1.6 -8.5 -2.7 -3.2 -1.9 -6.1 -7.1 -6.1 -10.9 0 -1.1 -0.4 -2 -0.8 -2 -1.4 0 -4.2 6.9 -4.2 10.4 0 5.7 2.8 18.6 5.1 23.2 1.8 3.7 2.5 4.4 5.1 4.4 4.2 0 11.1 -4.4 20 -12.6 6.8 -6.3 8.4 -7.4 13.4 -8.4 7.6 -1.6 12.9 -0.6 20.3 3.7 8.3 5 14.3 10.9 17.4 17.4 2.3 4.6 2.7 6.9 2.8 14.7 0.1 7.4 0.5 9.4 1.8 10.2 2.5 1.5 6.2 1.1 10.6 -0.9z m60.5 -63.6 c9.9 -6 28 -24.1 35.8 -36 9.9 -15 12.4 -21.7 13 -34.6 0.4 -9.5 0.2 -11.5 -2.3 -19 -8.8 -27.3 -29.8 -44.1 -59 -47 -8.6 -0.9 -12.9 -0.9 -17.1 0 -3.2 0.6 -7.5 1.1 -9.6 1.1 -3.4 0 -3.8 -0.3 -3.8 -2.5 0 -4.5 -6 -18.3 -10.6 -24.5 -5.2 -6.8 -13 -13.4 -19.2 -16.2 -5.9 -2.7 -18 -4.8 -27.3 -4.8 -8.5 0 -25.3 2.9 -31.2 5.4 -6.3 2.6 -18.5 11.6 -22.8 16.8 -15.5 18.4 -24.5 50.4 -19.5 69.1 2.3 8.6 6.7 20.7 7.5 20.7 0.3 0 2.4 -0.7 4.6 -1.5 6.3 -2.2 12.2 -1.8 20 1.5 3.8 1.7 7.5 3 8.1 3 0.7 0 4.4 -2.9 8.3 -6.4 3.8 -3.6 8.3 -7.2 10 -8 6 -3.2 14.2 -1.3 16.8 3.8 0.8 1.7 3.5 5.2 5.9 7.8 7.3 7.8 8.2 13.2 3.7 22.3 -2.6 5.2 -2.7 5.8 -1.3 8.3 0.9 1.7 4.1 4 8.4 6.2 8.2 4.1 15.5 4.9 26.7 2.9 4.1 -0.8 10.4 -1.4 14.1 -1.4 5.9 0 7 0.3 10.5 3.1 2.1 1.7 5.1 5 6.8 7.3 2.8 3.9 2.9 4.6 3 14.7 0 12.2 0.3 12.7 8.5 12.1 4.3 -0.2 7 -1.2 12 -4.2z m71.2 -68.3 c19.7 -9.2 31.7 -22.9 36.1 -41.2 2.6 -10.4 4 -31.1 3.3 -46 -0.8 -15.3 -2.3 -24 -6.6 -39 -1.7 -5.8 -4 -15.7 -5.1 -22 -2 -11.3 -10 -43.2 -14.1 -56 -3 -9.5 -9.9 -23.6 -14.9 -30.7 -8 -11.3 -19.1 -23.2 -25.8 -27.7 -9 -5.9 -21.5 -12.1 -27.6 -13.4 -15.8 -3.6 -40.5 -4.8 -40.5 -2.1 0 0.5 0.9 3.1 2 5.9 2.2 5.7 2.6 13.6 0.8 17.5 -2.4 5.3 -5.3 1.5 -6.1 -8.1 -0.5 -6.3 -4.2 -14.1 -8 -16.8 -2.7 -2 -2.9 -2 -11.3 -0.3 -4.7 1 -12 3.1 -16.2 4.8 -7.3 2.9 -24 12.1 -32.7 17.9 -3.9 2.7 -4.5 2.7 -22.5 3.3 -50.3 1.6 -62.4 4.3 -87.2 19.3 -33.2 20.1 -43.3 30.3 -56.2 56.8 -6.9 14.1 -9.1 21.6 -10.6 36.6 -1.5 15.6 -0.3 21.5 7.6 38.6 6.5 13.9 7.4 15.4 14.9 22.9 6.9 6.9 21.7 17.5 24.4 17.5 0.5 0 0.2 -1.9 -0.7 -4.2 -0.9 -2.6 -1.6 -7.9 -1.6 -13.5 -0.1 -7.8 0.2 -9.5 2 -12 3.9 -5.2 5 -4.3 5.7 4.6 0.4 5.6 1.7 10.7 4.1 16.9 6.4 16.6 6.4 16.7 17.8 22.3 5.6 2.7 10.9 4.9 11.8 4.9 1.4 0 1.8 -1.4 2.3 -8.4 1.2 -17.4 11.3 -40.7 22.5 -52.2 18.2 -18.6 49.8 -28.2 76.8 -23.3 13.4 2.4 28.1 12.7 37.9 26.4 5.1 7.1 9.5 16 9.5 19.2 0 2.8 2.7 3.7 11 3.6 10.2 -0.2 15.2 -2.9 19.1 -10.5 2.7 -5.3 7.1 -24.7 6.4 -28.3 l-0.5 -3 2.6 2.6 c6.6 6.6 4.5 24 -4.3 35.7 -1.4 1.8 -2.3 3.5 -2.1 3.8 0.9 0.8 10.3 2.6 16.2 3.1 6.9 0.6 8.6 -0.7 8.6 -6.4 0 -8.5 8.5 -23.7 26.3 -47 3.1 -4.1 5.9 -5.4 7.2 -3.2 1.2 1.9 -0.4 5.5 -6.5 14.9 -8.4 12.6 -15 25.2 -15 28.2 0 1.3 -1.1 5.2 -2.4 8.5 -2.9 7.1 -3.2 12.3 -0.6 12.3 2.3 0 4.3 -5.1 6.6 -16.4 1.6 -8.3 2.3 -9.8 9.8 -21 4.5 -6.7 11.5 -17.2 15.6 -23.5 11.7 -17.9 11.9 -18.1 15.3 -20.1 3.9 -2.4 8.8 -3.4 12.3 -2.6 3.1 0.8 5.2 5.2 9.6 19.9 1.6 5.6 3.4 10.6 3.9 11.2 0.5 0.5 0.9 5 0.9 10 0 4.9 0.7 15.3 1.6 22.9 2.6 21.8 0.2 39.9 -7.6 56.1 -6.8 14.2 -13.6 20 -29.5 25.1 -7.1 2.2 -8.6 4 -7.1 8 0.8 2 1.6 1.8 10.8 -2.4z"/>
  <path d="M281.7 184 c-4.8 -0.9 -8.3 -3.5 -12.2 -8.9 -2.7 -3.8 -3 -5 -2.9 -11.5 0 -9.6 3.2 -15.3 10.7 -19.6 17.3 -9.9 45.9 1 51.3 19.6 1.6 5.5 1.4 7.2 -1.3 13.5 -2.5 6 -4.3 6.4 -30.8 7.2 -6 0.2 -12.7 0 -14.8 -0.3z"/>
  <path d="M461.5 115.2 c-2.2 -1 -6.9 -3.2 -10.5 -4.9 -3.6 -1.8 -10.9 -4.4 -16.3 -5.8 -9.4 -2.4 -14.7 -4.8 -14.7 -6.5 0 -0.5 0.8 -1.6 1.7 -2.6 1.4 -1.4 2.9 -1.6 8.5 -1.1 7.4 0.6 12.4 2.5 24.3 9.4 9.3 5.4 13.5 8.9 13.5 11.5 0 2.2 -1.3 2.2 -6.5 0z"/>
  <path d="M365.5 92.5 c-7.1 -1.4 -9.4 -2.5 -9.5 -4.7 0 -1.5 4.6 -3.6 9.2 -4.2 6.2 -0.7 28.3 1 33.3 2.6 4.9 1.6 5.8 4.4 1.8 5.9 -4.7 1.8 -25.8 2 -34.8 0.4z"/>
  <path d="M98.5 532.5 c-15.2 -7.5 -51.3 -42.9 -70.9 -69.5 -13.3 -18 -21.6 -42.2 -21.6 -63 0 -18.6 9.2 -34.3 25.9 -44.4 9.9 -6 15.5 -7.6 27.5 -7.6 9.1 0 11.6 0.4 19.2 3.1 10.4 3.7 14.3 6 20.9 12.7 l4.9 5.1 5.1 -4.7 c16.5 -15.4 48.4 -19.9 69.9 -9.7 10.3 4.9 22.6 21.4 27 36.4 2 6.7 2 20.8 0.2 31.1 -5.6 30.9 -29.9 60.3 -80.6 98.1 -19.7 14.7 -21.3 15.4 -27.5 12.4z m25 -28.4 c14.7 -11.4 39 -35.3 48.2 -47.6 12.3 -16.3 19.4 -33.7 20.1 -49.7 0.4 -9.2 0.3 -10.1 -2.6 -16.2 -1.7 -3.6 -5.2 -8.8 -7.9 -11.7 -8 -8.6 -16.2 -12.4 -30.2 -14 -9.6 -1.1 -17 -0.1 -23.9 3.3 -5.6 2.7 -17.5 13.8 -19.2 17.8 -1.5 3.7 -2.2 3.6 -5.2 -1 -3.2 -4.7 -13 -12.5 -20.3 -16 -7.3 -3.6 -22.7 -6.4 -30.4 -5.7 -7.5 0.8 -17.2 5.8 -21.5 11.1 -6.4 7.7 -9 14.8 -9.4 26.1 -1 22.9 6.3 40.6 26.7 64.5 17.1 20.2 40.2 42.8 51.2 50.2 l3.9 2.6 4.8 -2.6 c2.6 -1.4 9.7 -6.4 15.7 -11.1z"/>
  <path d="M99.3 343.4 c-7.3 -3.6 -24.5 -20.4 -37.9 -36.9 -10 -12.3 -19.1 -28.3 -22.5 -39.4 -1.8 -6 -2.1 -8.9 -1.6 -16 1.4 -24.2 15.4 -37.1 38.6 -35.9 10.9 0.7 18.7 3.6 25.3 9.7 l5 4.6 4.5 -4.2 c12.2 -11.4 27.4 -12.7 45.8 -3.9 8.3 3.9 13.1 8.4 16.8 15.9 4 7.9 5.1 16.2 3.3 25.6 -4 21 -14.1 36 -37.5 55.5 -11.8 9.8 -32.6 25.1 -35.6 26.2 -0.5 0.2 -2.5 -0.4 -4.2 -1.2z m9.9 -15.1 c1.9 -1.6 10.9 -9.5 20 -17.6 24.6 -22 29.9 -28.9 33.9 -44.5 2.2 -8.7 2.3 -11.2 0.8 -20.1 -1 -5.5 -1.8 -7.2 -5.6 -11.2 -2.7 -2.9 -6.4 -5.5 -9.1 -6.6 -6.6 -2.5 -17.9 -2.2 -25.6 0.7 -5.6 2.2 -7.7 3.9 -16.1 13.5 -3.3 3.9 -3.4 3.9 -3.5 1.5 0 -5.9 -13.3 -14.6 -25.9 -17 -9.3 -1.7 -14.5 -0.5 -21.1 5 -5.7 4.8 -8 9.9 -8.7 19.5 -1.3 16.5 7.7 34.6 26.1 53 13.4 13.3 28.4 26.5 30.1 26.5 0.7 0 2.8 -1.2 4.7 -2.7z"/>
 </g>
 <g fill="#ffffff">
 </g>
</svg>