<?xml version="1.0" encoding="utf-8"?>
<!-- Generator: Adobe Illustrator 25.0.1, SVG Export Plug-In . SVG Version: 6.00 Build 0)  -->
<svg version="1.1" id="Layer_1" xmlns="http://www.w3.org/2000/svg" xmlns:xlink="http://www.w3.org/1999/xlink" x="0px" y="0px"
	 viewBox="0 0 788 1013" style="enable-background:new 0 0 788 1013;" xml:space="preserve">
<style type="text/css">
	.st0{fill:#FFFFFF;}
</style>
<g>
	<g>
		<path d="M440.5,1012c-48.9-1.1-87.7-2.9-99.5-4.6c-53.4-7.6-82-22.1-82-41.5c0.1-21.5,38.9-46.3,90.3-57.8l12.1-2.7l1.3-6.9
			c4.6-24.7,8.9-45.1,12.3-59c2.1-8.8,3.5-16.3,3.2-16.6c-0.4-0.3-3.7-1.4-7.5-2.4c-8.9-2.3-26.5-11.1-35.2-17.7
			c-8.7-6.5-22.7-20.5-28-28c-2.2-3.2-4.3-5.7-4.6-5.8c-0.3,0-7.1,4.1-15,9c-26.2,16.4-58.2,31-74.9,34c-10.2,1.8-22.3,1.4-27.7-1
			c-2.6-1.1-5.6-2.8-6.6-3.8c-3-2.7-5.7-8.8-5.9-13.2c-0.3-8.4,7.1-12.4,45.3-23.9c30.2-9.2,42.3-13.2,56.4-18.9
			c15-6,23.5-10.1,24-11.5c0.2-0.7,0.9-7.5,1.5-15.1c2.6-33.7,8.8-53.2,31.8-101.1c6.5-13.7,13.6-29.4,15.6-34.7
			c4.4-11.8,8.4-27.8,9.3-37.2c0.6-6.3,0.5-6.9-1.1-6.3c-2,0.8-9-3.3-10.6-6.2c-1.5-2.9-1.2-8.7,0.5-10.5c0.9-0.9,4.3-2.8,7.5-4.3
			c5.7-2.6,6-2.9,6.6-7.1c0.9-6.1-0.2-16.7-2.6-24.3c-3-9.7-8.6-18.5-17.5-27.4c-12-12.1-28.7-22.4-52-32
			c-10.5-4.4-40.9-14.5-43.4-14.5c-1.3,0-2.8,2.1-5.2,7.8c-7.3,16.8-21.8,34.1-35.7,42.6c-41.4,25.2-98.1,7.1-133.4-42.5
			c-13.2-18.5-24.9-46-29.9-70.4c-1.2-6-2.5-11.4-2.9-11.8c-0.4-0.5-2.9,0.2-5.6,1.5l-4.9,2.3L27,354c0.8,9.1,0.4,19.5-1,24.4
			c-2.9,10.6-10.8,13.8-17.4,7.2c-4.9-5-7.1-12.1-7.1-23.3v-9.2l6.5-6.7c5.3-5.4,8.4-7.5,16.6-11.5l10.2-4.8l0.7-8.3
			c3.7-44.7,16.7-82.8,39-114.3c2.8-3.9,4.5-7.6,5-10.5c9.2-61.2,26.4-103.7,53-130.5c12.7-12.9,27-22,57.1-36.7
			C219.2,15.4,242.1,9.5,268,9.6c29.6,0.2,58.8,8.3,102.4,28.5c9.3,4.4,17.3,7.9,17.7,7.9c0.3,0,1.7-4.4,2.9-9.8
			c4.2-18.2,9.6-29.3,16.6-34.1c4.2-2.9,7-2.3,12.3,2.4c6.7,6.1,12.9,19.9,18.1,40.5c1.7,6.3,3,12.2,3,13.1c0,2.5,2.4,3.1,15.5,3.6
			c8.9,0.4,16.7-0.1,30.5-1.8c24.4-3,76.9-3.3,97-0.5c64.6,8.8,102,32.7,124.8,79.7c3.1,6.5,6.1,11.8,6.5,11.9
			c0.5,0,2.8-1.6,5.1-3.5c7.3-6,15-8.9,24.3-9.3c7.6-0.4,8.8-0.1,14.8,2.7c12.5,5.8,22.7,19.8,26,35.6c1.8,8.5,1.9,12.7,0.4,19.7
			c-2.5,11.8-9.9,20.7-20.8,24.9c-4.4,1.8-8.1,2.3-17.6,2.5l-12,0.3l-0.7,3.3c-0.4,1.8-1.4,7.8-2.4,13.3
			c-6.6,39.7-28.1,71.9-66.2,99.2c-15.1,10.9-34.6,21.8-73.7,41.5c-54.8,27.6-69.6,35.9-93,52.7c-21.8,15.5-31.5,27.9-31.5,40
			c0,8.1,3.2,14,8.5,15.8c7.8,2.6,13.1,9.9,12.2,16.7l-0.6,4l13.2,13.6c45.7,46.7,73.3,94.7,81.9,142c2.8,15.3,3,40.4,0.5,54
			c-4.9,26.2-16.6,49.7-35.5,70.8l-6.5,7.3l2.7,35.2c1.5,19.4,2.9,35.7,3.1,36.3c0.2,0.7,5.3,1.3,13.2,1.7
			c14.2,0.7,45.5,4.7,60.5,7.7c45.4,9.3,82,36.3,83.6,61.7c0.6,9.1-1.2,14.5-6.9,20.7c-8.5,9.3-24.1,15-44.4,16.3l-10,0.6l-6,5.3
			c-6.5,5.8-15,10.8-20.4,11.9c-1.9,0.4-5.9,2.7-9,5c-11.4,8.8-18.1,10-62.1,10.9C488.2,1012.7,472.5,1012.7,440.5,1012L440.5,1012z
			 M519.9,994.9c5.2-0.5,10-1.4,10.8-2c3.3-2.8-0.5-12.5-8.8-22.8c-3.6-4.4-4.9-6.8-4.9-9.2v-3.2l5.4,0.6c13.1,1.3,19.7,8.7,25,27.8
			c1.4,4.9,2.1,5.9,5.3,7.4c5.1,2.4,15.3,2.2,26.4-0.5c11.5-2.9,15.3-5.3,15.7-10.2c0.6-6.8-7.5-18.9-20.3-30.4
			c-6.5-5.8-7.5-7.2-7.5-10.1c0-3.1,0.2-3.3,3.4-3.3c1.9,0,6.3,0.9,9.9,2c12.3,3.8,22,15.4,27.7,33c2.7,8.3,3.6,10.1,5.5,10.6
			c3.4,0.9,10.8-2.8,15.9-7.9c4.7-4.7,10.6-15.1,10.6-18.7c0-3.5-4.7-11.5-9.5-16.3c-6.5-6.5-14-10.7-30.2-17.1
			c-24.5-9.6-42.6-13.8-75.5-17.6c-14.1-1.6-45.7-3.9-55-4c-1.5,0-1.8-1-1.8-6.2c0-3.5-0.7-16.4-1.5-28.8
			c-0.9-12.4-1.5-27.9-1.3-34.5l0.3-12l5.9-0.3c5.9-0.3,8.5,0.8,10.6,4.9c1.4,2.6,3.2,22.1,3.9,42.8l0.6,19.6l5,0.3
			c97.1,5,145.4,19.2,159.4,47.1c2.2,4.2,3.6,9.1,4.5,15.3c1.6,10.3,3.3,12.8,9,12.8c12.1,0,26.6-10.7,26.6-19.7
			c0-10-15.7-26-35-35.8c-7.3-3.7-26.5-11-35.6-13.5c-17.6-4.8-46.8-8.9-76.2-10.6c-10.4-0.7-11.3-0.9-11.6-2.8
			c-0.2-1.2-1.4-14.9-2.6-30.6c-1.1-15.7-2.5-33.4-3-39.5c-0.6-6-1-13.7-1-17v-6.1l6.6-6.4c27.2-26.7,40.9-62,37.3-95.7
			c-2.2-20.6-8-39.1-20-63.3c-14.5-29.3-34.9-57.9-65.6-92l-9.4-10.6l-10.7,1.3c-24.1,2.8-31.5,4.3-40.1,7.9
			c-15.4,6.3-19.3,7.5-31.2,9.4c-15.7,2.6-16.6,3-17.4,7.7c-4.5,27.1-9.6,41.5-30,84.8c-7,14.9-14,30.3-15.6,34.4
			c-11,27.6-16.1,48.8-16.3,68.1c-0.1,11.9,0.1,12.9,3,19.5c10.6,24.5,34.5,44.3,69.7,57.5c8.6,3.3,8.7,3.4,8.7,6.8
			c0,1.8-2.7,14.2-5.9,27.5c-3.3,13.3-8.3,33.9-11.1,45.7c-2.9,11.8-5.7,22-6.4,22.6c-0.6,0.7-6.3,2.8-12.6,4.9
			c-43.9,14.3-72.1,29.3-79.7,42.2c-2.3,3.9-2.4,4.7-1.3,6.9c7.1,13.1,56.8,23.4,132.5,27.4C447.4,997,500.5,996.9,519.9,994.9
			L519.9,994.9z M220.9,800.8c13.8-4.2,45.1-19,65.3-30.8l8.6-5l-0.5-6.3c-0.3-3.4-0.7-6.3-0.8-6.5c-0.2-0.2-5.7,1.9-12.3,4.7
			c-41.1,17.2-65.3,25.9-78.9,28.5c-8.3,1.6-14.9,4.2-17.1,6.9c-0.9,1.1-0.6,1.9,1.6,3.9C195,803.9,206,805.4,220.9,800.8
			L220.9,800.8z M403.2,505c19.4-6.6,21-7,35.7-8.4c8.4-0.8,15.7-1.8,16.2-2.3s0.1-3.1-0.8-5.8c-2.6-8-2.2-24.5,0.7-32
			c2.9-7.5,7.3-14.3,14.6-22.3l5.6-6.3l-6.8,0.8c-3.8,0.4-11.4,0.8-16.9,0.7c-11.1-0.1-16.8-1.5-27.5-7c-3.6-1.8-10-4.3-14.3-5.4
			c-9.6-2.5-11.9-4-15.2-9.5c-1.4-2.4-5.1-6.4-8.3-8.9c-7.8-6-11.8-10.4-13.6-14.8c-2.2-5.2-2.1-19,0.3-28.6
			c1-4.2,2.4-10.3,3.1-13.5c0.9-4.4,2.1-6.7,4.9-9.7c3.6-3.8,4.1-4,9.9-4c5.4,0,6.5,0.4,9.7,3.1c2,1.8,4.8,5.3,6.2,7.8
			c4.4,7.7,5.9,8.8,14.2,10.6l7.6,1.7L441,364c7.2,7.4,13.6,13.1,15.1,13.5c1.7,0.4,4-0.1,6.7-1.5c3.8-2,5.4-2.2,16.5-1.8
			c10.8,0.3,13,0.7,19.8,3.5c7.9,3.2,18.9,9.6,25.1,14.4l3.6,2.9l8.2-2.9c26.1-9.6,64.1-27.7,83.8-40.1c23.9-15,50.6-37.7,64.6-54.9
			c14.3-17.6,24.2-36.5,29.7-56.6c3.4-12.2,3.1-33.7-0.6-50c-6.4-28.4-19.4-51.6-40-72c-12.3-12.1-25-21-42.5-29.8
			c-38.9-19.6-73.6-24.2-126.5-16.9c-18.4,2.6-26.3,3.2-39.8,3.2h-16.9l0.6,4.3c3.3,23.8,3.8,63.7,1.1,83.7
			c-2.9,20.8-8,34.2-15.2,39.7c-5.3,4.1-13.7,4.4-19.7,0.9c-12.1-7.1-24.8-31.7-29.1-56.4c-0.8-4.7-1.6-8.6-1.8-8.8
			c-0.1-0.1-9.4,6.6-20.7,14.8c-44.7,32.6-96.9,68.3-132.7,90.7c-10.1,6.3-18.3,11.8-18.3,12.2s2.9,5.6,6.5,11.5
			c13.9,23,24.7,47.8,30.3,69.3c2.6,10.1,2.7,11.8,2.7,33.1c-0.1,20.1-0.3,23.2-2.2,28.8c-1.1,3.4-1.8,6.4-1.4,6.6
			c0.3,0.3,14.1,4.8,30.6,10.1c48,15.5,64.4,23.5,79.6,38.5c6.9,6.8,9.4,10.2,12.7,17c5,10,8,21.2,8.9,32.7c0.4,5.7,1,8.3,1.9,8.3
			C382.3,512,392,508.9,403.2,505L403.2,505z M180.9,454.7c30.1-10.5,49.2-46.2,49.5-92.2c0-13.5-0.1-14.4-3.7-26
			c-10.4-32.7-27.8-68.2-54.3-110.3c-6.3-10-8.4-14.2-8.4-16.8c0-3.2,0.2-3.4,3.6-3.4c6.3,0,17,7.9,25.5,18.8c2.9,3.7,5.6,7.1,6,7.6
			s12.6-7,27.1-16.6c52.5-35,97.3-68.3,142.6-106L383,97.9V83.1c0-8.2,0.3-16.2,0.6-17.8l0.6-3l-10.8-3.7
			c-5.9-2.1-20.2-7.8-31.8-12.8c-39.9-17.1-48.3-19.6-67.6-20.5c-19.6-0.9-29.1,0.6-47.2,7.6c-43.8,16.7-66.6,29.2-84.5,46.3
			c-23.1,22.1-33.1,43.9-48.4,105.6c-5.5,22.5-8,30.7-11.5,37.9c-9.5,20.3-20.4,55.7-24,78.8c-9.6,61.1,23.7,126.4,76.2,149.3
			c6.1,2.7,13.8,5.1,21.4,6.6C161.6,458.5,173.7,457.2,180.9,454.7L180.9,454.7z M460.6,411.8c0.9-1-1.4-10-3.6-13.6
			c-1.5-2.5-2.7-3.2-5-3.2c-4.5,0-10.1-3.2-17.3-10c-3.6-3.3-6.7-6-6.9-6c-0.3,0-0.8,1.6-1.1,3.5c-0.3,1.9-1.8,6.2-3.3,9.7
			c-1.8,3.9-2.4,6.3-1.7,6.5c0.6,0.2,5.3,3.1,10.4,6.4c5.2,3.3,10.7,6.4,12.4,6.9C447.7,413,459.5,412.8,460.6,411.8L460.6,411.8z
			 M500.3,410.1c4.8-1,9-2.1,9.3-2.3c0.7-0.8-10.3-10.5-15.1-13.2c-6.1-3.6-11.8-4.9-16.4-3.6l-4,1l1.3,3.8c0.8,2.1,1.7,6.5,2.1,10
			l0.7,6.2h6.6C488.5,412,495.5,411.1,500.3,410.1z M410.7,383c1.7-3.6,3.6-8.2,4.1-10.2c1.2-4.6,0.3-5.3-9.2-7.5
			c-3.4-0.7-6.9-1.6-7.8-1.9c-1.2-0.4-2.3,0.6-3.8,3.5c-2.6,5.2-2.5,9,0.3,13.2c2.6,3.8,10.4,10.1,12.1,9.7
			C407,389.6,408.9,386.5,410.7,383L410.7,383z M771.6,188.2c0.7-3.8-0.9-10.8-3.8-16.5c-4.9-9.6-18-19.9-25.4-19.9
			c-4.6,0-9.9,2.9-13.8,7.3c-3.2,3.8-3.2,4-2.2,9.1c0.5,2.9,1,5.4,1.1,5.5c0,0.1,2.3-0.9,5-2.2c6.6-3.2,18.3-3.5,23.1-0.6
			c4.1,2.5,7.3,9.2,9.2,19.7l1.6,8.4l2.3-3.7C770,193.2,771.3,190,771.6,188.2L771.6,188.2z M417.8,27.3c-3.3-6.8-4.2-7.7-5.1-4.4
			c-0.6,2.6,1,5.1,3.4,5.1C417.2,28,418,27.7,417.8,27.3z"/>
		<path d="M396.4,812.1c-17.3-2.8-33.3-12.1-51.7-30C332.3,770,331,767.6,331,756.7c0-7.4,0.4-9.1,3.1-14.7
			c1.9-3.8,6.1-9.3,10.5-13.9c4.1-4.2,7.4-8.4,7.4-9.3c0-0.9-0.7-5-1.5-9c-2-9.3-4.5-37.3-4.5-50V650h3.3h3.2l3.8,15.3
			c4.6,17.9,9.5,33.5,14.8,47c2.2,5.3,3.9,11.3,3.9,13.1c0,3.1-0.6,3.7-7.3,8c-8.1,5-16.3,13-17.2,16.9c-1,4,2,9.4,9.7,17.3
			c3.9,4.1,7.4,7.4,7.8,7.4s1.2-1.9,1.9-4.2c2-6.5,6.7-14.9,11.7-20.6c4-4.6,5-5.2,8.5-5.2c3.6,0,3.9,0.2,3.9,2.6
			c0,1.5-0.9,5.7-1.9,9.3c-3.5,11.8-5.3,22.6-4.4,26.2c1.6,6.3,12.1,9.7,21.8,7l4-1v-14.3c0-8.2,0.6-16.8,1.3-20
			c1.3-5.8,1.3-5.8,5.1-5.8h3.8l1.7,7.9c2.3,10.7,4.3,17.2,5.9,19.5c1.3,1.8,1.6,1.8,5.9-1.2c11.2-7.7,18.6-20.1,17.4-29.1
			c-0.3-2.5-1.9-7.4-3.5-11c-2-4.5-3.6-11-5.1-20.6c-1.2-7.7-4.4-27.5-7.1-44S434,639,434,637.3c0-3.1,0.2-3.3,3.4-3.3
			c3.4,0,3.5,0,7.4,10.3c4.9,12.7,10.9,31.8,15.6,50.2c2,7.7,4.4,15.4,5.3,17c0.9,1.7,2.9,5.3,4.4,8c3.8,6.8,5.9,15.5,5.9,24.2
			c0,18-6.5,31.5-23.8,49.5c-10.1,10.5-15.4,14.2-24.2,16.9C420.7,812.4,404.6,813.4,396.4,812.1L396.4,812.1z"/>
		<path d="M135.5,446.5c-28.3-5.9-51.2-32.7-61.1-71.8c-7.2-28.3-7.1-68.5,0.1-99c4.8-20.2,13.8-41.9,24.2-58.2
			c8.8-13.7,9.8-13.9,24.3-6.5c35.2,18.1,63.1,46.8,81.1,83.5c18.7,38.2,23.1,81.7,11.3,112.7c-7.3,19.1-22.8,33-42.9,38.3
			C164,447.8,144.2,448.3,135.5,446.5z"/>
	</g>
	<g>
		<path class="st0" d="M442.5,999.4c-73.2-1.6-135.4-9.9-157.6-21c-7.5-3.7-10.9-7.8-10.9-12.8c0-15.2,28.5-32.6,82-50.1
			c6.3-2.1,12-4.2,12.6-4.9c0.7-0.6,3.5-10.8,6.4-22.6c2.8-11.8,7.9-32.5,11.1-45.9c3.3-13.4,5.9-24.5,5.7-24.6
			c-0.2-0.2-4.4-1.9-9.3-3.8c-39.3-15.1-64.9-38.6-71.7-65.7c-3-11.9,1.4-43.8,9.2-66.4c6-17.5,8.8-24,22.5-53.1
			c20.4-43.3,25.5-57.7,30-84.8c0.7-4.6,1.7-5.1,17.4-7.7c13.9-2.3,14.9-2.6,27.3-7.9c11.4-4.9,18-6.4,37.8-8.6
			c8-0.9,16-2.1,17.9-2.7c3.4-1.1,3.6-1,8.3,4.3c23.5,26.1,38.8,45.2,52.6,65.9c10.6,15.9,25,43.4,30,57.5
			c19.4,54.7,10.4,100.9-27.1,139.2l-8,8.2l1.1,14.8c0.7,8.1,2.2,27.2,3.3,42.3c1.2,15.1,2.3,28.4,2.5,29.6
			c0.3,1.9,1.2,2.1,11.6,2.8c29.4,1.7,58.6,5.8,76.2,10.6c9.1,2.5,28.3,9.8,35.6,13.5c14.3,7.3,28.3,19.3,33,28.5
			c2.8,5.4,3.1,14,0.7,18.6c-2.1,4-8,9.2-13.2,11.5c-8.4,3.7-20.8,4.1-24.2,0.6c-0.9-0.9-2.1-5.3-2.9-10.6c-0.9-6.1-2.3-11-4.5-15.2
			c-14-27.9-62.3-42.1-159.4-47.1l-5-0.3l-0.6-19.6c-0.7-20.7-2.5-40.2-3.9-42.8c-1.7-3.3-4.8-5.2-7.7-4.9l-2.8,0.3l-0.3,9
			c-0.2,5,0.4,19.1,1.2,31.5c0.9,12.4,1.6,25.3,1.6,28.8c0,5.2,0.3,6.2,1.8,6.2c0.9,0,9.7,0.5,19.5,1c34,1.9,68.4,6.8,88.3,12.5
			c12.4,3.7,35.9,13.1,42.6,17.1c12.2,7.4,19.8,18,19.8,27.4c0,9.7-9.6,23.6-19.3,28c-4.2,2-12.2,2.6-14.4,1.2
			c-0.7-0.4-2.6-5-4.3-10.2c-3.9-12-8-18.8-15.3-25.6c-4.5-4.1-7.2-5.8-12.4-7.4c-3.6-1.1-6.8-1.9-7-1.7c-0.1,0.2,3.1,3.4,7.2,7.1
			c19.7,17.7,26.7,35.5,16.7,42.2c-8.6,5.8-36.3,8.9-44.5,5c-3.2-1.6-3.9-2.6-5.3-7.5c-4.8-17.5-10.6-24.8-21.7-27.5
			c-2.8-0.7-2.7-0.5,2.1,5.5c7,8.7,10.2,15.5,10.2,22.2c0,3.3-0.5,5.9-1.3,6.5c-0.7,0.6-5.4,1.6-10.3,2.1
			C513.6,999,464.6,999.9,442.5,999.4L442.5,999.4z M425.3,807c8.5-2.6,13.9-6.4,23.9-16.8c14-14.5,20.8-26.1,23-39.3
			c2-11.3-0.5-21-9.1-35.9c-1.2-1.9-3.7-9.8-5.7-17.5c-6.2-24.2-18.6-61.6-20-60.3c-0.2,0.3,1.8,13.9,4.5,30.4
			c2.7,16.4,5.9,36.2,7.1,43.9c1.5,9.9,3.1,16,5.3,20.9c8,18.3,2.4,35.1-15.7,46.8c-4.8,3.1-6.2,3.6-7.8,2.7
			c-2.8-1.5-5.2-7.6-7.9-19.6c-1.3-5.7-2.6-10.3-3-10.3c-2.4,0-4.4,25.3-2.9,36c0.5,3.3,0.3,3.6-3.5,4.9c-8.6,2.9-23.8,1.1-27.5-3.4
			c-3.2-3.8-1.8-19.6,3-35.7c1-3.2,1.4-5.8,1-5.8c-1.4,0-9,9.2-12.1,14.5c-2.7,4.8-5,10.7-6.3,16.8c-0.6,2.4-0.9,2.6-2.7,1.6
			c-4.2-2.2-17.9-16.2-19.9-20.3c-2.3-4.9-2.6-11.5-0.6-15.4c2-4,10.1-11.2,17.4-15.6c3.4-2,6.2-3.9,6.2-4.2c0-0.2-1.7-4.8-3.9-10.1
			c-5.6-14.3-8.9-24.6-14.2-44.8l-4.8-18v7.5c-0.1,11.3,2.4,36,4.9,50l2.3,12.5l-8,8c-13.2,13.4-17.4,25.5-12.4,35.3
			c2.3,4.4,19.1,21,27.4,27.1C384.3,808.3,405.6,813.1,425.3,807L425.3,807z"/>
		<path class="st0" d="M197.3,806c-9-1.8-16.3-7.4-16.3-12.5c0-5.3,5.5-8.7,18.2-11.1c4.6-0.9,13.7-3.4,20.3-5.6
			c10.8-3.6,52-19.8,70-27.6l7-3.1l0.6,7.8c0.3,4.2,1.1,8.6,1.7,9.8c0.7,1.2,1.2,2.4,1.2,2.6c0,0.9-25.8,15.2-40.5,22.4
			C227.1,804.5,211.8,808.8,197.3,806L197.3,806z"/>
		<path class="st0" d="M376.7,507.3c-0.9-11.9-3.8-23.1-8.9-33.3c-3.3-6.8-5.8-10.2-12.7-17c-15.2-15-31.5-22.9-79.6-38.5
			c-16.5-5.4-30.7-10-31.6-10.2c-1.4-0.4-1.3-1.6,1.4-9.6c3.1-9,3.1-9.6,3.2-28.7c0-18-0.2-20.3-2.7-30.1
			c-6.3-24.4-17.4-48.9-34.5-76.2c-3.1-4.9-5.2-9.2-4.7-9.6c0.5-0.5,10.1-6.6,21.4-13.7c41.2-25.8,100.7-66.8,148.5-102.2l10-7.5
			l1.3,8.9c3.7,26.5,16.9,53.4,29.8,61c3.3,2,5.3,2.5,7.5,2c14.8-2.9,22.9-29.2,23-74.1c0-17.9-1.6-42.4-3.6-54l-0.5-3l16.8,0.3
			c14.6,0.3,19.7-0.1,40.2-2.9c20.6-2.9,26.2-3.3,45-3.3c25.9,0,41,2.1,60.7,8.6c15.8,5.1,38.8,16.6,51.2,25.5
			c30.3,21.8,50.4,51.9,58.7,87.8c2.4,10.7,2.7,14,2.7,30c0.1,15.6-0.2,19.1-2.1,26c-4.2,15-10.9,29.7-19.5,42.5
			c-16,24-42.9,48.8-75.2,69.2c-20.3,12.8-63.2,32.9-90.2,42.4l-5.3,1.8l-4.2-3.2c-7.5-5.6-20.1-12.9-27.3-15.7
			c-5.3-2.2-9.2-3-16.1-3.3c-8.3-0.4-9.5-0.2-14.8,2.3c-9,4.3-11.2,3.2-26.6-12.5l-12.5-12.8l-7.6-1.7c-8.3-1.8-9.8-2.9-14.2-10.6
			c-3.6-6.4-9-10.9-12.9-10.9c-4.8,0-10.3,6.3-11.8,13.7c-0.7,3.2-2.1,9.3-3.1,13.5c-4.5,18.4-1.9,25.6,13.3,37.4
			c3.2,2.5,6.9,6.5,8.3,8.9c3.3,5.5,5.6,7,15.2,9.5c4.3,1.1,10.7,3.6,14.3,5.4c13.9,7.1,21.4,8.3,40,6.1c7.4-0.8,15.1-1.5,17-1.5
			h3.5l-4,3.2c-6.4,5.1-15.8,15.1-19.7,20.9c-8.3,12.6-10.4,26.2-5.9,38.4c1.2,3.3,2.4,6.7,2.7,7.7c1,2.8-3,3.9-19,5.4
			c-14.3,1.4-16.1,1.8-35.2,8.3c-11,3.8-22.1,7.2-24.6,7.6l-4.5,0.7L376.7,507.3L376.7,507.3z"/>
		<path class="st0" d="M153,460.4c-29.4-5.9-55-23.8-73.9-51.8c-11.3-16.7-20.3-39.5-23.6-59.6c-2.2-13.5-2.3-37-0.1-50.5
			c3.7-23.4,14.5-58.6,24-78.8c3.5-7.2,6-15.4,11.5-37.9c15.3-61.7,25.3-83.5,48.4-105.6c13.8-13.1,34.2-25.6,59.2-36.2
			c16.8-7.2,39.8-15.7,44-16.4c10-1.6,26.8-2.3,36.5-1.5c18.3,1.6,28.2,4.7,65.6,20.7c11.6,5,25.9,10.8,31.9,12.8l10.8,3.7l-0.7,7.5
			c-0.3,4.1-0.6,13.5-0.6,20.8v13.3l-14.2,11.9c-45.7,38.1-90.5,71.3-143.8,106.8c-15.1,10-28,18.4-28.6,18.6
			c-0.6,0.2-3.9-3.4-7.3-7.9c-3.4-4.5-8.5-10.2-11.4-12.6c-5.9-4.9-12.6-9.2-13.3-8.4c-0.3,0.2,3.3,6.5,8,13.9
			c26.5,42.1,43.9,77.4,54.3,110.3c3.8,12,3.8,12,3.7,29c0,13.2-0.5,19.5-2.3,28.2c-7,36-22.8,58.4-47.2,67
			c-5.8,2.1-9.6,2.7-17.9,2.9C160.2,460.7,154.4,460.6,153,460.4L153,460.4z M169.5,442.5c20-5.2,35.6-19.2,42.9-38.3
			c11.3-29.8,7.2-69-11.3-106.7c-18-36.6-45.9-65.4-81-83.4l-9.8-5l-2,2.2c-3.4,3.7-10.8,15.6-15.8,25.7
			C68.8,284.1,65.4,346.1,84,391.5c11.4,28.1,31.5,47.3,54.5,52C146.8,445.2,160.7,444.8,169.5,442.5L169.5,442.5z"/>
		<path class="st0" d="M445,415.6c-6.2-1.4-7.4-1.9-17.6-8.6c-4.1-2.7-9-5.4-11-6l-3.6-1.2l2.6-2.7c3.4-3.5,7.3-12.5,8.8-19.7
			c0.6-3.2,1.3-6.1,1.4-6.3c0.2-0.2,4.4,3.4,9.3,8.2c9.6,9.3,13.5,11.8,19.6,12.6c3.6,0.5,4.3,1.1,6.4,5.4c1.4,2.8,2.5,7.3,2.8,11.1
			l0.6,6.4l-2.9,0.5C454.2,416.7,450.1,416.8,445,415.6L445,415.6z"/>
		<path class="st0" d="M474.5,408.8c-0.4-3.5-1.8-9-3.1-12.3c-2.6-6.6-2.5-6.8,4.1-8.6c5.7-1.6,13.8-0.5,20.3,2.8
			c6.2,3.1,22,17.9,20.6,19.2c-2,1.8-22.8,5.1-31.8,5.1h-9.4L474.5,408.8L474.5,408.8z"/>
		<path class="st0" d="M402,392.4c-9.8-5.5-14.9-13.6-13.5-21.1c0.7-4,4.9-12.8,6.5-13.8c0.6-0.3,1.7,0.1,2.6,0.9
			c1.5,1.5,4.5,2.5,13.2,4.5c4.4,0.9,9.2,3.5,9.2,5s-5,16.2-6.6,19.4c-1.7,3.3-5.3,7.7-6.3,7.7C406.8,395,404.5,393.8,402,392.4
			L402,392.4z"/>
		<path class="st0" d="M763,202.3c0-5.7-2.7-17-5.1-22c-4.9-10.1-14.9-11-28.2-2.6c-4.4,2.7-5.7,2.1-5.7-2.8c0-1.4-0.7-4.8-1.5-7.5
			c-1.4-4.7-1.4-5,1-8.6c9.4-14.2,26.6-13.9,40.3,0.6c13,13.7,15,32.8,4.6,43.2c-1.9,1.9-3.9,3.4-4.4,3.4
			C763.4,206,763,204.3,763,202.3L763,202.3z"/>
		<path class="st0" d="M424,43.9c-3-6.5-8.5-12.9-11.1-12.9s-4.2-3.6-3.6-8.3c1.2-8.6,6.6-8.6,10.7,0c2.5,5.2,7.2,22.9,6.8,25.2
			C426.6,48.7,425.4,46.9,424,43.9z"/>
	</g>
</g>
</svg>
