<?xml version="1.0" encoding="utf-8"?>
<!-- Generator: Adobe Illustrator 25.0.1, SVG Export Plug-In . SVG Version: 6.00 Build 0)  -->
<svg version="1.1" id="Layer_1" xmlns="http://www.w3.org/2000/svg" xmlns:xlink="http://www.w3.org/1999/xlink" x="0px" y="0px"
	 viewBox="0 0 720 1280" style="enable-background:new 0 0 720 1280;" xml:space="preserve">
<style type="text/css">
	.st0{fill:#060708;}
	.st1{fill:#ED1C24;}
	.st2{fill:#FFF200;}
	.st3{fill:#FFFFFF;}
</style>
<g>
	<g>
		<path class="st0" d="M302,1158c-9.6-0.5-26.9-1.6-38.5-2.5c-11.5-0.9-34.3-1.8-50.5-2.1c-30.8-0.6-38.4-1.5-46.1-5.4
			c-6.2-3.2-11.4-8.5-13.8-14c-2.4-5.5-2.2-5.5-15.1-7c-11.2-1.3-27-1.3-32.5,0.1c-6,1.5-7.2,3.1-5.7,7.3c1.5,4,0.7,6.4-2.2,7.1
			c-1.1,0.3-11.5-1-23.1-3c-11.5-2-25.8-3.9-31.8-4.2c-10.8-0.6-10.9-0.6-10.3,1.5c1,3.1-1,6.2-4,6.2c-3.5,0-9.4-5.9-9.4-9.4
			c0-6.4,8.1-9.4,21.7-8.1c11,1,29.2,3.5,37.7,5c10.3,2,10.5,1.9,11.7-1.2c3.7-9.9,17-13.5,41.4-11.3c6.6,0.6,13.5,1.3,15.5,1.6
			l3.5,0.6l2.3-7.9c1.3-4.3,3.7-9.9,5.4-12.5c9.5-15,37.3-28.2,73.5-34.9c6.5-1.2,14.1-2.8,16.9-3.6l5.1-1.4l5.2-32.2
			c2.9-17.7,5.4-32.8,5.6-33.4c0.2-0.7-2.6-3-6.5-5.3c-3.8-2.2-10.2-6.7-14.2-9.8c-7.7-6.2-20.8-19.7-20.8-21.5
			c0-0.6-2.2,1.4-4.9,4.4c-3.5,3.9-6.8,6.4-11.2,8.3c-5.6,2.6-6.9,2.8-15.3,2.4c-7.2-0.4-10.7-1.1-16.9-3.6
			c-10.2-4.2-19.2-4.4-28.2-0.7c-8.4,3.5-22,5.8-35.1,5.9c-11,0.1-11.1,0.1-18.9-3.9c-10.4-5.2-16.5-11-16.5-15.4
			c0-4.6,4.5-8.6,11.4-10.2c4.8-1,5.9-1.8,9.2-6.3c18.2-24.1,35.4-30.1,57.1-19.7c16.2,7.8,37.7,11.9,47.7,9.1
			c6.5-1.8,8.2-4.2,9-12.5c0.4-3.8,2-10.8,3.7-15.5c1.6-4.7,3.2-9.3,3.5-10.2c0.5-1.3-0.4-2.1-3.7-3.4c-18.3-7.2-45.2-23-60.2-35.2
			c-7.5-6.2-25.7-24.6-25.7-26.1c0-0.5-4.8-0.9-10.7-0.8C98.5,823.4,87,819,74.9,807c-6.2-6.1-8.5-9.2-12.2-17
			c-7.9-16.4-9.2-23-9.2-48s1.3-31.6,9.1-47.9c3.8-7.7,6-10.8,12.7-17.5c14.1-14.2,31.3-21,51.4-20.4l9.7,0.3l6-9
			c10.1-15.1,26.1-29.6,42-38.1l6.1-3.3l-4-1.6c-6.7-2.7-15.8-7.2-20.2-9.9c-3.8-2.4-4.2-2.5-4.7-0.9c-0.2,1-1.9,7.1-3.7,13.7
			c-2.5,9.2-4.2,13.4-7.9,19c-15.5,23.7-38.7,28.4-68,13.6c-51.6-26-75.4-83.7-65.4-158.5c4.4-32.8,14.9-69.9,29.5-104
			c3.7-8.8,8.7-21.6,10.9-28.3c19.7-58.9,53.2-104.1,95.9-129.5c9.4-5.6,17.8-9.2,35.8-15.3c48.9-16.4,93.2-19.4,130.3-8.7
			c26.1,7.5,51.3,24.2,63.4,42.1c10.3,15.2,26.6,27.1,47.6,34.6c5.2,1.9,11.7,3.2,21.5,4.2c16.8,1.7,37.6,5.4,53.9,9.5
			c70.1,17.7,118.8,51.3,141.2,97.4c9.5,19.5,13.4,37,14.1,64.1c0.8,27.1-2.7,45.1-12.7,66.2c-6.5,13.7-12.8,22.8-23,33.5
			c-19.5,20.5-44,35.3-76.8,46.4l-14.4,4.8l4.4,3.5c2.3,1.9,6.2,5.4,8.5,7.7l4.2,4.2l8.7-1c20.1-2.5,41.2,4.4,55.5,18.3
			c14.7,14.2,23.6,35.4,26.9,64.3c3.8,32.2-8,62.3-28.9,74.3c-5.3,3-5.4,3.2-7.3,10.4c-6.3,24.8-26.4,48.4-60.8,71.3
			c-14.1,9.4-32.2,19.1-42.1,22.6l-6.6,2.3l-0.6,10.5c-2.1,39.6-19.4,75.4-44.9,92.8l-6.8,4.7v21v21.1h29.2
			c16.1,0.1,35.2,0.6,42.3,1.3c56.9,5.5,92.7,19.8,108.4,43.3c7.3,11,10,25.2,6.6,34.9c-0.8,2.3-1.5,4.3-1.5,4.4s3.9-0.4,8.8-1.1
			c11.9-1.8,18.7-1,22.5,2.8c2.1,2.1,2.8,3.7,2.5,5.4l-0.5,2.4l22.6-0.6c20.6-0.5,22.8-0.4,24.4,1.1c2.1,2.1,2.2,4,0.3,5.9
			c-1.7,1.7-15.5,2.7-40.4,2.8c-12.2,0-17.7-0.3-18.7-1.1c-1.9-1.6-1.9-5.4,0-7c2.7-2.2,1.6-3-4-3c-6.1,0-29.1,4.2-35.7,6.6
			c-6.1,2.2-17.2,4.4-21.9,4.4c-2.3,0-7.5,0.9-11.7,1.9c-23.5,6-50.7,5.2-70.4-2l-5.7-2.1l-3.8,3.1c-8.6,6.8-26.3,12.1-41.1,12.1
			c-5.7,0-8.3,0.5-12.1,2.5c-10.6,5.3-18.2,6.8-37.1,7.1c-13.7,0.2-18.4,0.6-21.5,1.9c-2.2,1-7.8,2.4-12.5,3.1
			C362.2,1158.4,324.8,1159.1,302,1158L302,1158z M359.5,1145c6.1-0.6,12.7-1.5,14.8-2.1c3.8-1,3.9-1.1,3.2-4.6
			c-0.3-2-2-7.5-3.7-12.2c-2.8-7.6-3.9-9.3-9.5-14.8c-5.9-5.7-6.3-6.4-6.3-10.6c0-6.1,1.8-7.7,8.4-7.7c4.3,0,6.1,0.6,9.3,2.9
			c7.4,5.4,13.1,16,17.2,32l2.7,10.6l9.6,0.3c10.6,0.3,20.6-1.4,28.6-4.8c4.9-2.1,5.1-2.3,4.5-5.4c-1.2-6.5-4.5-13.6-8.4-17.9
			c-3.9-4.5-14.4-10.7-18.1-10.7c-3.3,0-5.8-3.6-5.8-8.3c0-7,1.4-8,10.1-7.6c19.1,1,34.8,16.3,38.1,37.2c1.2,7.6,1.3,7.7,4.3,7.7
			c5.4,0,16.7-2.9,22.9-5.8c6.9-3.2,12.2-8.1,14.2-12.9c7.3-17.4-15.8-33.7-58.1-40.8c-23.9-4-37.9-4.9-76.5-5
			c-20.1,0-37.1-0.4-37.7-0.8c-0.8-0.5-1.3-3-1.3-6.1c0-7.5,1.4-8.4,12.5-8.8l9-0.3l1.1-12c1.8-18.3,1.7-40.7-0.1-43.1
			c-1.7-2.3-2-11.5-0.3-13.2c0.7-0.7,3.8-1.2,6.9-1.2c10.7,0,11.3,2.1,10.6,37.9c-0.2,15.2-0.8,28.4-1.2,29.4
			c-0.7,1.6,0.3,1.7,11.6,1.7c27.7,0,62.2,3,82.4,7.1c29.4,6,49.4,17.3,55.9,31.9c2.5,5.6,2.7,6.8,2.4,17.9l-0.3,11.9l6,1.6
			c10.3,2.8,16.4,3.6,26,3.6c9.2,0,26.3-2.4,27.8-3.9c1-1-3.7-16.9-6.7-22.9c-4.9-9.6-14-17.2-20.6-17.2c-3.9,0-6-2.8-6-8
			c0-7.4,1.2-8.3,10.6-7.8c9.7,0.4,15.5,3,22.4,10c8,8.1,13.8,21.9,17.6,41.6c0.3,1.6,1,2.2,2.2,1.8c13-3.7,16.5-5,19.9-7.5
			c2.2-1.6,4.8-4.6,5.8-6.7c1.6-3.4,1.7-4.6,0.7-9.3c-7.4-34.9-67.9-55-158.5-52.7c-19.1,0.5-26.3,0.4-27.3-0.5
			c-1.1-0.9-1.4-6.7-1.4-31.9c0-34.5-0.7-31.2,8.3-36.4c6.4-3.6,16.9-13.6,22.2-21.1c10.6-14.9,18.2-36.2,20.9-58.2
			c0.8-6.1,2.1-6.2-13,0.5c-30.1,13.3-57.3,29.7-76.1,46.1c-7.7,6.7-8.4,7.1-13,7.1c-4,0-7-1.2-17.3-6.7c-21.2-11.2-24-12.4-42-18.3
			c-18-5.9-31.9-9.6-57-15.1c-7.9-1.7-18.7-4.4-24-6c-11.1-3.3-10.6-3.5-14.2,7c-6.2,17.9,0.2,36.3,18.8,54.2
			c7.9,7.6,19,15.6,27.4,19.9c5.5,2.8,6,3.5,6,8.4c0,3.6-11.5,76.5-12.5,79.4c-0.8,2.3-7.6,4.4-25,7.8c-35.1,7-59.6,17.2-69.4,29.1
			c-3.2,3.9-7.1,13.9-7.1,18.3c0,3.5,3.6,8.8,7.9,11.7c6.3,4.2,12.3,5.3,29.5,5.3s45.1,1.3,68.6,3.1
			C306.9,1145.9,341.8,1146.6,359.5,1145L359.5,1145z M129,958.5c3.6-0.8,9.9-2.6,14-4c6.8-2.5,8.4-2.7,19.5-2.3
			c10.8,0.4,12.6,0.8,18,3.4c4.8,2.3,7.3,2.9,12.7,2.9c5.9,0,7-0.3,10.4-3.1c2.1-1.6,4.7-4.2,5.8-5.7c1.7-2.3,1.8-3.1,0.7-6.6
			c-1.1-3.9-1.3-4-4.4-3.3c-1.8,0.4-8.6,0.6-15.2,0.6c-9.9-0.2-14-0.7-23.7-3.3c-6.5-1.7-14.8-4.6-18.6-6.5
			c-9.1-4.6-12.9-5.2-19.1-3.1c-6.2,2-13,8-21.6,19.1c-4.7,5.9-7.3,8.4-8.8,8.4c-2.2,0.1-2.2,0.1-0.2,1.6
			C104.5,961.3,113.2,961.9,129,958.5L129,958.5z M401.7,907.9c4.3-2.8,8.1-5.4,8.5-5.8c0.4-0.3-3.5-0.6-8.7-0.6
			c-8.9,0-9.6-0.2-12.1-2.6l-2.6-2.7l-3.9,3.9c-6.4,6.4-11.2,8.3-20.6,8.4c-6.7,0-8.6-0.4-11-2.1c-3.7-2.8-7-7.7-8.5-12.8
			c-2.8-9.5,0-53.8,3.5-57.2c2.3-2.2,20.8-8.4,25-8.4c7.5,0,7.8,1.3,4.7,21.6c-1,7.1-2.2,16.5-2.6,20.9c-0.6,7.6-0.5,7.9,1.1,5.8
			c3.7-5.1,5.4-11.4,7.5-27.3c1.1-9.1,2.3-17.2,2.6-18.1c0.3-1,3.7-2.9,8.2-4.5l7.7-2.8l-5-0.7c-2.8-0.3-6.5-1.3-8.1-2.2
			c-3.6-1.8-8.9-7.6-9.9-10.6c-0.6-2-0.7-2-3.8-0.4c-2.2,1.2-5.7,1.8-11.4,1.9l-8.1,0.1l-5,5.4c-2.8,3-7.4,6.8-10.4,8.4
			c-4.6,2.5-6.6,3-15.1,3.3c-13.4,0.6-20-2.1-25.9-10.7l-1.7-2.4l-3.3,2.7c-6.2,5.1-15,10.5-20.7,12.8c-5,2-7.3,2.2-20.6,2.2
			c-14.5,0-15.3-0.1-24.9-3.5l-9.9-3.5l-4.4,4.2c-6.3,6.1-11.6,8.4-19.7,8.4c-7.4,0-11.8-1.7-13.8-5.3c-0.7-1.2-1.2-5.6-1.2-9.8
			c-0.1-6.6,0.3-8.1,2.6-11.7c3.3-4.9,9.5-9.3,16.7-11.8c4.8-1.7,5.6-2.4,7.5-6.4c1.8-3.9,2.1-7.3,2.7-27c0.6-20.2,1-23.4,3.3-31.3
			c3-10,4.3-12.9,9.7-20.8c5-7.3,13.1-14.7,20.5-18.4c5.7-2.9,6.3-3,19.9-3c13.4,0,14.2,0.1,18.6,2.7c5.7,3.3,10.5,8.7,13.3,14.7
			c1.7,3.9,2.1,6.5,2,17.1c0,14.3-1.6,19.8-8.2,28.5c-5.8,7.6-11.6,10.7-21.2,11.3c-9.4,0.5-11.9,0-15.9-3.4l-3-2.5l-0.5,2.3
			c-0.2,1.3-1.1,6.3-2,11.1c-0.8,4.8-2.7,11.3-4.1,14.4c-1.4,3.1-2.4,5.7-2.3,5.8c0.2,0.2,6.8,1.9,14.8,3.9
			c15.9,3.9,17.4,3.9,25.3-0.8c2.3-1.3,6.5-4.9,9.3-7.9c4.4-4.7,5.2-6.1,5.7-10.7c1.4-11.4,10.6-26,21.4-33.6
			c8.7-6.3,15.8-8.6,27.5-9.2l9.7-0.4l-2.8-2.4c-4.6-3.9-6.3-9.5-6.8-22.9c-0.6-12.5,0.9-28.8,2.7-31c0.8-0.9,0.5-1.4-1-1.8
			c-1.7-0.4-2-1.3-2-5.9c0-2.9,0.7-8.4,1.5-12.3c1.7-8.4,1.9-8.1-9.3-19.3c-17.7-17.9-39.3-30.1-62.7-35.3
			c-8.8-1.9-28.3-1.7-38.5,0.5c-32.6,7-59.9,23.6-76.5,46.5l-3.2,4.4l4.1,3.2c2.7,2,5.3,5.5,7.6,9.9c3,5.9,3.5,7.8,3.8,15.9
			c0.2,5.1-0.1,11-0.7,13.2c-1.6,6.2-6.6,13.3-11.4,16.3l-4.3,2.6l3.2,4.8c8.6,12.7,6.2,36-4.6,44l-2.9,2.1l3,4.2
			c4.3,6,5.9,12.3,5.9,23.4c0,11.4-1.6,15.8-7.8,21.3l-4.1,3.7l10.4,10c28.6,27.5,73.1,48.3,126.3,59c18.1,3.7,48.9,12.5,63.2,18
			c5.8,2.3,15.8,7,22.4,10.5l11.8,6.4l7.8-6.3C390.3,916,397.4,910.8,401.7,907.9L401.7,907.9z M440,885.6
			c14.3-7.3,30.5-14.2,48.7-20.9c23.4-8.6,39.2-17.2,59.1-32.1c12.9-9.7,21.8-18.1,29.7-27.9c5.7-7.1,13.5-20,13.5-22.3
			c0-0.5-5.5-0.9-12.3-0.9c-11.4,0-12.6-0.2-17.9-2.8c-11.2-5.5-15.4-14.3-14.6-30.2c0.4-7,1.1-10.5,3.1-14.8
			c2.5-5.5,2.5-5.6,0.6-6.2c-3.6-1.2-9-6.7-11.7-11.9c-2.2-4.3-2.7-6.8-3-15.3c-0.4-9.2-0.2-10.6,2.1-15.6l2.5-5.6l-5.3-2.6
			c-6.3-3-9.9-6.9-13.3-14.3c-2.2-4.9-2.4-6.3-2-17c0.3-10.3,0.7-12.3,3.1-16.8c1.4-2.9,4.5-6.8,6.8-8.8c4.1-3.5,4.2-3.7,2.3-5.1
			c-6.2-4.9-19.3-12.1-28.4-15.6c-36.1-14.2-70.8-9.8-102.3,12.9c-9,6.5-26.2,23.9-32.4,32.9l-4.3,6.1l2.5,0.6
			c3.4,0.9,3.7,3.5,3.2,27.9l-0.4,20.7h5.3c6.4,0,7.2,1,8.1,10.3c0.6,7,0.5,7.3-7,17.4c-4.8,6.4-9.2,9.3-14.3,9.3h-3.9l3.2,2
			c5.2,3.2,5.8,5.1,5.8,20c-0.1,11.7-1.2,22.2-3.1,29.5c-0.4,1.2,1.8-0.4,5.4-4c5.3-5.4,6-6.6,6.6-11.4c0.8-6.1,7.5-33.2,8.5-34.3
			s26.6-7.8,29.8-7.8c5.5,0,6.7,1.8,6.1,9.4l-0.6,6.6l2.1-4.2c4.4-8.9,11.8-13.8,20.9-13.8c5.4,0,8.5,1.5,10.9,5.2
			c1.8,3,2,4.5,1.6,16.8c-0.3,11.1-0.8,14.9-3,21.4l-2.6,8l3.8-4c2.8-2.8,4-5.1,4.6-8.4c2.7-16,14.2-32.6,27.6-39.7
			c5.1-2.6,6.1-2.8,18-2.8c11.9,0,12.7,0.1,16.6,2.7c2.2,1.4,4.8,4.3,5.8,6.4c2.3,4.8,3,14.7,1.6,20.1c-2.3,8.6-11.2,17.1-25,23.9
			l-7.4,3.7l2.4,1.8c1.3,1,3.1,2,4.1,2.2c3.2,0.9,9.4-3.1,16.5-10.7c7.1-7.4,7.4-7.6,12.1-7.6c2.6,0,5.3,0.5,6,1.2
			c0.8,0.8,1.2,4.8,1.2,11.2v10l-8.9,8.7c-6.7,6.5-10.9,9.7-16.6,12.5c-7.2,3.6-8.3,3.8-18.8,4.2c-14.6,0.5-20.3-1.4-27.5-9.2
			l-4.8-5.4l-3.3,1.4c-1.9,0.8-6.8,1.4-11.5,1.4h-8.1l-6.6,6.3c-3.6,3.4-8.7,7.3-11.3,8.6c-3.4,1.7-4.5,2.6-3.7,3.4
			c1.6,1.6,1.4,8.4-0.9,25.8c-2.6,20-2.7,20.9-2.4,20.9c0.2,0,2.4-2.7,4.9-6c4.4-5.7,4.9-6,8.8-6c2.3,0,4.8,0.4,5.6,0.9
			c1.6,1,3,7.7,3.1,14.5c0,5.4-2,8.5-12.9,19.9l-5.6,5.9l6.5-3.7C426.6,892.5,434.2,888.5,440,885.6L440,885.6z M362.1,891.4
			c-1.1-1.4-2.3-5-2.7-8c-0.6-5.3,1.1-32,2.3-35.1c0.4-1.1,0-1.4-1.3-1.1c-1.5,0.2-2.2,1.8-3.1,6.8c-3.4,18.6-2.5,32.2,2.4,38
			C362.7,895.6,364.9,895,362.1,891.4L362.1,891.4z M401.4,883.3c-2.2-3.2-2.4-4.6-2.4-14.1c0-5.8,0.5-14.5,1.1-19.4
			c1.2-9.1,0.8-11.2-1.5-8.7c-1.6,1.7-5.8,31.9-4.6,33.4c0.4,0.5,1.3,2.8,2,5c1.5,4.7,4.7,8.6,6.5,7.9
			C403.5,887,403.2,886,401.4,883.3L401.4,883.3z M199.4,820.3c1.6-1.4,3.8-3.6,5-5.1l2-2.6l-5.3,2.9c-5,2.8-9.1,6.7-9.1,8.7
			C192,825.3,195.7,823.4,199.4,820.3L199.4,820.3z M264.2,817.5l3.3-1.4l-6-0.1c-3.5,0-10.6-1.3-17-3.1c-8.4-2.3-12.9-3-19.2-3
			c-4.6,0.1-8.5-0.3-8.8-0.9c-0.4-0.6-1.1-0.8-1.6-0.5c-1.9,1.2-0.8,2.3,3.3,2.9c2.3,0.4,8.9,2.3,14.7,4.2c5.8,2,12.4,3.9,14.6,4.3
			C252,820.7,259.3,819.6,264.2,817.5z M321.1,812.5c-5.3-4.6-6.6-9.9-6.6-28.3c0-17.5-0.1-17.7-4.6-8.9
			c-6.6,12.7-5.7,26.1,2.4,34.6c3.5,3.6,6,4.9,9.5,5C324.1,815,324,814.9,321.1,812.5L321.1,812.5z M130.9,807.2
			c3.7-1.9,6.1-3.8,7.5-6.3c2-3.6,2-3.8,0.3-9.3c-2.1-6.5-9.4-14.8-15.4-17.3c-4.8-2-5.3-2.7-5.3-8.9c0-6.1,0.8-6.9,7.5-7.9
			c6.9-1,10.6-2.7,13.8-6.4c9.6-11.5-1.5-24.5-22.8-26.7c-7.5-0.8-8.5-1.8-8.5-8.6s0.7-7.2,11.8-7.9c17.1-1.2,27-6,30.5-14.8
			c1.7-4,1.3-7.1-1.3-12.2c-6.8-13.3-28.2-15.7-48.9-5.7c-9.2,4.5-20.6,15.9-25.4,25.5c-15.3,30.3-11,74.6,9.3,95.7
			c3.3,3.4,8.4,7.5,11.3,9C107.2,811.4,121,812.1,130.9,807.2L130.9,807.2z M398.6,805.6c-1.3-1.9-2.6-5.6-3-8.3
			c-0.9-6.7,1.1-23.6,4.4-37.1l2.8-11.4l-2.7,0.7c-1.4,0.3-3.1,1.3-3.7,2c-1.6,2.1-7.3,26-8,33.6c-1.1,10.8,3.1,20.8,9.6,23.2
			C400.9,809.3,400.9,809,398.6,805.6L398.6,805.6z M496.5,801c1.7-0.7,1.6-0.9-0.9-0.9c-4.7-0.1-11.2-4.6-14.3-9.8
			c-2.9-5.1-4.2-10-5.1-21.3l-0.7-7.5l-1.9,4.5c-2.7,6.5-3.3,17-1.2,22.3c1.8,4.7,6.3,9.7,11.1,12.1
			C486.7,802.1,493.3,802.4,496.5,801L496.5,801z M333.2,792.8c-1.4-2.8-3.2-7.6-3.9-10.7l-1.3-5.6l0.3,9.6
			c0.2,7.2,0.7,10.3,2.1,12.3c1.7,2.6,1.9,2.7,3.6,1.1C335.8,797.9,335.7,797.7,333.2,792.8L333.2,792.8z M416.3,791.9
			c3.5-4.1,3.5-4.1,2-7.7c-1-2.2-1.8-8-2.1-14.2l-0.5-10.5l-1.8,7c-4.6,17.8-5.4,29.5-2,29.5C412.4,796,414.4,794.2,416.3,791.9z
			 M227.1,779c2.9-7.6,4.7-17.7,5.4-30c0.3-5.8,0.8-13.9,1-18c0.5-7,0.4-7.4-1.1-5.5c-3.3,4.1-8.4,16.2-9.8,23.5
			c-0.9,4.4-1.6,14.8-1.8,25.2l-0.3,17.7l2.3-3.7C224,786.2,225.9,782,227.1,779L227.1,779z M350.4,778.3c0.9-4.3,2-11.6,2.3-16.3
			l0.6-8.5l-3.8,4.5c-4.6,5.4-6.5,9.7-6.5,14.5c0,3.7,3.6,13.5,5,13.5C348.4,786,349.5,782.5,350.4,778.3z M436.3,769.9
			c4.4-11.4,6.5-24.9,3.7-24.9c-1.3,0-6,7.6-8,12.9c-2.3,5.9-2.5,10.7-0.8,16.3C432.6,778.8,432.9,778.5,436.3,769.9L436.3,769.9z
			 M593,763.3c16.2-4.5,26.3-14.1,32.3-31c4-11.1,5.3-22.3,3.8-34.5c-4.6-37.9-20-61.3-45.8-69.6c-12.2-4-23.8-3.7-34.3,0.9
			c-9.9,4.4-15.6,13.6-13,21.3c3.6,11.1,14.3,15.7,31.5,13.6c6.5-0.8,9.8-0.9,11.8-0.1c2.7,1.1,2.8,1.3,2.5,7.8l-0.3,6.8l-6,1.6
			c-12.8,3.5-19.2,7.5-22.6,14c-1.7,3.5-1.8,4.5-0.9,7.5c1.6,4.6,5.7,9.4,9.7,11c1.8,0.8,6.1,1.4,9.6,1.4c3.6,0,6.8,0.5,7.5,1.2
			c1.6,1.6,1.6,11.4,0,12.7c-15.3,11.9-19.9,23.6-12.5,31.7C572.2,766,579.6,767.1,593,763.3L593,763.3z M495.6,752.4
			c0.8-1.8,1.4-3.7,1.4-4.1c-0.1-1-5,6.9-5,8C492,758.1,494.3,755.6,495.6,752.4z M271.3,748.8c6-6.1,9.1-12.9,9.1-20.3
			c0-3.3-0.6-7.3-1.4-9c-1.4-2.8-1.5-2.4-2,8c-0.4,9.7-0.9,11.6-3.4,16.3c-1.6,2.8-4.3,6.1-6,7.2c-1.7,1.1-2.5,2-1.8,2
			S269,751.1,271.3,748.8L271.3,748.8z M513.2,748.2c0.3-1.1-0.1-3-0.8-4.3c-1.3-2.3-1.3-2.1-1.4,2.4C511,751,512.2,752,513.2,748.2
			L513.2,748.2z M259.8,735.5c5-6.4,4.9-15.6-0.3-20.5l-2.4-2.3l-3.5,3.5c-3.5,3.5-5,7.5-6.2,16.6l-0.7,5.2h5.6
			C257,738,258.1,737.6,259.8,735.5L259.8,735.5z M123.6,632.4c5.7-2.7,12.6-9.5,16.7-16.4c4.8-8.3,13.5-46,17.3-75.8
			c2.3-17.7,2.3-46.6,0-59.7c-2.1-11.8-6.7-26.8-10.6-34.5c-4-7.9-11.3-17.2-17.3-22.1c-7.7-6.2-8.7-7.6-8.7-12.1
			c0-6.6,1.2-7.8,7.9-7.8c4.8,0,6.5,0.5,9.7,2.8c6.5,4.7,16.6,16.5,21.3,24.7c16.1,28,20.2,75.8,11.5,131.4
			c-2.3,14.6-2.3,15.5-0.7,17.3c2.6,2.9,12.7,8.3,23.1,12.3c9.3,3.6,9.4,3.6,14,2.1c25-8.3,63.9-8.7,84.9-0.9c1,0.4-1.2-2.5-4.8-6.4
			c-8.7-9.3-14.9-18.1-21.3-30.2c-4.7-9-5.3-9.8-6.4-8c-1,1.5-2.4,1.9-7,1.9c-3.2,0-6.3-0.5-7-1.2c-2-2-1.5-10.6,0.9-14.4
			c3-4.8,10.6-11.2,14.8-12.4c8-2.2,18.9-0.6,21.6,3.3c1.7,2.5,2,8.9,0.5,11.8c-0.6,1-2,1.9-3,1.9c-1.1,0-2,0.3-2,0.6
			c0,1.8,8.3,15.9,13.3,22.7c15.1,20.4,33.6,32.8,55.7,37.3c15.5,3.1,35.4,0.3,45-6.3c11.3-7.7,28.1-14.7,43.2-17.9
			c10.4-2.3,39.6-2.5,50.8-0.5c9,1.6,21.4,5.3,29.3,8.9l5.8,2.5l9.7-2.7c46.3-13.1,81.5-37.5,100.3-69.7
			c12-20.7,18.2-49.1,15.8-73.7c-3.5-37.2-14.8-62.2-39.4-86.7c-35-34.9-95.2-58.9-164-65.5c-27.9-2.7-56.7-19.1-72.2-41.1
			c-22.1-31.6-68.5-49.7-115.3-45c-31,3.2-74.4,15.7-94.7,27.3c-40.8,23.3-74.9,69.4-93.3,126.3c-1.8,5.5-5.5,15.2-8.3,21.4
			c-5.8,13.4-13.8,34.3-13.3,34.8c0.2,0.2,1.8-3.2,3.6-7.7c4.8-11.9,5.9-13,13-13h5.9l0.6-3.7c1.7-10.5,5.8-18.9,10.6-21.7
			c3.1-1.8,10.1-2.1,13-0.6c2.7,1.5,5.4,7.4,6.8,15c4.4,22.8,18.3,51,35.9,72.8c6.2,7.7,10.2,17.2,13.4,31.2
			c2.1,9.6,2.3,12.8,2.3,38c0,31.4-0.8,38.4-8,66.5c-5.6,21.9-7.8,27.8-12.9,33.3c-6,6.6-10.2,8.2-21.6,8.2
			c-8.4,0-10.2-0.3-15.5-2.8c-12.2-5.8-26.6-20.5-35-35.7C47.2,570,38,540.7,35.1,513.8c-1.6-14-1.3-39.8,0.4-53.4
			c0.9-6.4,1.4-11.8,1.2-12.1c-0.6-0.6-4.6,18.9-6.9,33.7c-2.5,16.2-3,44.1-0.9,56.5c7.1,43,28.4,74.1,61.6,90.1
			C106.7,636.4,113.6,637.2,123.6,632.4L123.6,632.4z M359.9,625l5-6.5l-11.7-0.6c-6.5-0.4-12.7-0.9-13.8-1.2c-1-0.3-3-0.9-4.3-1.2
			c-1.5-0.5,1.1,2.6,7.5,8.8c7.6,7.3,10.2,9.3,11.1,8.4C354.3,632,357.1,628.6,359.9,625L359.9,625z"/>
		<path class="st0" d="M474.5,471.7c-11.2-2.9-19.1-9.3-23.2-18.7c-2-4.6-2.8-18.4-1.4-23.5c0.6-2.2,2.4-6.1,4-8.7
			c2.6-4,4.3-5.3,12.3-9.2c13-6.3,23.2-8.6,38.8-8.6c23.5,0,35.9,6,43.2,20.9c1.8,3.5,2.4,6.8,2.6,13.8c0.4,10.8-1.4,16-7.6,21.4
			c-4.3,3.8-15.5,9.2-23.7,11.5C511.5,472.8,481.6,473.5,474.5,471.7L474.5,471.7z M519.4,434c3.4-1.3,3.3-2.6-0.4-3.9
			c-2.1-0.7-3.9-0.7-6,0c-3.6,1.3-3.8,2.2-0.7,3.7C515.1,435.2,516.3,435.2,519.4,434L519.4,434z"/>
		<path class="st0" d="M280.2,386.8c-0.7-0.7-1.2-3.7-1.2-6.7c0-5.3,0.1-5.6,5.6-10.9c3-2.9,8.1-6.6,11.2-8
			c5.3-2.5,6.6-2.7,19.7-2.7c12.8,0.1,14.6,0.3,20.9,2.8c7.4,2.9,16.7,8.3,20.4,11.7c1.7,1.6,2.2,3.2,2.2,7.3c0,2.9-0.5,5.8-1.2,6.5
			s-3.5,1.2-6.4,1.2c-4.4,0-6.1-0.6-12-4.5c-6.4-4.2-20-9.5-24.4-9.5c-4.7,0-13,4.2-17.7,9c-4.6,4.7-5,4.9-10.3,5
			C283.9,388,280.9,387.5,280.2,386.8L280.2,386.8z"/>
		<path class="st0" d="M373.4,385.5c-2.4-3.6-1.4-9.8,2.9-18.9c4.2-8.8,10.7-15.8,17.5-18.8c6.5-2.9,19.7-3.6,28.2-1.4
			c10,2.6,11,3.5,11,10.5c0,3.9-0.5,6.3-1.5,7.1c-1.7,1.4-9.8,0.9-17-1.3c-9.7-2.8-17,2.2-24,16.6l-4,8.2l-5.7,0.3
			C375.6,388.1,375,387.9,373.4,385.5L373.4,385.5z"/>
		<path class="st0" d="M280.6,232.4c-1.1-1-1.6-3.4-1.6-6.8c0-4.6,0.4-5.6,3.3-8.3c6-5.7,9.2-6.8,20.2-6.8c10.8,0,14.4,1.2,21.4,7
			c2.8,2.4,3.1,3.3,3.1,8c0,6.9-1.6,8.5-8,8.5c-3.6,0-5.6-0.6-7.7-2.4c-6.8-5.6-9.5-5.8-15.7-1.1c-3.7,2.8-5.5,3.5-9,3.5
			C283.9,234,281.5,233.4,280.6,232.4L280.6,232.4z"/>
		<path class="st0" d="M399.2,228.3c-0.5-1-1.5-4-2.1-6.8c-2.7-10.9-9.2-17.4-17.7-17.5c-3.8,0-13.1,2.7-16.2,4.7
			c-3.2,2-7,0.9-7.8-2.2c-0.8-3.4,0.5-4.7,7.9-8c4.5-2.1,8.3-3,13.9-3.3c6.9-0.4,8.4-0.2,13.2,2.2c8.5,4.2,13.3,11,16.1,22.7
			c0.9,4.3,1.1,6.8,0.4,8.1C405.6,230.6,400.4,230.6,399.2,228.3L399.2,228.3z"/>
	</g>
	<g>
		<path class="st1" d="M364.3,922.9c-8.3-4.3-19.3-9.5-24.4-11.5c-13.8-5.2-44.9-14-62.1-17.5c-55-11.1-98.5-31.8-128.2-61.1
			c-11.1-10.9-11.9-12-10.2-13.1c5-3.1,10.6-9.2,12.2-13.3c1.2-3.2,1.5-6.4,1.2-12.1c-0.5-9.2-2.8-14.9-8.5-21.3l-4-4.4l4.4-2.8
			c8.6-5.5,13.7-18.7,11.3-29.5c-1.4-6.1-5.2-12.7-9-15.5c-1.7-1.2-3-2.4-3-2.7s2.5-1.9,5.5-3.5c9.1-4.7,14.4-12.8,15.3-23.1
			c0.9-11.5-4.9-24.2-13.3-29.3c-2.4-1.5-4.5-3.1-4.5-3.5c0-1.6,7.9-12.3,14-18.9c15.8-17.3,40.4-30.4,68-36.4
			c10.5-2.3,35.4-2.5,44.5-0.5c27.9,6.3,54.7,23.3,72.4,46.1c7.5,9.6,8.5,9.3,17-3.6c7.6-11.6,24-28.8,34.8-36.6
			c13.2-9.5,27.2-15.8,43.6-19.5c10.7-2.4,32.5-2.2,44.7,0.4c17.6,3.8,37.6,13,49.8,23c2.3,1.9,4.2,3.8,4.2,4.2s-1.1,1.3-2.4,1.9
			c-4.3,1.9-9.7,7.4-12.3,12.6c-2.1,4.1-2.7,6.9-3.1,14.1c-0.4,8.6-0.3,9.3,3,15.5c3.9,7.5,9.3,12.1,17.3,14.6l5.4,1.7l-3.3,3.7
			c-11.9,13.2-6.7,37.5,9.5,44c1.8,0.7,3.5,1.4,3.7,1.5c0.1,0.1-1.3,2.8-3.2,5.9c-5.5,9.1-6.9,18.9-4.1,28.2
			c2,6.7,6.4,11.7,13.3,15.1c5,2.5,6.8,2.8,15.2,2.8c5.2,0,11.4-0.3,13.7-0.8l4.2-0.7l-1.9,5.5c-6.2,18-20.9,35.6-44.2,53.1
			c-20.4,15.2-35.2,23.2-61.3,32.9c-43.8,16.3-84.3,38.7-106,58.7l-4.1,3.7L364.3,922.9L364.3,922.9z M368.3,904.6
			c5.5-2,11.2-6.2,14.9-11.1l3.2-4.2l4.1,4.4c3.4,3.8,4.7,4.6,8.6,5c2.6,0.3,6.3,0,8.3-0.7c4.4-1.4,12.8-8.9,19.7-17.6l5-6.4
			l-0.6-5.5c-1.2-9.4-4.5-10.9-9.6-4.2c-4.2,5.4-10.1,11.7-11.1,11.7c-1.9,0-1.7-8.4,0.8-27.9c3.4-27.2,4-26.1-12-20.1
			c-7,2.6-11.7,4.9-12,5.9c-0.3,0.9-1.5,9-2.6,18.1c-2.2,16.9-3.9,22.6-8.6,28.7c-5.2,6.8-7,3.3-6-11.6c0.3-5.3,1.5-15.4,2.6-22.6
			c2.6-16.9,2.5-17.2-9.4-13.1c-15,5.2-14.9,5.2-16.3,12.6c-2.3,12.9-3.4,30.2-2.3,38.2C347.1,901.3,356,909,368.3,904.6
			L368.3,904.6z M200.8,833.9c2.4-1.2,6.6-4.4,9.3-7.1l5-4.9l12.7,4.2c25.9,8.7,42.2,5.9,61.6-10.7c4.3-3.6,7.9-6.4,8-6.2
			c0.2,0.1,1.1,1.7,2,3.5c2.4,4.7,8.2,10,13.2,11.9c6.5,2.5,16.5,1.5,23.4-2.2c4.6-2.5,16-13.5,16-15.5c0-0.4,2.1-0.1,4.8,0.7
			c5.7,1.8,10,1.2,16.8-2.5l5.1-2.8l1.3,3.5c3.4,9.4,12.6,14.9,23.5,13.9c9.3-0.9,16.5-4.8,25.3-13.5c6.2-6.1,7.6-7.1,9.2-6.2
			c3.3,1.8,12.7,1.2,17.5-1.1c2.5-1.2,4.8-2.5,5.1-3c1-1.6,2.1-0.9,3.4,2.1c2,4.7,10,11.5,16,13.5c4.1,1.3,7.2,1.6,13.3,1.2
			c11.6-0.8,20.1-5.2,31.8-16.6l8.9-8.7v-7c0-12.2-2.9-12.4-14.2-1c-9,9.2-13.5,11.4-20.2,10.2c-3.6-0.7-9.6-5.7-9.6-8.1
			c0-0.8,3.7-3.2,8.3-5.4c14.5-7.2,23.4-15.6,25.8-24.4c2.5-9.3-2.9-19.8-11.7-22.7c-6-2-17.9-0.8-24.3,2.4
			c-13.3,6.8-24.9,23.5-27.6,39.6c-0.6,3.5-1.9,5.6-5.8,9.7c-5.4,5.6-7.6,6.8-10.6,5.8c-1.8-0.5-1.7-0.9,1.1-7.5
			c4.4-10.7,6.8-21.3,6.8-30.5c0-6.9-0.4-8.8-2.2-11.5c-8.1-12-25.4,0.3-29.9,21.1c-1.5,7.1-0.6,18.6,2,24.4c1.2,2.6,2.1,5.3,2.1,6
			s-2.2,3.6-4.9,6.5c-4,4.2-5.4,5.1-7.7,4.8c-7.1-0.8-6.8-10.7,1.1-42.6c2.5-10.1,4.5-18.9,4.5-19.7c0-3.5-3.5-3.4-16.6,0.1
			c-7.1,1.9-13.2,3.8-13.5,4.2c-1,1.1-7.7,28.2-8.5,34.3c-0.6,4.9-1.3,6-6.9,11.7c-4.4,4.4-7,6.2-8.8,6.2c-1.4,0-2.8-0.4-3.2-1
			c-0.3-0.5,0.4-5.5,1.6-11.2c2.9-13.7,3.2-32.2,0.6-36.1c-3.1-4.8-6.9-6-17.6-5.5c-11.6,0.6-18.7,2.9-27.4,9.2
			c-10.8,7.6-20,22.2-21.4,33.6c-0.5,4.6-1.3,6-6,11c-2.9,3.1-7.5,6.9-10.3,8.4c-7.9,4.3-12.5,4.4-29,0.2c-7.9-2-15.4-3.6-16.7-3.6
			s-2.3-0.2-2.3-0.4s1.8-4.2,4-8.8c5.2-11,6.8-19,8.5-44.2c0.8-11.6,1.9-22.9,2.6-25.1c2.7-9.6,12.1-13.6,17.3-7.5
			c6,7.2,4,22.8-3.7,28.4c-2.3,1.7-3.1,1.8-4.7,0.8c-5.1-3.2-8-0.4-8,7.5c0,5.7,2.6,10.4,7.2,13.4c4.8,3,14.2,2.2,20.6-1.8
			c5.7-3.5,11.5-10.9,14.4-18.3c3-7.7,3.1-22.5,0.1-29.1c-2.7-6-7.5-11.4-13.2-14.7c-4.2-2.5-5.4-2.7-15.6-2.7
			c-10.2,0-11.4,0.2-16.9,3c-7.4,3.7-15.5,11.1-20.5,18.4c-5.4,7.9-6.7,10.8-9.7,20.8c-2.3,7.9-2.7,11.1-3.3,31.3
			c-0.6,19.7-0.9,23.1-2.7,27c-1.9,4-2.7,4.7-7.5,6.4c-11.5,4-19,11.7-19.1,19.8c-0.1,6.1,0.9,8.7,4.5,10.9
			C189.5,836.6,195.3,836.5,200.8,833.9L200.8,833.9z M365.5,732c3-1.9,8.4-8.3,12.8-15.3c3-4.6,0.5-13.7-3.7-13.7
			c-1.7,0-3.2,1.4-5.7,5.3c-3,4.8-3.3,5-3.7,2.7c-0.2-1.4,0.1-9.2,0.8-17.3c1.1-13.3,1.1-15-0.3-16.4c-1.4-1.5-2-1.5-5.9,0.1
			c-9.9,3.9-13.2,6-14.1,9.1c-0.5,1.7-1,9.8-1,18c-0.2,17,1.1,22.5,6.4,27C354.9,734.6,360.9,734.9,365.5,732L365.5,732z
			 M363.1,673.3c7-7,3.9-24.1-3.3-17.6c-1.4,1.3-3.6,1.8-7.6,1.8h-5.5l-1.3,6c-2.6,12.3-1.6,13.7,8.9,13.2
			C359.2,676.4,360.6,675.9,363.1,673.3z"/>
		<path class="st1" d="M328.8,803.3c-2.4-2.9-2.7-3.7-3.8-11.2c-1.7-11.9,1.9-27.9,7.7-34.3c2.6-2.9,3.5-2.1,1.6,1.5
			c-1,1.9-1.8,6.4-2.1,11.2c-0.5,9.1,1.7,17.1,6.3,23.1l2.6,3.4l-2.1,3C335.4,805.1,331.4,806.3,328.8,803.3z"/>
		<path class="st1" d="M487,763.2c0-4.3,2.5-11.9,5.5-16.4c4.7-7.1,8.8-3.7,7,5.9c-0.7,3.8-5.5,9.7-9.6,11.9
			C487,766,487,766,487,763.2z"/>
	</g>
	<g>
		<path class="st2" d="M356.7,895c-3.8-4.4-5.1-12.4-4.3-26c0.4-6.3,1.2-14.4,1.9-17.9l1.2-6.3l4.9-1.9c2.8-1,5.1-1.7,5.3-1.5
			c0.2,0.2-0.1,3.2-0.6,6.7c-1.9,11.8-3.2,29.2-2.5,33.7c0.8,5.4,3.9,9.1,8.2,10l3.3,0.7l-4.3,2.8C364.1,899,359.9,898.9,356.7,895z
			"/>
		<path class="st2" d="M400,891.2c-3-1-5.8-4.5-7-8.9c-0.7-2.4-2.1-5-3.1-5.6c-1.2-0.8-1.5-1.6-0.9-2.7c0.5-0.9,1.8-8.8,3-17.6
			c1.1-8.7,2.4-16.5,2.8-17.3c0.4-0.7,2.9-2.1,5.5-3.1l4.7-1.8v3.1c0,1.8-0.7,7.7-1.5,13.2c-2,13.4-1.9,24.8,0,28.6
			c1.8,3.4,5.7,5.3,8.9,4.3c1.8-0.5,1.7-0.2-0.9,2.5C408.2,889.3,402.3,892,400,891.2z"/>
		<path class="st2" d="M189.6,827.5c-4.9-5,3.4-14.4,16.1-18.1c4.8-1.4,5.4-1.9,7.8-6.9c3.4-6.8,4.4-15,4.5-34.2
			c0-18.4,1.6-26.9,6.9-37.8c3.8-7.7,12.3-18.4,16.1-20.5c1.7-0.9,1.6-0.3-0.7,4.6c-2,4.3-2.7,8.2-3.4,16.8
			c-0.5,6.1-1.3,17-1.8,24.1c-1.5,19.5-5,30.4-13.1,41.2c-6.1,8.1-5,10.8,4.1,9.7c4.3-0.4,8.2,0.2,19.4,3.1
			c12.1,3.2,15.2,3.6,22.5,3.3c5.6-0.3,9.9-1,12.5-2.3c2.2-1,4.5-2.1,5-2.3c0.6-0.3-1.2,1.4-4,3.7c-9.7,8.2-24.1,13-34.3,11.5
			c-2.6-0.4-9.9-2.4-16.4-4.5c-6.4-2.1-13.3-4.1-15.5-4.4c-3.6-0.6-4.1-0.3-9.1,5C198.7,827.3,192.5,830.3,189.6,827.5L189.6,827.5z
			"/>
		<path class="st2" d="M317,817.8c-14.4-4-19.3-26.8-9.9-45.7c3.2-6.3,11.4-15.4,16.8-18.5l3.3-1.8l-2.6,3.8
			c-5.4,8.2-6.9,14.7-7,29.4c-0.1,12.5,0.1,13.9,2.4,18.5c3.3,6.6,8.1,9.9,13.5,9.2c3.8-0.5,3.9-0.5,2,1
			C330.4,817.6,322.4,819.4,317,817.8L317,817.8z"/>
		<path class="st2" d="M394.4,811c-6.6-2.7-10-12.4-9.1-26.4c0.5-8.2,5.6-31.7,7.8-35.7c0.6-1.3,11.3-4.9,14.2-4.9
			c0.3,0-1,6-2.9,13.3c-5.8,23.3-7.1,37.4-4,43.6c2.2,4.3,7.2,7.3,11.4,6.8c1.7-0.1,3.2-0.1,3.2,0c0,0.2-1.9,1.3-4.2,2.3
			C406.3,812,398.1,812.5,394.4,811L394.4,811z"/>
		<path class="st2" d="M488.4,805.4c-0.5-0.1-2.5-0.5-4.5-0.8c-4.1-0.7-11.2-6.4-13.5-10.8c-6.5-12.5-1.6-34,10.6-47l5-5.3l-2.4,5
			c-8.2,16.7-4.2,40.9,7.8,48c5.2,3.1,15.7,3.5,20.9,0.9l3.2-1.7l-2.4,2.7c-3.5,3.7-11.9,7.6-18.3,8.5
			C491.8,805.3,488.9,805.5,488.4,805.4L488.4,805.4z"/>
		<path class="st2" d="M349,795.8c0-0.6-1.2-2.6-2.6-4.5c-4.4-5.8-6.7-12.3-6.7-18.8c0-7.1,1.7-11.4,6.7-17.3c2-2.4,3.6-5.2,3.6-6.2
			c0-2.4,3.7-1.5,5.2,1.3c1.8,3.4,0.3,22.7-2.7,34.4c-1.4,5.7-2.3,10.7-2,11.3c0.3,0.5,0.1,1-0.4,1C349.5,797,349,796.5,349,795.8z"
			/>
		<path class="st2" d="M430,781.9c-3.2-7.1-3.9-18.8-1.6-25.7c3.2-9.7,10.9-18,14.5-15.8c3.7,2.3,1.5,19.7-4.5,34.6
			C433.2,788.1,432.8,788.3,430,781.9z"/>
		<path class="st2" d="M504.5,760.8c4.6-8,4.5-17.3-0.1-22.8c-2.5-2.9-2.5-3-0.5-3c6.9,0,13.1,5.5,13.1,11.5
			c0,5.5-6.2,13.8-12.9,17.4C502.2,764.9,502.3,764.8,504.5,760.8L504.5,760.8z"/>
		<path class="st2" d="M256.7,755.2c-2.8-3-2.2-5.2,1.4-5.2c5.1,0,9.5-3.4,12.8-10.2c2.8-5.4,3.1-7.1,3.1-15
			c0-9.9-1.2-13.8-5.6-18.2l-2.9-2.9l3,0.7c5.9,1.5,12,7.6,14.3,14.5c1.7,4.8,1.5,14-0.4,19.9c-2,6.3-7.8,13.9-12.4,16.4
			C265.4,757.6,258.8,757.6,256.7,755.2z"/>
		<path class="st2" d="M355.8,725.3c-2.7-3.2-3.8-8.4-3.8-18.7c0-14.2,0.7-17.4,4-19.1l2.8-1.4l-0.5,15.2
			c-0.5,14.5-0.4,15.3,1.6,17.5c1.2,1.2,2.8,2.2,3.6,2.2c2.4,0,1.7,1.7-1.4,3.9C358.6,727.5,357.7,727.5,355.8,725.3L355.8,725.3z"
			/>
		<path class="st2" d="M352.4,668.4c0.3-0.9,0.6-2,0.6-2.5s1.4-0.9,3-0.9c3.6,0,3.8,1.3,0.8,3.4
			C353.9,670.5,351.6,670.5,352.4,668.4z"/>
	</g>
	<g>
		<path class="st3" d="M296,1147.9c-8.5-0.4-21.3-1.2-28.5-1.8c-22.5-1.8-59.4-3.4-68.9-2.9c-23.9,1.3-37.8-6.2-37.8-20.3
			c0-6.3,3.5-16.6,7.3-21.2c9.8-11.9,34.3-22.1,69.4-29.1c17.4-3.4,24.2-5.5,25-7.8c1.3-3.6,12.5-76.3,12-77.8c-0.3-1-2-2.4-3.7-3.1
			c-6.5-2.7-21.5-13.4-29.2-20.8c-21.5-20.7-26.9-43.2-16.2-66.8l2.4-5.1l10.6,3.3c5.8,1.9,17.9,5,26.8,7
			c28.3,6.3,40.8,9.6,58.8,15.5s20.8,7.1,42,18.3c6.9,3.7,13.3,6.7,14.3,6.7s5.5-3.2,10-7.1c19.7-17.1,47.3-33.6,79.7-47.6
			c6.3-2.8,12.6-5.4,13.9-5.8l2.4-0.7l-0.6,9c-1.6,22.7-9.7,46.4-21.2,62.7c-5.3,7.5-15.8,17.5-22.2,21.1c-9,5.1-8.3,2.3-8.3,33.4
			c0,19.4,0.3,27.9,1.1,28.7c0.9,0.9,8.2,1,26.8,0.6c92.4-2.1,150.5,17.2,159.5,53.2c3.6,14.3-2.5,22.5-20.5,27.4
			c-10.1,2.8-13.7,2.8-14.3-0.1c-6.2-32.7-19.8-51.2-37.6-51.3c-5,0-5.5,0.2-6.4,2.7c-1.2,3.4,1.4,6.8,5.2,6.8
			c7.3,0,16.2,7.8,21.4,18.6c2.9,6.3,8.4,26.1,7.4,27.1c-1.6,1.7-13.9,3.5-26.9,4c-15.4,0.6-24.4-0.3-35.2-3.6c-5.4-1.6-6-2-5.7-4.2
			c0.2-1.3,0.6-6.5,0.9-11.6c0.4-8.4,0.3-9.6-2.3-15.2c-8.1-18.3-34.5-30.2-78.4-35.5c-15.3-1.9-43.3-3.6-59.9-3.6h-12.4l0.7-5.2
			c0.3-2.9,0.9-16.1,1.2-29.4c0.7-24.7,0.2-29.4-3.3-32.9c-1.7-1.8-6.4-2-8.1-0.3c-1.6,1.6-1.5,4.9,0.3,7.2
			c1.9,2.4,1.9,30.6,0.1,49.1l-1.1,12l-9,0.3c-6.5,0.2-9.4,0.7-10.7,1.9c-2.1,1.9-2.4,5.8-0.5,7c0.6,0.4,17.6,0.8,37.7,0.8
			c38.6,0.1,52.6,1,76.5,5c31,5.2,53,15.8,58.1,28c1.8,4.3,1.8,14.6,0,18.8c-4.2,10.2-20.1,17.6-40.2,18.9l-6.2,0.4l-0.5-5.5
			c-1.9-17.9-11.7-31.2-27.5-37.7c-7.7-3.2-12.9-3.2-14.3,0c-1.6,3.5,0.3,6.3,5.4,7.7c14.9,3.9,24.7,15.7,26.4,31.8l0.5,5.7
			l-4.8,2.1c-2.7,1.2-6.7,2.6-9,3.2c-6.3,1.7-22.3,2.9-29.4,2.2l-6.4-0.6l-2.7-10.5c-4.3-17.1-11.2-29.2-19.1-33.4
			c-4.5-2.4-8.5-1.6-9.4,1.9c-0.5,2.1,0.4,3.5,5.8,8.7c5.4,5.3,6.9,7.5,9.2,13.8c2.8,7.6,5.6,18.1,5.6,21.2
			C382,1148.1,342.6,1150.3,296,1147.9L296,1147.9z"/>
		<path class="st3" d="M102,963.4c-0.8-0.4-4.6-2.5-8.4-4.7c-7.4-4.3-7.4-4.9,0.2-6.2c3.8-0.6,4.8-1.5,10.8-9
			c12.7-16.4,20.6-21.2,32.8-20.3c4.4,0.4,8.2,1.6,13.4,4.2c8.9,4.5,27.5,9.4,38.5,10.2c7.8,0.5,9.9,0.2,20.5-3.1
			c1.7-0.6,2.2-0.3,2.2,1.1c0,1.1,0.9,3.8,2,6.2c2,4.3,2,4.4,0,8.2c-2.8,5.4-9.3,10.6-15,12c-6,1.4-14,0.1-21.9-3.6
			c-4.4-2.1-7.6-2.8-14.6-3.2c-7.9-0.4-9.9-0.1-16.5,2.3c-4.1,1.4-10.4,3.3-14,4C124.8,963.1,104.4,964.4,102,963.4L102,963.4z"/>
		<path class="st3" d="M104.1,812.5c-23.4-5.3-37.8-25.9-41.2-58.8c-2.1-19.8,1.2-41.1,8.8-56c4.8-9.6,16.2-21,25.4-25.5
			c18.1-8.7,42.6-8.5,51.1,0.6c6,6.4,8.2,15.4,5.4,22.7c-3.5,9-13.5,14.3-29,15.2c-11.2,0.6-12.5,1-13.2,3.7c-1.1,4.5,0.9,6.3,8.1,7
			c13.7,1.4,24.1,7.7,26.3,16c2.1,7.3-1.8,17.4-8,20.7c-1.1,0.6-4.9,1.6-8.5,2.3c-7.2,1.3-9,2.8-7.9,6.9c0.4,1.8,1.7,2.9,4.2,3.7
			c5.2,1.7,13.8,10.8,15.8,16.6c3.8,11.2,0.9,19.3-8.3,23.3C126.4,813.7,112.8,814.5,104.1,812.5L104.1,812.5z"/>
		<path class="st3" d="M570.6,767.6c-8.3-3.1-12.4-10.4-11.1-19.5c1.2-8.2,6.3-15.4,16.3-23.2c1.5-1.2,1.6-5.1,0-6.7
			c-0.7-0.7-3.9-1.2-7.4-1.2c-10,0-15-2.8-18.5-10.5c-4.8-10.4,0.2-20.9,12.7-26.1c2.1-0.9,6.6-2.4,9.9-3.3c5.9-1.6,6-1.7,6.3-5.4
			c0.4-4.8-1.7-5.7-10.2-4.4c-6.7,0.9-17,0.4-22.8-1.3c-8-2.3-13.7-10.3-13.8-19.1c0-6.4,1.7-10.8,5.8-15.1
			c11.3-11.9,40.3-12.9,59.2-2.1c18.8,10.8,29.9,30.4,34.5,60.8c5.1,33.7-4.7,61.5-25.2,71.9C595.3,767.9,578.2,770.4,570.6,767.6
			L570.6,767.6z"/>
		<path class="st3" d="M344,631.8c-20.1-21.2-45.3-34.9-72.5-39.4c-18.3-3-42.9-0.7-62.2,5.7l-6.1,2l-10.7-4
			c-10.7-4-20.9-9.3-25.3-13l-2.3-2l2.5-14.8c4.1-24.4,5-35.7,5-58.8c-0.1-18-0.5-24.2-2.3-34c-4.2-23.3-12-40.7-24.1-53.8
			c-11.1-12-18.3-15.7-21-10.7c-1.7,3.2-0.5,5.3,6.4,10.7c7,5.6,14.3,14.9,18.6,23.3c3.9,7.7,8.5,22.7,10.6,34.5
			c2.4,13.4,2.4,47.6,0.1,65.7c-4,30-12.6,67.5-17.4,75.8c-9.3,15.8-24.1,22.7-40.3,18.6c-9.4-2.4-23.3-9.3-32.6-16.4
			C46.3,603,31.8,577,25.9,541.5c-2-11.8-1.7-45.1,0.5-60c5-34.1,16.2-72.4,30.3-104c2.5-5.5,6.7-16.3,9.3-24
			c17.7-52.2,42.9-89.7,77.7-115.9c11.7-8.8,20.8-13.8,34.8-19.1c36.4-13.9,71.9-20.5,101.5-19.1c42,2,76.4,18.4,95.3,45.5
			c9.3,13.2,23.1,24.3,39.9,32c12.6,5.8,20.2,7.9,32.3,9.1c16,1.5,40,5.7,55.8,9.6c64.7,16.3,112.4,48.4,133.6,89.8
			c10.9,21.4,16.5,52.7,14.1,79.2c-3,33.8-14.5,58.1-38.3,81.1c-19.3,18.6-46.5,33.1-79.8,42.4l-11.2,3.2l-5.1-2.3
			c-9.1-3.9-21.8-8-30.6-9.7c-11.8-2.3-35.7-2.3-46.8,0.1c-15.1,3.2-31.9,10.2-43.2,17.9c-6.6,4.6-15.6,6.8-30.1,7.4
			c-9.6,0.4-14.5,0.1-21-1.2c-28.3-5.7-51.2-24.8-67.3-56.3l-5.6-11l4,0.5c3.5,0.5,4.1,0.3,5.1-2c2.5-5.6-5.4-10.7-14.3-9.2
			c-4.7,0.8-11,5.4-15.5,11.4c-4.9,6.4-4.1,11.1,1.8,11.1c2.1,0,3.5-1,5.6-4c1.5-2.2,3-4,3.3-4s2.7,4.4,5.4,9.8
			c16.2,32.8,39.4,53.8,68.7,62.2c5.5,1.6,11.3,2.3,22.6,2.7l15.2,0.6l-5.3,5.8c-2.9,3.2-7.5,9-10.2,12.8c-2.7,3.9-5.1,7-5.4,6.9
			C352.7,640.8,348.7,636.7,344,631.8z M120.5,626.1c5.6-2.5,11.8-9.7,14.5-16.7c3.1-8.4,10.5-38,12.7-50.9
			c1.4-8.5,1.8-16.5,1.8-35.5c0-22-0.2-25.6-2.3-35c-3.2-14-7.2-23.5-13.4-31.2c-17.6-21.8-31.5-50-35.9-72.8
			c-1.5-8.2-4.3-13.8-7.5-15.2c-5.1-2.3-11.4,3.4-14.8,13.6c-2.2,6.5-3.5,23.5-2.9,36.9c0.5,10.3,0.4,11.4-1.5,13.7l-2,2.5l-0.7-2.6
			c-0.4-1.4-0.2-6.1,0.4-10.3c1.6-11.5,1.4-22.7-0.5-25.4c-1.9-2.7-6.4-2.9-8.8-0.4c-2.1,2.4-8.8,17.9-12.7,29.7
			c-15.5,46-12.7,98.9,7.6,146.6c10.9,25.4,26.4,44.2,43,52.1C104.8,628.6,114.2,629,120.5,626.1z M516.5,467.6
			c8.2-2.2,19.3-7.6,23.7-11.5c10.5-9.2,10.3-25-0.6-37.7c-6.9-8.1-19-12.4-34.6-12.4c-12.3,0-23.8,2.8-35.8,8.6
			c-8,3.9-9.7,5.2-12.3,9.2c-3.9,6.1-5.3,11.5-4.5,17.8c1.6,13.7,10.5,23.3,25.1,27.1C484.3,470.4,508.5,469.7,516.5,467.6
			L516.5,467.6z M294.3,380c5.6-5.7,13.2-9,20.7-9c7.2,0,19.5,4.3,27.5,9.5c7.2,4.8,10.9,5.4,12.8,2.4c2-3.1-0.1-6.3-6.9-10.8
			c-3.7-2.5-10.1-5.8-14.3-7.5c-6.8-2.7-8.7-3-18.6-3.1c-9.9,0-11.6,0.3-16.7,2.7c-7.2,3.3-16.8,12.4-16.8,15.9
			C282,386.7,287.8,386.7,294.3,380z M387.5,376.3c8.3-17,17.5-21.3,33.8-15.6c5.7,2.1,8,1.1,8.5-3.5c0.4-3.9-1.9-5.5-10.8-7.8
			c-19.3-4.9-34.9,4.9-42.6,26.9c-1.3,3.5-1.2,4.3,0.2,6.4c1.1,1.8,2.3,2.3,4.2,2.1C383.1,384.5,384.1,383.2,387.5,376.3
			L387.5,376.3z M292.5,227.5c2.5-1.9,6-3.7,7.9-4c3.8-0.8,9.3,1.2,13.8,5c3.4,2.9,6,3.2,8.2,0.9c3.8-3.8,0.6-8.7-8.8-13.7
			c-5.4-2.8-16.5-3-21.6-0.3c-8.4,4.4-12,10.4-8.4,14C285.9,231.7,287.5,231.4,292.5,227.5z"/>
		<path class="st3" d="M508.9,436.5c-7.7-4.3-1.1-11.6,9.3-10.2c12.2,1.6,11.5,10.7-1,11.4C513.5,437.9,510.6,437.5,508.9,436.5
			L508.9,436.5z"/>
	</g>
</g>
</svg>
