<?xml version="1.0" encoding="utf-8"?>
<!-- Generator: Adobe Illustrator 25.0.1, SVG Export Plug-In . SVG Version: 6.00 Build 0)  -->
<svg version="1.1" id="Layer_1" xmlns="http://www.w3.org/2000/svg" xmlns:xlink="http://www.w3.org/1999/xlink" x="0px" y="0px"
	 viewBox="0 0 3000 3000" style="enable-background:new 0 0 3000 3000;" xml:space="preserve">
<g>
	<path d="M1135.9,2369.9c-2.4-0.8-8.3-2-12.8-3c-19.8-4.2-29-7.2-45.8-15c-9.3-4.3-28.8-15.3-33-18.6c-0.8-0.6-6.2-4.5-12-8.9
		c-13.1-9.6-38.1-34.5-48.3-48.5c-6.8-8.9-17.3-28-21.5-39c-1.6-4.1-6.8-22.4-9-31.5c-4.3-18.6-5.3-24.1-9-56.1
		c-4.1-33.6-0.8-88.5,7.5-129.9c3-15,4.8-30.6,3.9-34.2c-0.8-3-2.3-3.9-10.2-5.6c-5.3-1-11.4-2.4-13.9-3.2
		c-43-11.9-57.3-17.9-82.3-34.8c-21.1-14.1-33-25.2-44.4-41.5c-2.1-2.8-4.1-5.6-4.5-6c-0.9-0.8-5.3-7.9-11.4-18.9
		c-9.4-17-17.1-44.7-17.1-62.8c0-35.5,19.6-71.3,46.5-84.3c13.5-6.6,26.1-8.6,42-6.8c7.1,0.8,13.4,1,14.1,0.6c2-1-0.3-13.5-4.5-25
		c-10.9-29.7-11.7-35.4-11.6-86.3c0.2-46.5,0.8-53.3,8.6-93c2.3-11.1,4.7-24,5.6-28.5c0.9-4.5,4.3-16.6,7.5-27
		c3.3-10.4,5.8-20.3,5.8-22c0-1.8,0.6-4.8,1.4-6.8c0.8-2,2.1-6.4,3.2-10.2c2.3-8.1,7.2-22.2,9.1-25.8c0.8-1.5,1.4-3.3,1.4-4.2
		c0-0.9,1.5-4.8,3.2-8.7c1.8-3.9,4.2-9.4,5.4-12.3c7.7-18,21-45.2,29.1-59.3c3.3-5.7,6.4-11.7,6.9-13.1c0.4-1.5,1.4-2.7,2.1-2.7
		c0.8,0,1.4-0.8,1.4-1.5c0-1.4,18.9-30.5,22.8-35.3c0.8-0.8,4.8-6.2,9-12c4.2-5.7,8.1-10.8,8.7-11.3c0.4-0.4,3.2-3.8,6-7.5
		c2.8-3.8,6.2-7.8,7.5-9c1.2-1.2,5.3-6,9-10.5c3.8-4.5,7.7-9.3,9-10.5c1.2-1.2,8.7-9.3,16.5-18s15.3-16.8,16.5-18s6-6.6,10.5-12
		s8.6-10.1,9-10.5s3.2-3.8,6-7.5c2.8-3.8,5.6-7.1,6-7.5s2.5-3.2,4.5-6s4.1-5.6,4.5-6c1.6-1.2,18.9-27.3,21.5-32.4
		c1.4-2.5,2-5.3,1.4-5.8c-0.6-0.8-0.3-0.8,0.8-0.3c1.8,1,19.6-33.9,26-50.7c1.8-4.9,3.9-10.4,4.7-12c2.4-5.4,7.3-25,10.5-41.3
		c3.9-21.1,5.8-34.7,11.9-85.5c2.8-23.3,5.8-42.6,9-57.5c1-4.7,1.5-9,1-9.6c-3.3-3.2-25.2,19.4-39.8,41c-5.8,8.7-8.4,12.9-16.5,27.6
		c-6.8,12.1-14.6,24.8-15.6,25.2c-0.8,0.3-1.2,1.4-1.2,2.4s-1.4,3.3-3.2,5.1c-6.3,6.8-26.9,42.9-26.9,47.1c0,1.6-18,37.7-19.4,38.7
		c-1.8,1.5-16.6,30.5-24.1,47.3c-7.1,16-18.6,37.7-22,41c-1,1-2,2.5-2,3.3s-0.9,2.3-1.8,3.3c-4.3,4.3-13.4,21-19.8,36.2
		c-6.2,14.3-7.7,17.7-13.8,30.3c-3.8,7.5-7.7,15.1-8.7,17.3c-4.3,7.5-11.4,23.9-11.4,26.1c0,1.2-0.6,2.5-1.2,3
		c-0.6,0.4-2.1,4.2-3.3,8.4c-1.2,4.2-2.7,7.9-3.3,8.4c-0.6,0.4-1.2,1.8-1.2,3c0,2-1.5,5.8-9.8,23.9c-5.8,12.8-12.9,30-17.3,42
		c-1.8,4.9-3.9,10.4-4.5,12s-2,5.4-3,8.3c-1,2.8-3.2,8.1-4.7,11.6c-1.6,3.6-2.8,7.2-2.8,7.9c0,0.9-1.4,4.5-3,7.8
		c-1.6,3.5-3,6.8-3,7.5c0,1-3,8.3-7.9,19.2c-1,2.1-2.3,4.1-2.7,4.5c-1.4,1.4-7.2,17-9.4,25.5c-3,11.6-6.6,22-9.8,27.6
		c-3.9,6.9-6.2,17.4-6.2,28.5c0,6-1,12.1-2.7,16.2c-2.7,6.3-4.2,12.9-7.8,32.7c-1,5.4-2.4,10.2-3.2,10.6s-2.4,7.5-3.5,15.8
		c-2,14.3-5.6,29.4-8.3,35.8c-0.6,1.6-2.1,5.1-3.2,7.5c-12.3,29.5-32.7,45.6-57.6,45.8c-6.9,0-10.2-0.8-13.9-3.3
		c-2.7-2-4.9-3.9-4.9-4.5c0-0.8-1.2-1.2-2.5-1.2c-1.4,0-2-0.4-1.5-0.9c0.4-0.6-0.9-2.7-3.2-4.9c-7.8-7.3-15.9-20.9-21.8-36.3
		c-5.3-13.8-7.5-22.6-11.6-45.5c-2-11.4-2-72.3,0-90c0.9-7.5,2.3-20.1,3-27.9c0.9-7.8,2.3-18,3-22.5c0.8-4.5,2.1-12.9,3-18.8
		c1.6-9.8,4.8-26.1,7.5-38.3c0.6-2.8,2-8.6,2.8-12.8c0.9-4.1,2.4-10.2,3.3-13.5c0.8-3.3,2.1-8.4,2.8-11.3
		c5.3-21.1,25.8-83.1,33.8-101.3c1-2.4,2.8-6.9,4.2-9.8c2.1-4.9,4.7-10.6,11.7-26.5c7.3-16.6,38.4-78.4,43.8-87.4
		c7.8-12.9,10.9-18.1,17.9-30.8c4.9-8.9,16.4-25.4,19.4-27.8c0.4-0.4,5.1-7.2,10.2-15c5.1-7.8,11.3-15.9,13.4-18
		c2.3-2.1,8.7-9.8,14.4-17c5.7-7.3,12.4-15.4,15-18.1c2.5-2.5,9.8-10.5,16-17.4c16.4-18.1,57.3-59.3,68.8-69
		c5.3-4.5,11.1-9.8,13.1-11.6c1.8-1.8,6-5.1,9-7.5c3.2-2.3,6-4.5,6.4-4.9s3.8-3.2,7.5-6c3.8-2.8,8.1-6.4,9.6-7.8
		c1.6-1.5,3.6-2.7,4.2-2.7c0.8,0,0.9-0.8,0.3-1.8c-0.6-0.9-0.4-1.2,0.6-0.6c0.9,0.4,2.4,0,3.6-1c3.2-3.2,33.9-23.5,35.5-23.5
		c0.8,0,1.6-0.4,2-1.2c0.4-1,26.3-17,40.2-24.6c3.8-2.1,9.4-5.3,12.8-7.2c7.1-4.1,99.8-50.4,111.8-56c4.5-2,13.4-6,19.5-8.9
		c6.2-3,13.6-6.3,16.5-7.5c2.8-1.4,8.7-3.9,12.8-5.7c25-11.3,58.2-23,81-28.4c4.2-1,9.9-2.4,12.8-3.2c15.4-3.9,35.3-7.7,63-11.9
		c5.4-0.9,22.6-2.4,38.5-3.3c48.3-3,131.9,2.8,175.6,12.3c22.8,4.9,38.5,8.9,53.5,13.2c4.9,1.5,12,3.6,15.8,4.7
		c7.8,2.1,14.4,4.3,18.8,6c1.6,0.6,5.4,2,8.3,3c2.8,1,6.6,2.4,8.3,3.2c1.6,0.6,6,2.3,9.8,3.5s9.1,3.2,12,4.3
		c2.8,1.4,7.8,3.3,10.9,4.7c3,1.4,8.1,3.5,11.3,4.8c15.4,6.6,55.5,27,69.8,35.7c13.6,8.1,37.3,24.6,40,27.8c0.4,0.6,3.3,2.8,6.4,5.1
		c3,2.4,7.1,5.7,9,7.5c1.8,1.8,7.1,6.3,11.6,10.1c22.4,18.5,51,47,60,60c2,2.8,4.1,5.6,4.5,6s2.5,3.2,4.7,6c2.3,2.8,6,7.7,8.6,10.5
		c2.5,2.8,6.4,9,8.7,13.5c3.3,6.9,10.8,18,14.1,21c2.7,2.5,10.6,13.9,14.6,21c6.6,12,9.6,17.3,18.3,31.2c4.2,6.9,7.7,12.8,7.7,13.1
		s2.1,4.2,4.7,8.6c5.3,8.9,9.1,15.6,13.8,24.5c1.8,3.3,3.6,6.3,4.1,6.8c0.4,0.4,2.3,3.5,4.1,6.8c1.6,3.3,4.7,8.7,6.4,12
		c2,3.3,5.4,9.6,7.7,13.8c2.4,4.3,6.4,11.9,9,16.5c2.7,4.8,7.3,13.6,10.5,19.6c3.3,5.8,8.4,15.8,11.7,21.8
		c10.8,20.1,21.1,42,21.1,44.4c0,0.6,1.4,3.9,3,7.3c1.6,3.3,3,6.8,3,7.5c0,0.6,1.4,4.1,3,7.5c1.6,3.3,3,6.8,3,7.5
		c0,0.6,1.4,4.1,3,7.5c1.6,3.3,3,6.9,3,7.8c0,0.8,1.2,4.3,2.8,7.9c1.5,3.5,4.9,12,7.7,19c2.5,7.1,5.4,14.1,6,15.8
		c4.5,10.9,19.5,55.8,24,71.3c1,3.8,2.5,8.9,3.2,11.3c3.8,13.1,9.6,48.3,11.7,70.5c5.3,54.9,6.6,161.1,2.4,194.3
		c-2.8,23.7-6.3,41.1-12.8,63.8c-0.9,3.3-2.3,8.1-2.8,10.5c-1.8,6.2-9.1,29.3-10.6,33c-0.6,1.6-2,5.4-3,8.3
		c-3.6,10.4-19,44.7-21,46.5c-0.4,0.4-3,5.1-5.8,10.5c-16.2,30.9-38.1,52.5-53.4,52.3c-4.2,0-17.4-2.8-24-5.1
		c-14.3-4.9-19.8-11.7-27-33c-8.7-26.1-14.7-69.3-21.8-159.8c-1.8-22-3.9-39.3-6-48.8c-3-12.9-4.5-24.1-4.5-33.6
		c0-5.4-1-14.7-2.4-20.4c-3.6-16.2-6.4-36.6-6.6-46.7c0-4.9-1.2-15.1-2.8-22.5c-2.8-13.9-4.9-29.3-7.7-56.8c-0.9-9-2.3-21.9-3-28.5
		c-1.4-11.9-3-28.5-6-60.3c-2.1-21.9-4.2-35-7.7-48.6c-1.8-7.1-2.8-16.5-2.8-24.9c0-12.8-0.6-17-4.8-37.7
		c-3.2-15-5.1-12.1-13.4,19.2c-10.8,41.4-13.6,98.7-7.3,144.8c2.1,15.8,4.3,28.6,6.2,35.7c3.5,13.9,6.4,24.5,10.1,36.3
		c1.6,4.9,4.5,14.1,6.3,20.3c2,6.2,4.3,14.3,5.6,18c1.2,3.8,3.2,10.4,4.3,14.7c1.2,4.2,3.2,11.7,4.3,16.5c1.4,4.7,3,11.3,3.6,14.6
		c10.1,47.8,12.1,65.7,12.1,103.3c0,32.5-1.8,49-7.8,74.4c-2.5,10.5-8.6,28.2-12.6,37c-2,4.5-3.6,8.7-3.6,9.3c0,0.8-0.4,1.6-1,2
		c-2,0.8-10.9,19.5-10.9,22.5c0,3.8,2.4,6,9,8.7c6.4,2.5,22.2,12.9,26.1,17.1c10.6,11.9,13.6,22.6,13.6,49.7
		c0,28.4-3.6,44.8-15.8,72c-6,13.5-10.1,20.5-21,36.9c-10.5,15.6-14.6,20.3-33,38.8c-17,17.1-21.6,20.9-41.3,34.2
		c-24.1,16.5-36.5,21.3-67.5,26.5c-7.3,1.2-16.5,3-20.1,4.1l-6.6,1.6l1,12.9c0.4,7.1,1.6,18,2.4,24.1c2.7,19.5,3.5,61.2,1.6,75
		c-4.1,28.5-9.8,54.5-15.1,68.3c-5.1,13.2-22.4,43.5-26.9,47.3c-0.6,0.4-3.3,3.8-6.2,7.5c-6.3,8.3-29,30.9-36.2,36.3
		c-2.8,2.1-9.4,6-14.9,8.9c-5.4,2.8-9.9,5.6-10.2,6.2c-0.3,0.8-1.2,1.2-1.8,1.2c-1.2,0-18.1,10.2-21.8,13.2
		c-0.8,0.6-3.9,2.1-6.8,3.2c-6.3,2.4-10.5,4.2-25.5,11.1c-15.1,6.8-21.5,8.9-48.8,16.4c-3.3,0.8-7.7,2.1-9.8,2.7
		c-5.6,2-21.6,5.6-36,8.4c-9.9,2-21.9,2.5-54,2.7c-45,0-58.2-1.4-82.5-9.1c-25.2-7.9-67.1-37-81.8-56.8c-2.5-3.2-4.9-6.2-5.4-6.6
		c-2-1.5-9.9-20.3-11.7-27.5c-2.3-9.9-2.1-34.2,0.6-46.8c3.6-17.4,9.9-35.1,17.5-49.3c9.4-17.7,14.4-26.1,18.8-31.6
		c5.3-6.8,5.6-7.1,9.4-12.8c2-2.8,4.1-5.6,4.5-6s2.5-3.2,4.5-6s4.7-6.3,6-7.5c1.2-1.2,4.1-4.7,6.3-7.8c2.3-3,4.9-6.3,6-7.5
		c1-1,5.7-6.3,10.2-11.7c13.5-15.9,46.3-48.8,52.7-52.7c3.2-2,5.8-4.1,5.8-4.7c0-0.8,0.9-1.2,2-1.2c2.8,0,12.4-8.6,11.3-9.9
		c-0.6-0.6-5.1-0.8-9.8-0.4c-19.5,1.4-104.8,0.4-127.9-1.4c-61.7-4.8-94.3-9-122.3-15.6c-16.5-3.8-27.6-1.2-17.3,4.1
		c7.2,3.8,10.5,6.9,14.3,14.3c2,3.8,4.8,8.1,6.3,9.8c1.5,1.6,5.7,6.8,9.4,11.3c3.8,4.5,7.1,8.6,7.5,9c2.5,2.4,10.5,15.9,10.5,18
		c0,2.1,2,5.4,12.3,20.9c1.5,2.1,2.7,5.4,2.7,7.3c0,2,2,7.7,4.3,12.8c7.1,14.7,11.1,27.6,13.8,43.8c6.2,37,7.5,75.2,3.6,103.7
		c-3.3,24.1-4.2,27.6-10.2,39.8c-2.8,6.2-6.2,13.6-7.1,17c-2.3,7.1-4.1,9.4-17.3,22.6c-18.5,18.6-22.4,20.9-50,30.3l-20.5,6.9
		l-42.8,2c-48.5,2.1-67.8,2.4-74.3,0.8L1135.9,2369.9z M1207.2,2334.5c16-3,16.5-3.2,39.2-14.4c20.1-10.2,23.9-13.1,36.8-28.6
		c5.4-6.4,18.6-26.4,18.6-28.2c0-0.8,0.4-1.5,1.2-1.5c0.6,0,2-2.3,3.2-4.8c1-2.7,3.5-7.9,5.3-11.7c2.7-5.8,3.2-9,2.8-24
		c-0.4-22.8-5.7-56.4-12.3-79.8c-0.9-3.2-2.3-7.9-3-10.5c-2.1-7.3-7.1-20.5-8.1-21.8c-0.6-0.4-1-2-1-3c0-4.2-21.8-46.3-31.6-61.3
		c-19.4-29.4-24.8-34.2-61.3-56.1c-8.7-5.1-19.5-12-24.1-15.1c-10.8-7.2-21.6-13.6-35.8-21.3c-6.2-3.3-11.6-6.4-12-6.9
		c-0.4-0.4-3.9-3.3-7.7-6.2c-9.1-6.8-13.6-14.1-14.6-22.8c-0.6-6,0.2-8.9,5.1-18.5c3.2-6.2,6.2-11.3,6.8-11.3c0.6,0,1.8-2,2.8-4.5
		c1-2.4,2.3-4.5,2.8-4.5c0.4,0,1.8-2.3,3-4.8c1.2-2.7,3.3-6.6,4.7-8.7c4.7-6.6,7.8-18.3,9.8-35.1c4.1-37.8-6.4-63-31.5-75.6
		c-21.9-10.9-38.1-6.6-47.3,12.8c-2.3,4.8-2.7,7.3-1.6,8.4c0.9,0.9,1.6,7.8,1.6,15.6c0,18.5-1.8,21.5-12.4,21.5h-7.7l-17.9-18.3
		c-9.8-10.2-19.5-21.3-21.6-24.9c-3.9-6.4-3.9-7.2-1-23c1-6.6-1.5-12.3-9.6-20.7c-12.3-12.9-22.6-15.1-36-7.7
		c-20.4,11.1-27.3,19.4-28.5,34c-0.6,6.6,0,8.6,3.9,14.3c6.2,9,9.3,19.2,9.3,30.5v9.8h-8.3c-4.5,0-8.3-0.6-8.3-1.4s-1.4-2-3-2.4
		s-3.9-1.8-4.8-2.7c-1-1-4.9-4.2-8.7-7.1c-9.1-7.2-17-14.1-28.4-25c-10.4-10.2-12-10.8-22.6-7.1c-13.5,4.7-22.2,9.8-23.7,13.8
		c-1.6,4.7-4.8,33.6-4.8,44.7c0,10.4,3.8,34,6.9,44.1c4.9,15.3,15.9,31.6,27.9,41.3c4.1,3.3,9.1,7.5,11.4,9.3c2.3,2,4.8,3.5,5.8,3.5
		c0.9,0,2,0.6,2.3,1.2c0.3,0.8,5.8,3.9,12.4,7.2c13.5,6.8,25.2,10.6,52.5,17.4c7.9,2,33.5,9.9,38.5,12.1c5.7,2.4,7.2,6.9,7.2,21.5
		c0,9.3-0.8,14.3-2.8,19c-1.6,3.5-3.8,11.1-4.7,16.8c-2.3,13.6-1.2,53,2.1,69.8c1.2,7.1,2.4,15.8,2.4,19.5c0,10.4,4.8,45.6,8.3,60.3
		c1,4.7,3,10.6,4.2,13.5c1.2,2.7,2.7,7.3,3.2,10.2c2.3,13.1,3.8,18.3,7.3,25.4c2.3,4.2,4.1,9.3,4.1,11.3c0,9.3,13.8,34.7,27,49.8
		c2.1,2.4,10.2,10.1,18,17.1c7.8,7.1,15.3,13.8,16.5,15.1c1.2,1.2,4.7,3.2,7.5,4.3c2.8,1.2,8.7,4.5,12.8,7.5
		c10.9,8.1,18.3,11.1,43.5,17.9c13.4,3.6,51.5,4.2,68.3,0.9L1207.2,2334.5z M1578.2,2332.2c27.3-4.1,33-5.3,51.3-10.6
		c10.8-3.3,22.2-6.8,25.5-7.7c15.4-4.5,42.5-18,64.5-32.5c3.3-2.3,8.1-4.9,10.5-6c7.8-3.5,10.8-5.3,16.8-9.9
		c9.8-7.5,27.5-26.3,35-36.9c2-2.8,4.5-6,5.6-7.1c1-1,2-2.5,2-3.3s0.9-2.3,2-3.3c2.8-3,12-18.8,18-30.5
		c12.3-24.8,23.4-67.7,23.5-90.9c0-9.6-2.1-25.5-6.6-50.8c-3.5-19-3.2-36.9,0.8-43.5c4.7-7.8,8.7-10.5,16.4-10.5
		c26.1-0.2,77.1-21.1,117-48.2c35-23.7,69.6-59.1,80.6-82.3c7.2-15.1,10.1-37.8,6.3-49.7c-8.3-25.6-20.3-30.1-41.8-15.8
		c-13.6,9.1-24.8,19.4-27.6,25.6c-2.4,4.9-2.8,5.3-10.4,5.3c-7.5,0-8.1-0.4-15.3-7.9c-9.3-9.6-11.3-13.1-11.3-19.5
		c0-7.7-3-22.4-4.9-24.1c-8.6-8.1-35.8-6.9-54.6,2.3c-3.9,2-7.9,5.3-8.9,7.1c-1.2,2.5-1.5,12.6-0.9,34.8c0.8,32.8,0.3,36-6,45.5
		c-2.5,3.6-3.8,4.1-11.6,4.1h-8.6l-5.1-8.6c-11.9-19.6-25.8-32.5-40.7-37.7c-6.8-2.3-18-2.3-23.4,0c-2.3,1-6.9,3.6-10.2,5.8
		c-5.7,3.8-11.1,6.4-26.3,12.8c-12.6,5.3-23.7,19.4-26.3,33.6c-2,10.6,6.6,32.5,20.7,53.1c5.8,8.7,6.3,9.8,6.3,20
		c0,9.9-0.3,11.1-4.5,15.4c-5.1,5.4-14.1,10.5-18.8,10.5c-1.6,0-9.6,3.5-17.7,7.5c-8.1,4.2-16.4,7.5-18.5,7.5c-2,0-5.4,1.8-7.5,4.2
		c-2.1,2.3-6.6,4.9-9.8,6.2c-9.1,3.2-18.5,7.8-29.1,14.3c-10.4,6.2-22.8,14.4-24,15.8c-0.4,0.6-3.2,2.7-6,4.8
		c-2.8,2.3-6.9,5.6-9,7.3c-2.1,1.8-5.7,4.2-8.3,5.3c-2.4,1-5.8,3.2-7.5,4.7c-1.8,1.6-7.5,6.6-12.8,11.1
		c-12.6,10.5-61.2,59.3-66.9,66.9c-2.4,3.2-4.7,6.2-5.1,6.6c-0.4,0.4-2.5,3.2-4.5,6s-4.1,5.6-4.5,6c-4.8,4.5-22.5,35-22.5,38.8
		c0,1-2,4.3-4.3,7.3s-5.8,9.6-7.7,14.6c-2,4.9-4.5,10.5-5.7,12.4c-3.2,4.9-6.2,20.5-6.3,32.7c-0.2,27,15.6,50,47.4,69
		c4.7,2.8,9.3,5.1,10.5,5.1c1,0,2.3,0.6,2.7,1.4c0.4,0.8,2.7,1.6,4.9,2.1c2.4,0.4,9,1.8,14.7,3c12.8,2.5,43.5,3.2,58.2,1
		L1578.2,2332.2z M1579.2,1971.9c10.8-1.5,14.9-2.4,35.3-7.9c30.6-8.3,61-21.1,69.8-29.7c4.3-4.3,5.7-9.6,3.2-12.4
		c-1.4-1.6-7.7-17.3-13.4-33.5c-5.6-15.9-5.7-38.4-0.4-52.5c5.1-14.1,11.9-25.5,18.8-32.5c18.3-18.5,65.4-32.7,99.8-30
		c7.1,0.6,15.3,1.2,18.1,1.4l5.3,0.3l8.4-17.3c13.4-27.1,19.5-41.8,23.9-57.8c5.3-18.9,7.9-31.2,10.5-47.4c2-13.1,2-53.7-0.2-62.5
		c-1.8-7.7-6.9-19.4-9.9-22.5c-1-1-2-2.5-2-3.2c0-0.6-2.7-3.9-5.8-7.2c-6-6.2-14.4-10.9-18.9-10.9c-5.4,0-8.3-3-8.3-8.9
		c0-6.8,2.3-9.1,12.4-13.5c8.6-3.8,17.3-4.1,28.8-1c14.4,3.8,16.5,5.4,17,12.4c0.4,5.4,0,6.3-3.3,7.3l-3.8,1.4l6.4,6.8
		c12.9,13.5,18.3,28.5,19.8,54.8c1.2,23.4-4.7,87.2-9,98.3c-0.9,2.1,3.2,2.4,33.2,2.3h34.2l6.9,4.1c7.1,4.1,23.9,21.3,23.9,24.3
		c0,0.9,1.2,3.2,2.7,4.9l2.5,3.5l10.4-7.8c21.6-16.2,36.6-40.7,45.6-73.9c5.8-21.8,8.6-56.7,6.3-81.3c-0.9-10.6-2.3-21.6-3-24.5
		c-0.8-2.8-2.1-9.3-3.2-14.3c-4.9-24-11.1-45.6-16.5-57.3c-1.5-3.6-2.8-6.9-2.8-7.7c0-0.8-1.8-4.9-3.9-9.4
		c-4.5-9.4-9.8-21-13.1-28.4c-1.4-2.8-4.8-10.5-7.7-17c-3-6.3-5.4-11.9-5.4-12.3s-1.2-3.6-2.8-7.2c-6.2-13.8-9.1-22.6-9.1-26.5
		c0-2.3-2.3-9-4.8-15.1l-4.9-11.1v-51.8c0-54.3,1.6-74.1,8.4-104.6c4.3-20.3,6.3-28.4,8.9-36.5c0.6-2.1,2-6.8,3-10.5
		c1-3.8,3.2-10.5,4.5-15c1.5-4.5,4.2-13.4,6-19.5c2-6.2,4.5-15,6-19.5c4.1-12.6,7.8-29.3,10.8-47.3c2.5-16.5,2.7-97.3,0-108.8
		c-1-4.5-2.7-11.3-3.6-15c-2.3-9.4-7.3-24.5-8.9-26.1c-0.8-0.9-1.4-2.5-1.4-3.8c0-4.8-19.8-39.8-25.5-45.2c-0.4-0.4-3.2-3.8-6-7.5
		c-2.8-3.8-5.6-7.1-6-7.5s-3.8-4.5-7.5-9c-8.6-10.5-39.9-41.8-47.5-47.4c-3.2-2.4-6.6-5.3-7.7-6.3c-1-0.9-2.5-1.8-3.3-1.8
		s-2.3-0.9-3.3-1.8c-2-1.8-3.6-2.8-12-7.5c-2-1-3.8-2.3-4.2-2.7c-2.1-2.1-39-20.9-54-27.6c-5.4-2.3-12.6-5.6-16-7.1
		c-3.6-1.5-7.3-2.8-8.4-2.8c-1,0-2.5-0.6-3.3-1.4c-1.6-1.4-15.9-6.6-39-14.3c-19.4-6.4-33.3-10.5-54.8-16
		c-14.1-3.6-48.9-9.6-69-11.9c-55.8-6.2-86.4-6.2-141,0.2c-15,1.6-19.8,2.4-45,7.5c-13.9,2.8-19.6,4.2-36.8,8.9
		c-2.4,0.8-8.6,2.4-13.5,3.8c-13.2,3.6-35.8,11.4-37.5,12.9c-0.8,0.8-2.3,1.4-3.3,1.4c-4.9,0-64.8,31.5-66.2,34.8
		c-0.3,0.6-1.2,1.2-2.1,1.2c-1.5,0-14.1,8.4-17.4,11.6c-1,1-2.5,2-3.2,2c-2.5,0-25.4,23.7-31.4,32.5c-7.9,11.9-11.3,19.5-13.6,32
		c-8.4,44.8-10.6,69.6-10.6,114c0,18.9-0.8,39.6-1.5,46c-0.9,6.4-2.3,17.4-3.2,24.5c-3.2,25.6-9,48.9-16.5,65.6
		c-1.5,3.6-2.8,7.1-2.8,7.9c0,0.9-0.6,2.7-1.5,4.2c-0.8,1.4-5.1,10.4-9.8,19.8c-7.7,16-11.9,23.9-14.7,27.8c-0.6,0.8-3.3,4.9-5.8,9
		c-2.7,4.2-5.3,7.8-5.7,8.3c-0.4,0.4-3.2,3.8-6,7.5c-9.3,12-38,42.8-49.5,53.1c-29.4,26.3-67.1,65.4-87.6,91.1
		c-5.6,6.9-10.9,13.6-12.1,15.1c-9.8,12-26.1,39.6-32.8,55.7c-1.4,3-3.5,8.1-4.8,11.3c-1.4,3-3.5,7.9-4.7,10.8
		c-1.4,2.8-4.2,9.4-6.6,14.7c-2.4,5.3-4.3,10.4-4.3,11.3c0,1-0.6,2.5-1.4,3.5c-3,3.2-17.4,46.8-20.5,62c-1.2,6.3-3.3,14.4-4.7,18.1
		c-1.2,3.8-3,9.1-3.8,12c-0.8,2.8-2,7.7-2.8,10.5c-2.8,10.9-5.8,26.4-5.8,30.8c0,2.5-1,8.3-2.4,12.8c-6.8,23.9-9.6,47-9.6,75.8
		c0,20.1,2.5,33.5,6,32.5c1-0.2,2.8-1.4,4.1-2.5c1.2-1.2,2.7-2.3,3.5-2.3s2.3-0.9,3.3-1.8c5.7-5.6,10.5-6.4,32.5-6.3
		c23.3,0.2,29.9,1.5,46.7,9c4.9,2.3,9,4.5,9,5.3c0,0.6,1.2,1.5,2.7,2c1.4,0.6,5.6,3.6,9.3,6.9c3.8,3.5,8.1,6.9,9.6,7.8
		c2.5,1.4,2.7,1.2,1.8-2c-4.9-16.8-5.7-24.5-6-59.8c-0.2-26.3,0.4-39.3,2-45.8c2.8-12.9,10.5-37.2,15.4-49.3
		c4.9-12.3,5.1-14.6,1.2-18.1c-2.3-2.1-3-4.3-2.7-8.1l0.4-5.4l15.8-0.4c16.5-0.4,25.4,1,34.5,6.2c8.4,4.7,9,5.6,9,13.2v7.3h-7.1
		c-4.9,0-8.3,1-11.7,3.6c-9,6.9-20,33.2-24.8,59.4c-0.9,5.4-2.4,12.6-3.2,16c-2.5,11.4-1.4,32.5,3.3,64.2c2.8,19.2,1.2,18,25,18
		c21.9,0,26.5,1,42.8,9.1c13.9,7.1,25.5,15.8,39.5,29.5c21.9,21.6,23.9,27.1,30,82.1c2.1,19.5,2.3,25.4,0.8,36
		c-2.3,15.4-8.6,35-17.9,54c-3.8,7.8-6.9,14.9-6.9,15.6c-0.2,1.6,14.7,9.6,28.4,15c18.8,7.5,51.2,17.4,69,21c2.5,0.4,7.9,1.6,12,2.5
		c17.4,3.6,40,6.8,64.5,8.9c9.9,0.9,26.4,2.3,36.8,3.2c45.9,4.1,181.5,4.8,207,1L1579.2,1971.9z"/>
	<path d="M1400.6,1706.6c-33.2-1.6-61.5-6-80.3-12.6c-9.8-3.3-26.9-11.6-27.5-13.1c-0.3-0.6-1.4-1.2-2.1-1.2
		c-1.5,0-16.6-10.6-20-14.3c-4.2-4.2-10.9-14.3-13.8-20.3c-4.8-10.1-6-15.4-7.9-34.2c-1.8-19.4-0.3-32.5,4.9-40
		c4.2-6.2,16-17.3,18.5-17.3c1,0,2.1-0.6,2.4-1.2c0.8-1.8,12.3-6.9,26-11.6c16.6-5.7,31.2-6.9,92.3-7.8c60-0.9,73.2,0.2,95.3,7.3
		c10.2,3.5,25.2,10.4,26,12.1c0.3,0.6,1.4,1,2.1,1c2.7,0,17.9,12,26.5,20.9c16.6,17.3,25.6,34.8,25.6,49.5c0,10.4-3.9,33-6.8,40.2
		c-6,14.7-27.1,27.9-62.3,38.7c-16.8,5.1-47.5,6.3-99,3.6L1400.6,1706.6z"/>
	<path d="M1592.6,1284c-15.8-5.3-26.9-17-31.4-33.3c-2.8-10.1-1.5-46.2,2-56.1c5.6-16.2,12-27,22.8-37.8c5.8-6,11.9-10.9,13.2-10.9
		c1.4,0,2.4-0.6,2.4-1.2c0-2.1,13.2-4.8,23.4-4.8c11.4,0,17,2.4,21.8,9.3c2,2.7,3.9,5.3,4.3,5.7c0.9,0.9,6.8,13.1,8.3,17.3
		c5.7,16.6,7.2,45.8,3,61.5c-2.3,9-8.3,23-11.6,27.1c-6,7.8-16.4,16.8-22.8,19.8C1620.2,1284.4,1599.5,1286.3,1592.6,1284
		L1592.6,1284z"/>
	<path d="M1378.1,1248.1c-3.9-1.8-6.4-4.9-9.8-11.6c-4.2-8.6-4.3-9.9-4.3-29.3c0-20.3,0-20.3,5.4-31.5c6.2-12.6,9.4-17.3,19.2-27
		c16.6-16.6,35.1-27,47.8-27c7.1,0,10.2,0.9,19.6,5.1c11.1,4.9,19.5,18.3,19.5,30.8c0,9.4-10.1,40.5-18.1,56.4
		c-7.2,13.9-21.1,29.1-30.8,33.6c-9,4.3-40.5,4.7-48.6,0.4L1378.1,1248.1z"/>
	<path d="M1723.7,1014.8c-0.9-1-3.6-5.7-6.3-10.4c-4.5-8.3-19.4-31-21.1-32.7c-0.4-0.4-2.8-3.5-5.3-6.8
		c-7.9-10.8-38.3-40.5-44.8-43.8c-3.5-1.8-10.9-3.9-16.8-4.9c-5.7-0.9-14.3-2.5-18.8-3.5l-8.3-2l-0.4-6.8c-0.4-6.6-0.3-6.9,6-9.9
		c3.6-1.8,9.1-4.1,12.4-5.1c8.6-2.7,37.3-2.4,46.7,0.4c23.9,7.3,56.4,31.2,65.1,47.8c1,2,2.4,3.9,2.8,4.3c1.6,1.4,9.9,15.6,13.9,24
		c7.7,15.9,8.7,19.8,8.7,30.6c0,11.7-1.5,14.3-10.9,18.6c-5.4,2.3-20.9,2.3-23-0.2L1723.7,1014.8z"/>
	<path d="M1325.3,976.1c-3-1.6-3.8-14.3-1.4-19c0.8-1.4,2.4-4.8,3.5-7.3c1-2.7,2.4-4.9,3-4.9c0.8,0,1.2-0.8,1.2-1.8
		c0-2,11.1-17,15.8-21.3c1.6-1.5,5.4-4.5,8.3-6.8c2.8-2.1,5.6-4.2,6-4.7c0.4-0.4,2.8-2,5.6-3.5c9.9-5.6,18.6-7.1,40.3-7.1
		c22.6,0,35.1,2.5,44.8,9.4c7.1,4.9,8.1,7.2,8.3,17.3v9.3h-8.4c-6.6,0-10.9-1.2-20.5-5.8c-22.8-10.6-24.3-10.9-34.5-6.2
		c-15.1,7.2-27,19.4-37,38c-5.4,10.1-6.8,11.7-11.6,14.3c-4.1,2.3-19.8,2.3-23.3,0.2L1325.3,976.1z"/>
</g>
</svg>
