<?xml version="1.0" encoding="utf-8"?>
<!-- Generator: Adobe Illustrator 24.3.0, SVG Export Plug-In . SVG Version: 6.00 Build 0)  -->
<svg version="1.1" id="Capa_2" xmlns="http://www.w3.org/2000/svg" xmlns:xlink="http://www.w3.org/1999/xlink" x="0px" y="0px"
	 viewBox="0 0 353.6 342.9" style="enable-background:new 0 0 353.6 342.9;" xml:space="preserve">
<style type="text/css">
	.st0{fill:#FFFFFF;}
</style>
<path class="st0" d="M191.4,194.4c-0.8-43.8,5.5-97.6,26.6-159.6c0,0-42.2,75.3-50.7,164.2c-31.1,6.2-66.8,14.3-107.8,24.5
	c0,0,125.1-96.3,171-223.5c0,0-88,143-230.5,240.6c-0.1,0-0.1,0.1-0.1,0.2l0.8,30.7c0,0,85.2-29.9,165.1-48.3
	c-0.8,40.1,6.4,81.8,28,119.7l26.5-16.9c0,0-22.5-38.9-27.9-108.4c98.4-19.3,172.2-12.6,37.2,104.6
	C229.7,322.1,532.4,131.8,191.4,194.4z"/>
</svg>
