<?xml version="1.0" encoding="iso-8859-1"?>
<!-- Generator: Adobe Illustrator 19.0.0, SVG Export Plug-In . SVG Version: 6.00 Build 0)  -->
<svg xmlns="http://www.w3.org/2000/svg" xmlns:xlink="http://www.w3.org/1999/xlink" version="1.1" id="Layer_1" x="0px" y="0px" viewBox="0 0 512 512" style="enable-background:new 0 0 512 512;" xml:space="preserve" width="512" height="512">
<g>
	<g>
		<path style="fill:#FADC60;" d="M260.115,9.79c-2.564-3.053-7.254-3.053-9.818,0c-9.33,11.106-28.699,36.833-28.699,58.998    c0,18.561,15.047,33.608,33.608,33.608s33.608-15.047,33.608-33.608C288.814,46.623,269.444,20.896,260.115,9.79z"/>
		<path style="fill:#F2C42C;" d="M241.598,68.787c0-18.643,13.702-39.803,23.608-52.667c-1.871-2.43-3.609-4.566-5.091-6.332    c-2.564-3.053-7.254-3.053-9.818,0c-9.33,11.106-28.699,36.833-28.699,58.998c0,18.562,15.047,33.608,33.608,33.608    c3.482,0,6.841-0.53,10-1.513C251.528,96.626,241.598,83.867,241.598,68.787z"/>
		<rect x="205.614" y="151.114" style="fill:#D2D2D2;" width="100.772" height="248.803"/>
		<path style="fill:#FADC60;" d="M346.539,367.872v21.046c-23.886,0-35.89,73.489-35.89,73.489L256,483.454l-54.649-21.047    c0,0-12.003-73.489-35.89-73.489v-21.046H346.539z"/>
		<path style="fill:#F2C42C;" d="M241.351,462.407c0,0-12.003-73.489-35.89-73.489v-21.046h-40v21.046    c23.886,0,35.89,73.489,35.89,73.489L256,483.454l20-7.702L241.351,462.407z"/>
		<path style="fill:#F2C42C;" d="M346.539,346.826H165.461c-9.063,0-16.411,7.347-16.411,16.411v9.271    c0,9.063,7.347,16.411,16.411,16.411h181.078c9.063,0,16.411-7.347,16.411-16.411v-9.271    C362.95,354.173,355.602,346.826,346.539,346.826z"/>
		<path style="fill:#E0B629;" d="M189.05,372.508v-9.271c0-9.063,7.347-16.411,16.411-16.411h-40    c-9.063,0-16.411,7.347-16.411,16.411v9.271c0,9.063,7.347,16.411,16.411,16.411h40    C196.398,388.918,189.05,381.571,189.05,372.508z"/>
		<path style="fill:#F2C42C;" d="M310.649,462.407H201.351c-9.063,0-16.411,7.347-16.411,16.411v9.271    c0,9.063,7.347,16.411,16.411,16.411h109.298c9.063,0,16.411-7.347,16.411-16.411v-9.271    C327.06,469.754,319.713,462.407,310.649,462.407z"/>
		<path style="fill:#E0B629;" d="M224.94,488.089v-9.271c0-9.063,7.347-16.411,16.411-16.411h-40    c-9.063,0-16.411,7.347-16.411,16.411v9.271c0,9.063,7.347,16.411,16.411,16.411h40C232.288,504.5,224.94,497.153,224.94,488.089z    "/>
		<path style="fill:#EFEDEE;" d="M301.603,133.418h-91.206c-10.917,0-19.767,8.85-19.767,19.767v37.39    c0,11.815,9.188,21.879,20.996,22.298c12.397,0.441,22.585-9.478,22.585-21.776v19.986c0,11.815,9.188,21.879,20.996,22.298    c12.397,0.441,22.585-9.478,22.585-21.776v-41.017c0,12.298,10.188,22.217,22.585,21.776c11.808-0.42,20.996-10.483,20.996-22.298    v-16.882C321.371,142.268,312.521,133.418,301.603,133.418z"/>
	</g>
	<g>
		<path d="M205.614,265.592c-4.142,0-7.5,3.358-7.5,7.5v66.233h-32.653c-13.185,0-23.911,10.726-23.911,23.911v9.271    c0,13.185,10.727,23.911,23.911,23.911c9.543,0,21.379,30.386,27.209,60.126c-8.904,3.482-15.23,12.15-15.23,22.273v9.271    c0,13.185,10.726,23.911,23.91,23.911h109.299c13.184,0,23.911-10.726,23.911-23.911v-9.271c0-10.123-6.327-18.791-15.231-22.273    c5.831-29.741,17.667-60.126,27.21-60.126c13.184,0,23.911-10.726,23.911-23.911v-9.271c0-13.185-10.726-23.911-23.911-23.911    h-32.653V196.015c8.907-5.164,14.985-14.952,14.985-25.948v-16.882c0-15.035-12.232-27.267-27.267-27.267h-38.898v-16.72    c19.096-3.537,33.608-20.305,33.608-40.41c0-23.985-19.082-50.282-30.456-63.822C263.206,1.81,259.324,0,255.206,0    c-4.119,0-8.001,1.81-10.652,4.966c-11.374,13.54-30.456,39.837-30.456,63.822c0,20.104,14.512,36.873,33.608,40.41v16.72h-37.309    c-15.035,0-27.267,12.232-27.267,27.267v37.39c0,10.996,6.078,20.783,14.985,25.948v26.569c0,4.142,3.358,7.5,7.5,7.5    s7.5-3.358,7.5-7.5V220.38c0.08-0.002,0.159-0.01,0.238-0.013c2.133-0.066,4.266-0.338,6.329-0.893    c0.013-0.003,0.026-0.006,0.039-0.01c2.62-0.669,5.132-1.687,7.47-3.058c0.033,0.183,0.075,0.363,0.111,0.544    c0.869,4.308,2.702,8.411,5.314,11.944c0.01,0.014,0.019,0.027,0.029,0.041c5.169,6.963,13.241,11.619,22.295,11.941    c0.011,0,0.023,0,0.034,0c16.201,0.002,30.079-12.297,30.307-28.857c0.002-0.139,0.01-15.846,0.01-15.846    c2.831,1.588,5.906,2.673,9.115,3.241c1.487,0.263,2.971,0.424,4.481,0.456v139.454h-85.771v-66.233    C213.114,268.95,209.756,265.592,205.614,265.592z M229.098,68.788c0-6.569,2.564-24.799,26.108-53.176    c23.544,28.377,26.108,46.607,26.108,53.176c0,11.789-7.857,21.774-18.608,25.004V81.888c0-4.143-3.358-7.5-7.5-7.5    s-7.5,3.357-7.5,7.5v11.905C236.955,90.562,229.098,80.577,229.098,68.788z M198.129,153.185c0-6.764,5.503-12.267,12.267-12.267    h91.207c6.764,0,12.267,5.503,12.267,12.267c0,0,0,16.876,0,16.882c0,7.535-6.079,14.522-13.762,14.803    c-7.886,0.276-14.818-6.357-14.818-14.281c0-4.142-3.358-7.5-7.5-7.5c-4.142,0-7.5,3.358-7.5,7.5v41.017    c0,0.04-0.006,0.081-0.006,0.121c-0.049,7.85-6.992,14.437-14.812,14.16c-7.725-0.274-13.762-7.238-13.762-14.803v-19.986    c0-4.142-3.358-7.5-7.5-7.5c-4.143,0-7.5,3.358-7.5,7.5c0,8.218-7.857,15.218-16.032,14.174    c-7.16-0.914-12.548-7.584-12.548-14.696V153.185z M319.56,488.089c0,4.914-3.997,8.911-8.911,8.911H201.351    c-4.913,0-8.91-3.997-8.91-8.911v-9.271c0-4.914,3.997-8.911,8.91-8.911h0h109.298h0c4.913,0,8.911,3.997,8.911,8.911V488.089z     M346.539,354.326c4.913,0,8.911,3.998,8.911,8.911v9.271c0,4.913-3.997,8.911-8.911,8.911h-45.434c-4.142,0-7.5,3.358-7.5,7.5    s3.358,7.5,7.5,7.5h23.389c-4.333,6.693-8.316,15.649-11.989,26.92c-4.008,12.301-6.695,24.463-8.1,31.568h-96.812    c-1.405-7.105-4.091-19.268-8.099-31.568c-3.673-11.271-7.655-20.228-11.989-26.92h83.6c4.142,0,7.5-3.358,7.5-7.5    s-3.358-7.5-7.5-7.5H165.461c-4.914,0-8.911-3.998-8.911-8.911v-9.271c0-4.913,3.998-8.911,8.911-8.911H346.539z"/>
	</g>
</g>















</svg>
